<svg width="80" height="80" viewBox="0 0 80 80" fill="none" xmlns="http://www.w3.org/2000/svg">
<g clip-path="url(#clip0_186_2046)">
<path fill-rule="evenodd" clip-rule="evenodd" d="M43.4085 51.2505C43.926 51.2343 44.3586 51.6407 44.3748 52.1582C44.4588 54.8449 44.1829 58.5847 43.1771 62.1224C48.9605 62.3854 55.091 63.2449 60.0118 65.0578C60.4976 65.2368 60.7464 65.7758 60.5674 66.2616C60.3884 66.7474 59.8494 66.9962 59.3636 66.8172C54.539 65.0397 48.3949 64.2027 42.5729 63.9735C42.4525 64.297 42.325 64.6168 42.1901 64.9317C41.2791 67.0583 40.0077 69.0182 38.2501 70.4171C36.4736 71.8311 34.2443 72.6352 31.5159 72.4988C26.4439 72.2452 23.6308 70.8099 22.6039 68.8411C21.5374 66.7963 22.6319 64.6673 24.2685 63.849C25.366 63.3002 27.4281 62.8582 29.9536 62.5461C32.5259 62.2283 35.7091 62.0312 39.1409 62.0312C39.8312 62.0312 40.5326 62.0392 41.2422 62.0559C42.2852 58.6371 42.5844 54.8947 42.5007 52.2168C42.4845 51.6993 42.891 51.2666 43.4085 51.2505ZM40.5819 63.9181C40.0976 63.9101 39.6169 63.9062 39.1409 63.9062C35.7757 63.9062 32.6699 64.0998 30.1836 64.407C27.6506 64.7199 25.8845 65.1373 25.107 65.526C24.2367 65.9612 23.7686 67.0197 24.2664 67.974C24.8038 69.0043 26.6816 70.3798 31.6096 70.6262C33.8812 70.7397 35.6623 70.0804 37.0824 68.9501C38.5215 67.8047 39.6329 66.1396 40.4666 64.1933C40.5057 64.1021 40.5441 64.0103 40.5819 63.9181Z" fill="#972A29"/>
<path fill-rule="evenodd" clip-rule="evenodd" d="M43.4377 50.9375C44.1281 50.9375 44.6877 50.3779 44.6877 49.6875C44.6877 48.9971 44.1281 48.4375 43.4377 48.4375C42.7474 48.4375 42.1877 48.9971 42.1877 49.6875C42.1877 50.3779 42.7474 50.9375 43.4377 50.9375ZM43.4377 52.8125C45.1636 52.8125 46.5627 51.4134 46.5627 49.6875C46.5627 47.9616 45.1636 46.5625 43.4377 46.5625C41.7119 46.5625 40.3127 47.9616 40.3127 49.6875C40.3127 51.4134 41.7119 52.8125 43.4377 52.8125Z" fill="#972A29"/>
<path fill-rule="evenodd" clip-rule="evenodd" d="M50.7776 2.62353C51.2272 2.88041 51.3834 3.45309 51.1265 3.90264C50.0914 5.71395 49.0572 6.96352 47.7843 7.73832C46.4989 8.52078 45.0838 8.75001 43.4375 8.75001C42.9197 8.75001 42.5 8.33027 42.5 7.81251C42.5 7.29474 42.9197 6.87501 43.4375 6.87501C44.9162 6.87501 45.9386 6.66674 46.8094 6.1367C47.6928 5.59899 48.5336 4.66106 49.4985 2.97238C49.7554 2.52283 50.3281 2.36665 50.7776 2.62353ZM17.5 4.06251C17.5 3.54474 17.9197 3.12501 18.4375 3.12501H37.1875C37.4361 3.12501 37.6746 3.22378 37.8504 3.3996L40.9754 6.5246C41.3415 6.89071 41.3415 7.4843 40.9754 7.85042C40.6093 8.21654 40.0157 8.21654 39.6496 7.85042L36.7992 5.00001H19.375V79.0625C19.375 79.5803 18.9553 80 18.4375 80C17.9197 80 17.5 79.5803 17.5 79.0625V4.06251Z" fill="#AE8452"/>
<path fill-rule="evenodd" clip-rule="evenodd" d="M43.75 3.125C42.3693 3.125 41.25 4.24429 41.25 5.625V10.625H46.25V5.625C46.25 4.24429 45.1307 3.125 43.75 3.125ZM48.125 10.625V5.625C48.125 3.20875 46.1662 1.25 43.75 1.25C41.3338 1.25 39.375 3.20875 39.375 5.625V10.625H32.1875C29.5987 10.625 27.5 12.7237 27.5 15.3125V28.9939C27.5 32.7935 27.8053 36.9155 29.966 40.3617C32.2202 43.9571 36.3772 48.125 43.4375 48.125C51.9627 48.125 56.5208 42.0617 58.5406 38.2516C59.7024 36.0599 60 33.6066 60 31.2791V15.3125C60 12.7237 57.9013 10.625 55.3125 10.625H48.125ZM32.1875 12.5C30.6342 12.5 29.375 13.7592 29.375 15.3125V23.75H58.125V19.0625H52.1875C51.6697 19.0625 51.25 18.6428 51.25 18.125C51.25 17.6072 51.6697 17.1875 52.1875 17.1875H58.125V15.3125C58.125 13.7592 56.8658 12.5 55.3125 12.5H32.1875ZM58.125 25.625H29.375V28.9939C29.375 32.7572 29.6978 36.4042 31.5546 39.3657C33.6119 42.6471 37.2566 46.25 43.4375 46.25C50.0007 46.25 53.9366 42.177 56.0888 38.75H54.0625C53.5447 38.75 53.125 38.3303 53.125 37.8125C53.125 37.2947 53.5447 36.875 54.0625 36.875H57.128C57.8127 35.3577 58.0725 33.6538 58.1176 31.875H52.1875C51.6697 31.875 51.25 31.4553 51.25 30.9375C51.25 30.4197 51.6697 30 52.1875 30H58.125V25.625Z" fill="#972A29"/>
</g>
<defs>
<clipPath id="clip0_186_2046">
<rect width="80" height="80" fill="white"/>
</clipPath>
</defs>
</svg>
