<svg width="80" height="80" viewBox="0 0 80 80" fill="none" xmlns="http://www.w3.org/2000/svg">
<path fill-rule="evenodd" clip-rule="evenodd" d="M27.5291 8.87811C23.8586 11.9573 22.0429 15.8184 20.9137 18.9793C20.9094 18.9912 20.9058 19.0041 20.9025 19.0207L15.9203 44.5545C15.8212 45.0627 15.3288 45.3943 14.8206 45.2951C14.3125 45.196 13.9809 44.7036 14.08 44.1955L19.0622 18.6616C19.0827 18.5569 19.1107 18.4529 19.148 18.3485C20.3262 15.0505 22.2854 10.8296 26.324 7.44163C30.3772 4.04144 36.4247 1.56251 45.6252 1.5625C54.9729 1.56249 61.8458 4.71481 66.4172 8.41165C68.6983 10.2564 70.4079 12.2379 71.5668 14.0324C72.702 15.7902 73.3669 17.4596 73.4356 18.6873L76.5038 57.3459C76.5628 58.0898 76.2359 58.9025 75.4779 59.3193C73.5038 60.4047 69.5651 61.5271 65.2444 59.6067C64.7713 59.3964 64.5582 58.8424 64.7685 58.3693C64.9788 57.8961 65.5328 57.683 66.0059 57.8933C69.6553 59.5152 72.9678 58.5597 74.5745 57.6762C74.5856 57.6701 74.5993 57.6592 74.6126 57.632C74.6273 57.6019 74.6394 57.5541 74.6347 57.4942L71.5656 18.8242L71.564 18.7993C71.5245 18.049 71.0597 16.7034 69.9917 15.0496C68.9433 13.4262 67.3687 11.5925 65.2381 9.86958C60.9862 6.431 54.5257 3.43749 45.6252 3.4375C36.781 3.43751 31.1851 5.81108 27.5291 8.87811ZM48.6294 20.614C46.3306 19.8953 43.8249 20.0844 41.3971 20.799C38.2113 21.7366 34.4854 23.0048 30.5379 25.768C25.4238 29.3478 22.9156 36.1086 22.7305 40.5651C22.6832 41.7042 22.9712 42.8609 23.3955 44.063C23.5678 44.5512 23.3117 45.0867 22.8235 45.259C22.3353 45.4314 21.7997 45.1753 21.6274 44.687C21.1746 43.4042 20.7951 41.981 20.8571 40.4873C21.0597 35.6076 23.7519 28.2295 29.4626 24.232C33.6562 21.2965 37.6092 19.9593 40.8677 19.0003C43.525 18.2181 46.4283 17.9614 49.1889 18.8245C55.8845 20.9178 67.9548 26.703 71.5348 41.0226C71.6603 41.5249 71.3549 42.0339 70.8526 42.1595C70.3503 42.2851 69.8413 41.9797 69.7157 41.4774C66.3748 28.1137 55.1021 22.6377 48.6294 20.614ZM29.4377 39.25C29.8505 38.9404 30.4357 39.0227 30.7471 39.4335C30.7482 39.4348 30.7492 39.4362 30.7502 39.4375L30.0002 40C30.7502 39.4375 30.7504 39.4378 30.7502 39.4375L30.7492 39.4362L30.7484 39.4351L30.7471 39.4335L30.7542 39.4424C30.7625 39.4528 30.7777 39.4715 30.7999 39.4973C30.8442 39.549 30.9158 39.6289 31.0147 39.7277C31.2128 39.9259 31.5171 40.1971 31.9265 40.47C32.7415 41.0133 33.9698 41.5625 35.6252 41.5625C37.2805 41.5625 38.5089 41.0133 39.3239 40.47C39.7332 40.1971 40.0376 39.9259 40.2357 39.7277C40.3345 39.6289 40.4062 39.549 40.4505 39.4973C40.4726 39.4715 40.4878 39.4528 40.4961 39.4424L40.5031 39.4336L40.5011 39.4362C40.5009 39.4365 40.5002 39.4375 41.2502 40L40.5002 39.4375C40.5012 39.4362 40.5021 39.435 40.5031 39.4336C40.8145 39.0229 41.3998 38.9404 41.8127 39.25C42.2269 39.5607 42.3108 40.1483 42.0002 40.5625L41.2502 40C42.0002 40.5625 42.0005 40.5621 42.0002 40.5625L41.999 40.564L41.9977 40.5658L41.9945 40.57L41.986 40.5811C41.9793 40.5897 41.9708 40.6006 41.9603 40.6137C41.9393 40.64 41.9106 40.675 41.8741 40.7175C41.8012 40.8026 41.6971 40.918 41.5615 41.0535C41.2909 41.3241 40.8921 41.6779 40.364 42.03C39.304 42.7367 37.7198 43.4375 35.6252 43.4375C33.5305 43.4375 31.9464 42.7367 30.8864 42.03C30.3582 41.6779 29.9594 41.3241 29.6888 41.0535C29.5533 40.918 29.4491 40.8026 29.3763 40.7175C29.3398 40.675 29.3111 40.64 29.2901 40.6137C29.2796 40.6006 29.271 40.5897 29.2644 40.5811L29.2558 40.57L29.2526 40.5658L29.2513 40.564C29.251 40.5637 29.2502 40.5625 30.0002 40L29.2502 40.5625C28.9395 40.1483 29.0235 39.5607 29.4377 39.25ZM49.4377 39.25C49.8505 38.9404 50.4357 39.0227 50.7471 39.4335C50.7482 39.4348 50.7492 39.4362 50.7502 39.4375L50.0002 40C50.7502 39.4375 50.7504 39.4378 50.7502 39.4375L50.7492 39.4362L50.7471 39.4335L50.7542 39.4424C50.7625 39.4528 50.7777 39.4715 50.7999 39.4973C50.8442 39.549 50.9158 39.6289 51.0147 39.7277C51.2128 39.9259 51.5171 40.1971 51.9265 40.47C52.7415 41.0133 53.9698 41.5625 55.6252 41.5625C57.2805 41.5625 58.5089 41.0133 59.3239 40.47C59.7332 40.1971 60.0376 39.9259 60.2357 39.7277C60.3345 39.6289 60.4062 39.549 60.4505 39.4973C60.4726 39.4715 60.4878 39.4528 60.4961 39.4424L60.502 39.4351L60.5012 39.4362C60.502 39.435 60.5024 39.4345 60.5033 39.4333C60.8148 39.0227 61.3999 38.9404 61.8127 39.25C62.2269 39.5607 62.3108 40.1483 62.0002 40.5625L61.2502 40C62.0002 40.5625 62.0005 40.5621 62.0002 40.5625L61.999 40.564L61.9977 40.5658L61.9945 40.57L61.986 40.5811C61.9793 40.5897 61.9708 40.6006 61.9603 40.6137C61.9393 40.64 61.9106 40.675 61.8741 40.7175C61.8012 40.8026 61.6971 40.918 61.5615 41.0535C61.2909 41.3241 60.8921 41.6779 60.364 42.03C59.304 42.7367 57.7198 43.4375 55.6252 43.4375C53.5305 43.4375 51.9464 42.7367 50.8864 42.03C50.3582 41.6779 49.9594 41.3241 49.6888 41.0535C49.5533 40.918 49.4492 40.8026 49.3763 40.7175C49.3398 40.675 49.3111 40.64 49.2901 40.6137C49.2796 40.6006 49.271 40.5897 49.2644 40.5811L49.2558 40.57L49.2526 40.5658L49.2513 40.564C49.251 40.5637 49.2502 40.5625 50.0002 40L49.2502 40.5625C48.9395 40.1483 49.0235 39.5607 49.4377 39.25ZM28.9451 57.539C29.3651 57.2364 29.9511 57.3315 30.2538 57.7516C36.4575 66.3612 43.0473 67.8125 46.2503 67.8125C46.2786 67.8125 46.3069 67.8138 46.3351 67.8163C48.2478 67.9902 54.3157 66.7256 61.1899 59.3603C61.5432 58.9818 62.1364 58.9614 62.5149 59.3146C62.8934 59.6679 62.9139 60.2612 62.5606 60.6397C61.1754 62.1239 59.8101 63.382 58.4896 64.444C59.0198 66.3711 59.9933 69.1605 61.2829 71.6102C61.9629 72.902 62.7145 74.0678 63.5127 74.9582C64.3191 75.8578 65.1088 76.4046 65.8526 76.5905C66.3549 76.7161 66.6603 77.2251 66.5347 77.7274C66.4091 78.2297 65.9001 78.5351 65.3978 78.4095C64.1416 78.0955 63.0458 77.2464 62.1166 76.2098C61.1791 75.164 60.3447 73.8532 59.6237 72.4836C58.4106 70.1791 57.4721 67.6186 56.8868 65.6557C52.1464 69.0128 48.1635 69.8474 46.2092 69.6874C43.614 69.6789 39.4794 68.8614 35.0416 65.4761C34.4608 67.4607 33.5021 70.1082 32.2516 72.4836C31.5306 73.8532 30.6963 75.164 29.7588 76.2098C28.8295 77.2464 27.7338 78.0955 26.4776 78.4095C25.9752 78.5351 25.4662 78.2297 25.3407 77.7274C25.2151 77.2251 25.5205 76.7161 26.0228 76.5905C26.7666 76.4046 27.5562 75.8578 28.3626 74.9582C29.1609 74.0678 29.9124 72.902 30.5925 71.6102C31.9451 69.0408 32.9499 66.0977 33.4603 64.1678C31.886 62.7605 30.2923 61.0124 28.7325 58.8477C28.4298 58.4277 28.525 57.8417 28.9451 57.539ZM41.7884 58.1399C42.1235 57.749 42.7106 57.7018 43.1037 58.0326C43.1039 58.0328 43.1034 58.0324 43.1037 58.0326M42.5002 58.75L41.8901 59.4618C41.4969 59.1248 41.4514 58.533 41.7884 58.1399M42.5002 58.75C41.8901 59.4618 41.8897 59.4615 41.8901 59.4618L41.8915 59.463L41.8931 59.4644L41.8967 59.4674L41.9055 59.4748L41.93 59.4948C41.9493 59.5104 41.9747 59.5302 42.006 59.5537C42.0687 59.6007 42.1556 59.6625 42.2667 59.7339C42.4887 59.8767 42.808 60.0582 43.2246 60.2367C44.0601 60.5948 45.2791 60.9375 46.8752 60.9375C48.4713 60.9375 49.6902 60.5948 50.5257 60.2367C50.9423 60.0582 51.2616 59.8767 51.4837 59.7339C51.5948 59.6625 51.6816 59.6007 51.7443 59.5537C51.7757 59.5302 51.801 59.5104 51.8203 59.4948L51.8448 59.4748L51.8537 59.4674L51.8573 59.4644L51.8588 59.463C51.8592 59.4627 51.8603 59.4618 51.2502 58.75L51.8603 59.4618C52.2534 59.1248 52.2989 58.533 51.962 58.1399C51.6269 57.749 51.0398 57.7018 50.6466 58.0326C50.647 58.0324 50.6464 58.0328 50.6466 58.0326" fill="#972A29"/>
<path fill-rule="evenodd" clip-rule="evenodd" d="M1.5625 54.375C1.5625 48.3344 6.45939 43.4375 12.5 43.4375H26.875C29.4638 43.4375 31.5625 45.5362 31.5625 48.125V55.625C31.5625 58.2138 29.4638 60.3125 26.875 60.3125H23.75C18.7449 60.3125 14.6875 64.3699 14.6875 69.375V76.25C14.6875 76.7678 14.2678 77.1875 13.75 77.1875H2.5C1.98223 77.1875 1.5625 76.7678 1.5625 76.25V54.375ZM12.5 45.3125C7.49492 45.3125 3.4375 49.3699 3.4375 54.375V55.2075L5.23921 56.829C8.07068 59.3773 9.6875 63.0077 9.6875 66.817V75.3125H12.8125V69.375C12.8125 63.4389 17.5414 58.6073 23.4375 58.4419V45.3125H12.5ZM25.3125 45.3125V58.4375H26.875C28.4283 58.4375 29.6875 57.1783 29.6875 55.625V48.125C29.6875 46.5717 28.4283 45.3125 26.875 45.3125H25.3125ZM7.8125 75.3125V66.817C7.8125 63.5392 6.42128 60.4154 3.9849 58.2227L3.4375 57.73V75.3125H7.8125ZM15.625 49.6875C14.7621 49.6875 14.0625 50.3871 14.0625 51.25V53.75C14.0625 54.6129 14.7621 55.3125 15.625 55.3125C16.4879 55.3125 17.1875 54.6129 17.1875 53.75V51.25C17.1875 50.3871 16.4879 49.6875 15.625 49.6875ZM12.1875 51.25C12.1875 49.3515 13.7265 47.8125 15.625 47.8125C17.5235 47.8125 19.0625 49.3515 19.0625 51.25V53.75C19.0625 55.6485 17.5235 57.1875 15.625 57.1875C13.7265 57.1875 12.1875 55.6485 12.1875 53.75V51.25Z" fill="#AE8452"/>
<path fill-rule="evenodd" clip-rule="evenodd" d="M67.8681 41.6377C68.138 41.7529 68.3385 41.9879 68.4097 42.2726L69.6597 47.2726C69.7852 47.7749 69.4798 48.2839 68.9775 48.4095C68.4752 48.5351 67.9662 48.2297 67.8406 47.7274L67.2944 45.5423C66.5851 46.9003 65.6539 48.2648 64.6525 49.5095C62.9414 51.6364 60.9237 53.5392 59.2325 54.5539C58.7885 54.8203 58.2126 54.6763 57.9462 54.2323C57.6799 53.7884 57.8238 53.2125 58.2678 52.9461C59.7016 52.0858 61.5589 50.3636 63.1916 48.3342C64.1648 47.1245 65.0223 45.85 65.6527 44.6354L63.5903 45.814C63.1407 46.0709 62.568 45.9147 62.3112 45.4651C62.0543 45.0156 62.2105 44.4429 62.66 44.186L67.035 41.686C67.2898 41.5404 67.5982 41.5225 67.8681 41.6377ZM76.6181 46.6377C76.888 46.7529 77.0885 46.9879 77.1597 47.2726L78.4097 52.2726C78.5352 52.7749 78.2298 53.2839 77.7275 53.4095C77.2252 53.5351 76.7162 53.2297 76.5906 52.7274L76.0444 50.5423C75.3351 51.9003 74.4039 53.2648 73.4025 54.5095C71.6914 56.6364 69.6737 58.5392 67.9825 59.5539C67.5385 59.8203 66.9626 59.6763 66.6962 59.2323C66.4299 58.7884 66.5738 58.2125 67.0178 57.9461C68.4516 57.0858 70.3089 55.3636 71.9416 53.3342C72.9148 52.1245 73.7723 50.85 74.4027 49.6354L72.3403 50.814C71.8907 51.0709 71.3181 50.9147 71.0612 50.4651C70.8043 50.0156 70.9605 49.4429 71.41 49.186L75.785 46.686C76.0398 46.5404 76.3482 46.5225 76.6181 46.6377Z" fill="#AE8452"/>
</svg>
