<svg width="80" height="80" viewBox="0 0 80 80" fill="none" xmlns="http://www.w3.org/2000/svg">
<path fill-rule="evenodd" clip-rule="evenodd" d="M56.8395 11.7195C56.7875 11.2044 56.3277 10.8289 55.8125 10.881C55.6265 10.8998 55.4415 10.9213 55.2577 10.9454C52.7842 11.2706 50.8667 12.6607 49.1739 13.888C49.0469 13.98 48.9212 14.0711 48.7966 14.1608C46.9462 15.4931 45.2929 16.5615 43.1253 16.5607C42.6076 16.5605 42.1877 16.9801 42.1875 17.4979C42.1873 18.0157 42.6069 18.4355 43.1247 18.4357C45.9571 18.4367 48.0538 17.0061 49.8921 15.6825C49.9929 15.61 50.0928 15.5378 50.192 15.4662C51.9671 14.1845 53.5171 13.0654 55.5021 12.8044C55.6672 12.7827 55.8335 12.7634 56.001 12.7465C56.5161 12.6944 56.8916 12.2347 56.8395 11.7195ZM73.1802 21.6048C72.6858 21.7586 72.4096 22.284 72.5634 22.7784C73.1711 24.7329 73.4349 27.1485 73.4375 30.5684C71.2967 50.1859 68.2495 61.4445 65.108 67.8513C63.54 71.049 61.9688 72.9954 60.5148 74.1744C59.0794 75.3383 57.7236 75.7828 56.5131 75.9221C55.758 75.9842 55.1733 75.8537 54.6927 75.6087C54.2013 75.3581 53.7641 74.9597 53.3552 74.4108C52.5523 73.3332 51.9677 71.8404 51.3034 70.1445C51.2684 70.0549 51.2331 69.9648 51.1975 69.8742C50.5164 68.1378 49.7417 66.2215 48.5427 64.7522C47.2987 63.2278 45.5892 62.1718 43.125 62.1718C42.6072 62.1718 42.1875 62.5915 42.1875 63.1093C42.1875 63.6271 42.6072 64.0468 43.125 64.0468C44.95 64.0468 46.1511 64.7871 47.09 65.9377C48.0739 67.1434 48.7545 68.7807 49.452 70.5589C49.498 70.6762 49.5442 70.7943 49.5905 70.913C50.2192 72.5221 50.8912 74.2419 51.8516 75.531C52.381 76.2416 53.0256 76.8633 53.8411 77.2791C54.6646 77.699 55.608 77.8808 56.6848 77.7893L56.7109 77.7867C58.2545 77.6118 59.9577 77.04 61.6957 75.6308C63.4203 74.2325 65.1426 72.0395 66.7915 68.6768C70.0811 61.968 73.1588 50.435 75.307 30.7208C75.3107 30.6871 75.3125 30.6532 75.3125 30.6192C75.3125 27.0993 75.0469 24.4506 74.3538 22.2217C74.2001 21.7273 73.6746 21.4511 73.1802 21.6048Z" fill="#972A29"/>
<path fill-rule="evenodd" clip-rule="evenodd" d="M54.5881 20.8299C54.8201 21.2928 54.633 21.8561 54.1701 22.0881C53.9624 22.1922 53.6714 22.3696 53.3055 22.5927C51.9558 23.4156 49.5871 24.8597 46.6225 25.537C42.7369 26.4248 37.7433 26.0749 31.9615 22.0174C31.5377 21.72 31.4352 21.1353 31.7326 20.7115C32.03 20.2876 32.6147 20.1852 33.0385 20.4826C38.3877 24.2365 42.8385 24.4783 46.2049 23.7091C48.8183 23.112 50.7396 21.9466 52.1222 21.108C52.5826 20.8287 52.9833 20.5856 53.3299 20.4119C53.7928 20.1799 54.3561 20.367 54.5881 20.8299Z" fill="#972A29"/>
<path fill-rule="evenodd" clip-rule="evenodd" d="M30.7479 12.8044C26.2049 12.2072 20.8658 13.4183 17.4463 16.9051C15.6686 18.7178 14.5382 20.3221 13.8321 22.338C13.1211 24.3679 12.8153 26.8858 12.8125 30.5684C14.9533 50.1859 18.0005 61.4445 21.142 67.8513C22.71 71.049 24.2812 72.9954 25.7352 74.1744C27.1706 75.3383 28.5264 75.7828 29.7369 75.9221C30.492 75.9842 31.0767 75.8537 31.5573 75.6087C32.0487 75.3581 32.4859 74.9597 32.8948 74.4109C33.6977 73.3332 34.2824 71.8404 34.9466 70.1445C34.9816 70.0549 35.0169 69.9648 35.0525 69.8742C35.7336 68.1378 36.5083 66.2215 37.7073 64.7522C38.9513 63.2278 40.6608 62.1718 43.125 62.1718C43.6428 62.1718 44.0625 62.5916 44.0625 63.1093C44.0625 63.6271 43.6428 64.0468 43.125 64.0468C41.3 64.0468 40.0989 64.7871 39.16 65.9377C38.1761 67.1434 37.4955 68.7808 36.798 70.5589C36.752 70.6762 36.7058 70.7943 36.6595 70.913C36.0308 72.5221 35.3588 74.242 34.3984 75.5311C33.869 76.2416 33.2244 76.8633 32.4089 77.2791C31.5854 77.699 30.642 77.8808 29.5652 77.7893L29.5391 77.7867C27.9955 77.6118 26.2923 77.04 24.5543 75.6308C22.8297 74.2325 21.1074 72.0395 19.4585 68.6768C16.1689 61.968 13.0912 50.435 10.943 30.7208C10.9393 30.6871 10.9375 30.6532 10.9375 30.6192C10.9375 26.8318 11.2449 24.0526 12.0625 21.7182C12.8883 19.3605 14.2089 17.5284 16.1076 15.5923C20.0411 11.5814 26.0254 10.2925 30.9923 10.9454C33.4658 11.2706 35.3833 12.6607 37.0761 13.888C37.2031 13.98 37.3288 14.0711 37.4534 14.1608C39.3038 15.4931 40.9578 16.5615 43.1253 16.5607C43.6431 16.5605 44.0623 16.9801 44.0625 17.4979C44.0627 18.0157 43.6424 18.4355 43.1247 18.4357C40.2922 18.4367 38.1962 17.0061 36.3579 15.6825C36.2571 15.61 36.1572 15.5378 36.058 15.4662C34.2829 14.1845 32.7329 13.0654 30.7479 12.8044Z" fill="#972A29"/>
<path d="M72.9034 8.47517C73.2239 8.03439 73.1265 7.41721 72.6857 7.09664C72.2449 6.77608 71.6277 6.87353 71.3072 7.3143L66.7233 13.6171L63.5925 10.4864C63.2072 10.101 62.5823 10.101 62.1969 10.4864C61.8115 10.8718 61.8115 11.4966 62.1969 11.882L66.1443 15.8294C66.3484 16.0335 66.6316 16.138 66.9193 16.1154C67.207 16.0928 67.4704 15.9454 67.6402 15.712L72.9034 8.47517Z" fill="#AE8452"/>
<path fill-rule="evenodd" clip-rule="evenodd" d="M80 12.5C80 19.4036 74.4036 25 67.5 25C60.5964 25 55 19.4036 55 12.5C55 5.59644 60.5964 0 67.5 0C74.4036 0 80 5.59644 80 12.5ZM78.0263 12.5C78.0263 18.3135 73.3135 23.0263 67.5 23.0263C61.6865 23.0263 56.9737 18.3135 56.9737 12.5C56.9737 6.68648 61.6865 1.97368 67.5 1.97368C73.3135 1.97368 78.0263 6.68648 78.0263 12.5Z" fill="#AE8452"/>
<path d="M8.50669 6.04117C8.56689 5.78372 8.93337 5.78372 8.99356 6.04116L10.1361 10.9276C10.1577 11.0201 10.23 11.0924 10.3226 11.1141L15.209 12.2566C15.4664 12.3168 15.4664 12.6833 15.209 12.7435L10.3226 13.886C10.23 13.9076 10.1577 13.9799 10.1361 14.0725L8.99356 18.9589C8.93337 19.2163 8.56689 19.2163 8.50669 18.9589L7.36419 14.0725C7.34254 13.9799 7.27026 13.9076 7.17767 13.886L2.29128 12.7435C2.03384 12.6833 2.03384 12.3168 2.29128 12.2566L7.17767 11.1141C7.27026 11.0924 7.34254 11.0201 7.36419 10.9276L8.50669 6.04117Z" fill="#AE8452"/>
<path d="M21.0067 19.7912C21.0669 19.5337 21.4334 19.5337 21.4936 19.7912L22.1623 22.6513C22.1839 22.7439 22.2562 22.8162 22.3488 22.8378L25.209 23.5066C25.4664 23.5668 25.4664 23.9333 25.209 23.9935L22.3488 24.6622C22.2562 24.6838 22.1839 24.7561 22.1623 24.8487L21.4936 27.7089C21.4334 27.9663 21.0669 27.9663 21.0067 27.7089L20.3379 24.8487C20.3163 24.7561 20.244 24.6838 20.1514 24.6622L17.2913 23.9935C17.0338 23.9333 17.0338 23.5668 17.2913 23.5066L20.1514 22.8378C20.244 22.8162 20.3163 22.7439 20.3379 22.6513L21.0067 19.7912Z" fill="#AE8452"/>
<path d="M4.8275 36.0412C4.7673 35.7837 4.40082 35.7837 4.34063 36.0412L3.67189 38.9013C3.65024 38.9939 3.57795 39.0662 3.48537 39.0878L0.625211 39.7566C0.367769 39.8168 0.367768 40.1833 0.62521 40.2435L3.48537 40.9122C3.57795 40.9338 3.65024 41.0061 3.67189 41.0987L4.34063 43.9589C4.40082 44.2163 4.7673 44.2163 4.8275 43.9589L5.49624 41.0987C5.51789 41.0061 5.59018 40.9338 5.68276 40.9122L8.54291 40.2435C8.80036 40.1833 8.80036 39.8168 8.54292 39.7566L5.68276 39.0878C5.59018 39.0662 5.51789 38.9939 5.49624 38.9013L4.8275 36.0412Z" fill="#AE8452"/>
</svg>
