<svg width="14" height="15" viewBox="0 0 14 15" fill="none" xmlns="http://www.w3.org/2000/svg">
<path d="M6.41659 1.6665C5.26286 1.6665 4.13505 2.00862 3.17576 2.6496C2.21647 3.29057 1.4688 4.20161 1.02729 5.26752C0.585779 6.33342 0.47026 7.50631 0.69534 8.63786C0.920421 9.76942 1.47599 10.8088 2.2918 11.6246C3.1076 12.4404 4.14701 12.996 5.27856 13.2211C6.41012 13.4462 7.58301 13.3306 8.64891 12.8891C9.71481 12.4476 10.6259 11.6999 11.2668 10.7407C11.9078 9.78138 12.2499 8.65356 12.2499 7.49984C12.2499 6.73379 12.099 5.97525 11.8059 5.26752C11.5127 4.55978 11.0831 3.91672 10.5414 3.37505C9.9997 2.83337 9.35664 2.40369 8.64891 2.11054C7.94118 1.81739 7.18263 1.6665 6.41659 1.6665V1.6665ZM6.41659 12.1665C5.49361 12.1665 4.59136 11.8928 3.82393 11.38C3.0565 10.8672 2.45836 10.1384 2.10515 9.28569C1.75194 8.43297 1.65953 7.49466 1.83959 6.58942C2.01965 5.68417 2.46411 4.85265 3.11676 4.20001C3.7694 3.54736 4.60092 3.1029 5.50617 2.92284C6.41141 2.74278 7.34972 2.83519 8.20244 3.1884C9.05517 3.54161 9.784 4.13975 10.2968 4.90718C10.8096 5.67461 11.0833 6.57686 11.0833 7.49984C11.0833 8.73751 10.5916 9.9245 9.71642 10.7997C8.84125 11.6748 7.65426 12.1665 6.41659 12.1665V12.1665ZM8.22492 7.86734L6.99992 7.1615V4.58317C6.99992 4.42846 6.93846 4.28009 6.82907 4.17069C6.71967 4.0613 6.5713 3.99984 6.41659 3.99984C6.26188 3.99984 6.11351 4.0613 6.00411 4.17069C5.89471 4.28009 5.83325 4.42846 5.83325 4.58317V7.49984C5.83325 7.49984 5.83325 7.5465 5.83325 7.56984C5.83671 7.61003 5.84655 7.64941 5.86242 7.6865C5.87443 7.72111 5.89008 7.75435 5.90909 7.78567C5.92505 7.81883 5.94461 7.85013 5.96742 7.879L6.06075 7.95484L6.11325 8.00734L7.62992 8.88234C7.71882 8.93273 7.8194 8.95888 7.92159 8.95817C8.05075 8.95907 8.17655 8.91708 8.27928 8.83879C8.38201 8.76049 8.45584 8.65031 8.4892 8.52553C8.52257 8.40075 8.51357 8.26843 8.46363 8.14931C8.41369 8.03019 8.32563 7.93102 8.21325 7.86734H8.22492Z" fill="#972A29"/>
</svg>
