<svg width="48" height="48" viewBox="0 0 48 48" fill="none" xmlns="http://www.w3.org/2000/svg">
<path fill-rule="evenodd" clip-rule="evenodd" d="M13.875 30.9375C14.1857 30.9375 14.4375 31.1893 14.4375 31.5V32.625C14.4375 34.5925 12.8425 36.1875 10.875 36.1875H8.8125C6.94854 36.1875 5.4375 37.6985 5.4375 39.5625C5.4375 41.4265 6.94854 42.9375 8.8125 42.9375H13.609C13.8316 42.3878 14.3705 42 15 42H16.5945C16.9275 40.7061 18.1021 39.75 19.5 39.75H20.25C20.6642 39.75 21 40.0858 21 40.5V46.5C21 46.9142 20.6642 47.25 20.25 47.25H19.5C18.1021 47.25 16.9275 46.2939 16.5945 45H15C14.3705 45 13.8316 44.6122 13.609 44.0625H8.8125C6.32722 44.0625 4.3125 42.0478 4.3125 39.5625C4.3125 37.0772 6.32722 35.0625 8.8125 35.0625H10.875C12.2212 35.0625 13.3125 33.9712 13.3125 32.625V31.5C13.3125 31.1893 13.5643 30.9375 13.875 30.9375ZM19.5 40.875H19.875V46.125H19.5C18.4645 46.125 17.625 45.2855 17.625 44.25V42.75C17.625 41.7145 18.4645 40.875 19.5 40.875ZM15 43.125H16.125V43.875H15C14.7929 43.875 14.625 43.7071 14.625 43.5C14.625 43.2929 14.7929 43.125 15 43.125Z" fill="#EBD1B2"/>
<path fill-rule="evenodd" clip-rule="evenodd" d="M28.5 39.75C29.8979 39.75 31.0725 40.7061 31.4055 42H33C33.6295 42 34.1684 42.3878 34.391 42.9375H39.1875C41.0515 42.9375 42.5625 41.4265 42.5625 39.5625C42.5625 37.6985 41.0515 36.1875 39.1875 36.1875H37.125C35.1575 36.1875 33.5625 34.5925 33.5625 32.625V31.5C33.5625 31.1893 33.8143 30.9375 34.125 30.9375C34.4357 30.9375 34.6875 31.1893 34.6875 31.5V32.625C34.6875 33.9712 35.7788 35.0625 37.125 35.0625H39.1875C41.6728 35.0625 43.6875 37.0772 43.6875 39.5625C43.6875 42.0478 41.6728 44.0625 39.1875 44.0625H34.391C34.1684 44.6122 33.6295 45 33 45H31.4055C31.0725 46.2939 29.8979 47.25 28.5 47.25H27.75C27.3358 47.25 27 46.9142 27 46.5V40.5C27 40.0858 27.3358 39.75 27.75 39.75H28.5ZM28.5 40.875H28.125V46.125H28.5C29.5355 46.125 30.375 45.2855 30.375 44.25V42.75C30.375 41.7145 29.5355 40.875 28.5 40.875ZM31.875 43.125H33C33.2071 43.125 33.375 43.2929 33.375 43.5C33.375 43.7071 33.2071 43.875 33 43.875H31.875V43.125Z" fill="#EBD1B2"/>
<path fill-rule="evenodd" clip-rule="evenodd" d="M34.6875 10.125C34.6875 8.36459 36.1146 6.9375 37.875 6.9375C39.6354 6.9375 41.0625 8.36459 41.0625 10.125C41.0625 11.8854 39.6354 13.3125 37.875 13.3125C36.1146 13.3125 34.6875 11.8854 34.6875 10.125ZM37.875 8.0625C36.7359 8.0625 35.8125 8.98591 35.8125 10.125C35.8125 11.2641 36.7359 12.1875 37.875 12.1875C39.0141 12.1875 39.9375 11.2641 39.9375 10.125C39.9375 8.98591 39.0141 8.0625 37.875 8.0625Z" fill="#EBD1B2"/>
<path d="M34.6875 16.125C34.6875 15.8143 34.9393 15.5625 35.25 15.5625H40.5C40.8107 15.5625 41.0625 15.8143 41.0625 16.125C41.0625 16.4357 40.8107 16.6875 40.5 16.6875H35.25C34.9393 16.6875 34.6875 16.4357 34.6875 16.125Z" fill="#EBD1B2"/>
<path fill-rule="evenodd" clip-rule="evenodd" d="M37.875 18.9375C36.1146 18.9375 34.6875 20.3646 34.6875 22.125C34.6875 23.8854 36.1146 25.3125 37.875 25.3125C39.6354 25.3125 41.0625 23.8854 41.0625 22.125C41.0625 20.3646 39.6354 18.9375 37.875 18.9375ZM35.8125 22.125C35.8125 20.9859 36.7359 20.0625 37.875 20.0625C39.0141 20.0625 39.9375 20.9859 39.9375 22.125C39.9375 23.2641 39.0141 24.1875 37.875 24.1875C36.7359 24.1875 35.8125 23.2641 35.8125 22.125Z" fill="#EBD1B2"/>
<path d="M23.4 10.6731C23.313 10.4468 23.0907 10.3017 22.8485 10.3131C22.6063 10.3245 22.3987 10.4899 22.3333 10.7233L20.1502 18.5204L17.3956 11.787C17.315 11.59 17.13 11.4553 16.9177 11.4391C16.7054 11.4229 16.5022 11.528 16.3927 11.7106L14.3065 15.1875H12C11.6893 15.1875 11.4375 15.4393 11.4375 15.75C11.4375 16.0607 11.6893 16.3125 12 16.3125H14.625C14.8226 16.3125 15.0057 16.2088 15.1073 16.0394L16.7796 13.2523L19.7294 20.463C19.8204 20.6854 20.0425 20.8254 20.2824 20.8116C20.5223 20.7977 20.7269 20.633 20.7917 20.4017L22.9591 12.6607L24.225 15.9519C24.3085 16.1692 24.5173 16.3125 24.75 16.3125H28.125C28.4357 16.3125 28.6875 16.0607 28.6875 15.75C28.6875 15.4393 28.4357 15.1875 28.125 15.1875H25.1363L23.4 10.6731Z" fill="#FFF9EF"/>
<path fill-rule="evenodd" clip-rule="evenodd" d="M11.25 5.25C9.17893 5.25 7.5 6.92893 7.5 9V23.25C7.5 25.3211 9.17893 27 11.25 27H28.5C30.5711 27 32.25 25.3211 32.25 23.25V9C32.25 6.92893 30.5711 5.25 28.5 5.25H11.25ZM28.5 6.375H11.25C9.80025 6.375 8.625 7.55025 8.625 9V23.25C8.625 24.6997 9.80025 25.875 11.25 25.875H28.5C29.9497 25.875 31.125 24.6997 31.125 23.25V9C31.125 7.55025 29.9497 6.375 28.5 6.375Z" fill="#FFF9EF"/>
<path fill-rule="evenodd" clip-rule="evenodd" d="M9 0.75C5.68629 0.75 3 3.43629 3 6.75V25.5C3 28.8137 5.68629 31.5 9 31.5H39C42.3137 31.5 45 28.8137 45 25.5V6.75C45 3.43629 42.3137 0.75 39 0.75H9ZM39 1.875H9C6.30761 1.875 4.125 4.05761 4.125 6.75V25.5C4.125 28.1924 6.30761 30.375 9 30.375H39C41.6924 30.375 43.875 28.1924 43.875 25.5V6.75C43.875 4.05761 41.6924 1.875 39 1.875Z" fill="#FFF9EF"/>
</svg>
