
<svg width="48" height="48" viewBox="0 0 48 48" fill="none" xmlns="http://www.w3.org/2000/svg">
<path d="M13.8822 33.5932C14.4645 33.6382 14.9755 33.8039 15.416 34.0706C16.0443 34.4509 16.4837 35.0088 16.7851 35.6092C17.3222 36.6797 17.4575 37.9564 17.4244 38.8955C17.7818 39.11 18.0212 39.5028 18.0212 39.9518C18.0212 40.6305 17.4743 41.1807 16.7997 41.1807C16.1252 41.1807 15.5783 40.6305 15.5783 39.9518C15.5783 39.4913 15.8301 39.0899 16.2027 38.8794C16.2351 38.0733 16.1159 37.0025 15.6947 36.1631C15.4701 35.7156 15.1716 35.3569 14.7863 35.1236C14.4064 34.8937 13.8968 34.7578 13.1961 34.8283C12.5005 34.8983 12.0413 35.137 11.7286 35.4424C11.4099 35.7538 11.2005 36.1772 11.0837 36.6811C10.8662 37.6191 10.9951 38.7302 11.2123 39.5473C11.8341 39.6045 12.3211 40.1306 12.3211 40.7711C12.3211 41.4498 11.7743 42 11.0997 42C10.4251 42 9.87823 41.4498 9.87823 40.7711C9.87823 40.5133 9.9571 40.2741 10.0919 40.0765C9.81065 39.1291 9.59525 37.6913 9.89414 36.402C10.0487 35.7351 10.3483 35.078 10.8777 34.5608C11.3232 34.1256 11.9018 33.8185 12.6206 33.6734L13.3508 30L14.5486 30.241L13.8822 33.5932Z" fill="#EBD1B2"/>
<path fill-rule="evenodd" clip-rule="evenodd" d="M34.8692 34.6919C35.9474 34.9474 36.75 35.9216 36.75 37.0843C36.75 38.4418 35.6563 39.5422 34.3071 39.5422C32.9579 39.5422 31.8642 38.4418 31.8642 37.0843C31.8642 35.9612 32.613 35.014 33.6357 34.7205L32.8904 30.2215L34.0952 30.0195L34.8692 34.6919ZM35.5286 37.0843C35.5286 37.7631 34.9817 38.3133 34.3071 38.3133C33.6325 38.3133 33.0857 37.7631 33.0857 37.0843C33.0857 36.4056 33.6325 35.8554 34.3071 35.8554C34.9817 35.8554 35.5286 36.4056 35.5286 37.0843Z" fill="#EBD1B2"/>
<path fill-rule="evenodd" clip-rule="evenodd" d="M18.9337 25.5C18.9337 25.9031 18.8424 26.6692 18.5668 27.3957C18.2864 28.1351 17.865 28.7083 17.2893 28.935C17.0871 29.0147 16.7635 29.0996 16.3136 29.1969C15.9763 29.2699 15.5925 29.3448 15.167 29.428C15.0338 29.454 14.8964 29.4809 14.7551 29.5087C13.5816 29.7398 12.1719 30.0321 10.794 30.4673C8.10383 31.3169 5.22005 32.81 4.75522 35.7851C4.42671 37.8877 4.45609 39.3807 4.61545 40.4032C4.69513 40.9144 4.80803 41.3127 4.92801 41.6127C5.03293 41.8751 5.15737 42.0978 5.29634 42.2492C6.0235 43.1828 7.79255 44.4169 10.7619 45.4216C13.6797 46.4089 17.81 47.1938 23.392 47.2471V47.25H23.9999H24.608V47.2471C30.19 47.1938 34.3203 46.4089 37.2381 45.4216C40.2074 44.4169 41.9765 43.1828 42.7037 42.2492C42.8426 42.0978 42.9671 41.8751 43.072 41.6127C43.192 41.3127 43.3049 40.9144 43.3846 40.4032C43.5439 39.3807 43.5733 37.8877 43.2448 35.7851C42.7799 32.81 39.8962 31.3169 37.206 30.4673C35.8281 30.0321 34.4184 29.7398 33.2449 29.5087C33.1036 29.4809 32.9662 29.454 32.833 29.428C32.4075 29.3448 32.0237 29.2699 31.6864 29.1969C31.2365 29.0996 30.9129 29.0147 30.7107 28.935C30.135 28.7083 29.7136 28.1351 29.4332 27.3957C29.1576 26.6692 29.0663 25.9031 29.0663 25.5H27.8504C27.8504 26.0281 27.9617 26.9381 28.2941 27.8146C28.5607 28.5175 29.0024 29.282 29.7212 29.7642C29.2125 30.8485 28.2562 31.8248 27.1693 32.6353C26.0422 33.4756 24.8336 34.0937 24 34.4334C23.1664 34.0937 21.9578 33.4756 20.8307 32.6353C19.7438 31.8248 18.7875 30.8485 18.2788 29.7642C18.9976 29.282 19.4393 28.5175 19.7059 27.8146C20.0383 26.9381 20.1496 26.0281 20.1496 25.5H18.9337ZM24.608 46.0498V35.4802C25.5178 35.096 26.7479 34.4513 27.9033 33.5897C29.0701 32.7198 30.2166 31.5873 30.8423 30.2293C31.0243 30.2767 31.2208 30.322 31.4255 30.3662C31.776 30.4421 32.177 30.5204 32.6057 30.6042C32.7367 30.6298 32.8709 30.656 33.0064 30.6827C34.1761 30.913 35.5275 31.1944 36.8347 31.6073C39.5148 32.4538 41.6973 33.7542 42.043 35.9672C42.3573 37.9789 42.3192 39.346 42.1827 40.2216C42.1145 40.6593 42.0224 40.9695 41.9406 41.174C41.8734 41.3422 41.8213 41.4185 41.8086 41.4372C41.8047 41.443 41.8044 41.4433 41.8087 41.4391L41.7782 41.4692L41.7522 41.5032C41.2498 42.1628 39.7414 43.3086 36.843 44.2894C34.0704 45.2275 30.0762 45.9965 24.608 46.0498ZM23.392 35.4802C22.4822 35.096 21.2521 34.4513 20.0967 33.5897C18.9299 32.7198 17.7834 31.5873 17.1577 30.2293C16.9757 30.2767 16.7792 30.322 16.5745 30.3662C16.224 30.4421 15.823 30.5204 15.3943 30.6042C15.2631 30.6298 15.1293 30.656 14.9936 30.6827C13.8239 30.913 12.4725 31.1944 11.1653 31.6073C8.48522 32.4538 6.30273 33.7542 5.95698 35.9672C5.64267 37.9789 5.68084 39.346 5.81729 40.2216C5.88551 40.6593 5.97757 40.9695 6.05936 41.174C6.12662 41.3422 6.17865 41.4185 6.19142 41.4372C6.19536 41.443 6.19556 41.4433 6.19133 41.4391L6.22184 41.4692L6.24776 41.5032C6.75016 42.1628 8.25858 43.3086 11.157 44.2894C13.9296 45.2275 17.9238 45.9965 23.392 46.0498V35.4802Z" fill="#FFF9EF"/>
<path fill-rule="evenodd" clip-rule="evenodd" d="M13.0562 6.80214C15.8893 1.59055 21.4489 0.749999 24.0324 0.75C24.0324 0.75 24.0324 0.75 24.0324 0.75C26.6159 0.749999 32.1755 1.59055 35.0086 6.80214C36.0296 8.68037 36.1294 10.9295 35.7672 13.1499C35.9772 13.313 36.1659 13.5208 36.3205 13.7827C36.6082 14.2702 36.75 14.8983 36.75 15.6818C36.75 16.8032 36.3963 17.7752 35.7559 18.4747C35.2019 19.0799 34.4574 19.4534 33.6195 19.5457C32.8079 21.2812 31.9771 22.7089 31.2212 23.7996C30.5387 24.7843 29.4677 25.7634 28.2221 26.4982C26.9769 27.2327 25.5108 27.75 24.0324 27.75C24.0324 27.75 24.0324 27.75 24.0324 27.75C22.554 27.75 21.0879 27.2327 19.8427 26.4982C18.5971 25.7634 17.5261 24.7843 16.8436 23.7996C16.114 22.7469 15.2715 21.2814 14.4797 19.6147C13.4889 19.6143 12.635 18.9341 12.0927 18.1118C11.4375 17.1183 11.0884 15.7368 11.3233 14.3537C11.4315 13.7171 11.7012 13.2392 12.0938 12.9262C11.7873 10.7472 12.0813 8.59555 13.0562 6.80214ZM24.0324 26.5227C25.2226 26.5227 26.4669 26.1015 27.5775 25.4464C28.6879 24.7914 29.6183 23.9296 30.1867 23.1095C30.9452 22.0151 31.8 20.5365 32.6348 18.7042C32.7404 18.4722 32.9749 18.3361 33.2185 18.3409C33.8752 18.3377 34.4291 18.0874 34.8253 17.6547C35.2273 17.2155 35.4991 16.5512 35.4991 15.6818C35.4991 15.0335 35.3803 14.6389 35.238 14.3977C35.1033 14.1694 34.9238 14.0374 34.7012 13.9534C34.4627 13.8634 34.1698 13.8275 33.8267 13.8216C33.6578 13.8187 33.4871 13.823 33.3114 13.8286L33.236 13.831C33.088 13.8359 32.9333 13.8409 32.7888 13.8409C32.5281 13.8409 32.2947 13.6822 32.2031 13.4427L31.0029 10.3025C30.1267 9.53275 27.6469 8.42521 24.3682 10.4723C21.0975 12.5143 18.3459 11.893 16.8415 10.9694L16.1911 12.8836C15.8907 13.7678 14.9025 14.0491 14.1633 13.8312C13.722 13.7011 13.3379 13.6811 13.0761 13.7737C12.8778 13.8439 12.6498 14.0107 12.5572 14.5554C12.3752 15.6269 12.6515 16.6999 13.1429 17.4451C13.6495 18.2131 14.2463 18.4675 14.6992 18.3612C14.9894 18.2856 15.3011 18.4245 15.4289 18.7017C16.2514 20.4863 17.1381 22.0418 17.878 23.1095C18.4465 23.9296 19.3769 24.7914 20.4873 25.4464C21.5979 26.1015 22.8422 26.5227 24.0324 26.5227C24.0324 26.5227 24.0324 26.5227 24.0324 26.5227ZM34.5778 12.6563C34.8576 10.691 34.7077 8.85658 33.9048 7.37968C31.4006 2.77309 26.4526 1.97727 24.0324 1.97727C24.0324 1.97727 24.0324 1.97727 24.0324 1.97727C21.6123 1.97727 16.6641 2.77309 14.16 7.37968C13.3684 8.83574 13.0813 10.6185 13.299 12.4935C13.7313 12.4691 14.1602 12.5488 14.5233 12.6558C14.6369 12.6893 14.7586 12.6803 14.8524 12.6412C14.9414 12.6041 14.9857 12.5506 15.0044 12.4955L15.9336 9.7605C16.0022 9.55874 16.1723 9.40619 16.3833 9.35733C16.5942 9.30847 16.816 9.37026 16.9692 9.52065C17.7512 10.2878 20.2935 11.5615 23.6966 9.43685C27.6322 6.9797 30.8162 8.37872 31.9801 9.52064C32.0433 9.58258 32.0921 9.65707 32.1235 9.73909L33.2184 12.6037L33.2711 12.602C33.4489 12.5963 33.6463 12.5911 33.8487 12.5946C34.0765 12.5985 34.325 12.6134 34.5778 12.6563Z" fill="#FFF9EF"/>
</svg>
