<svg width="90" height="40" viewBox="0 0 90 40" fill="none" xmlns="http://www.w3.org/2000/svg">
<path fill-rule="evenodd" clip-rule="evenodd" d="M0 0.679626C0 0.304279 0.277555 0 0.619936 0H1.82432H12.7703H13.9747C14.317 0 14.5946 0.304279 14.5946 0.679626V2.32034C14.5946 2.69569 14.317 2.99997 13.9747 2.99997H13.3902C13.0478 2.99997 12.7703 3.30425 12.7703 3.6796V36.9996V39.32C12.7703 39.6953 12.4927 39.9996 12.1503 39.9996H1.82432H0.619936C0.277555 39.9996 0 39.6953 0 39.32V37.6793C0 37.3039 0.277554 36.9996 0.619935 36.9996H1.20439C1.54677 36.9996 1.82432 36.6954 1.82432 36.32V3.6796C1.82432 3.30425 1.54677 2.99997 1.20439 2.99997H0.619935C0.277554 2.99997 0 2.69569 0 2.32034V0.679626ZM19.9925 28.6566C20.0651 28.3578 20.326 28.1482 20.6254 28.1482H30.7989C31.2233 28.1482 31.5347 28.5586 31.4317 28.9822L28.8783 39.4915C28.8057 39.7903 28.5448 39.9999 28.2455 39.9999H18.072C17.6476 39.9999 17.3361 39.5895 17.4391 39.1659L19.9925 28.6566ZM27.5897 0H27.2768C26.9101 0 26.6129 0.304279 26.6129 0.679626V2.32034C26.6129 2.69569 26.9101 2.99997 27.2768 2.99997H27.9749C28.2681 2.99997 28.5266 3.19684 28.6108 3.48431L39.1701 39.5153C39.2543 39.8027 39.5128 39.9996 39.806 39.9996H50.1421C50.5868 39.9996 50.9058 39.5608 50.778 39.1247L39.454 0.484337C39.3697 0.196866 39.1113 0 38.8181 0H27.5897ZM45.7395 0H44.6895C44.2495 0 43.934 0.43886 44.0604 0.874916L55.2628 39.5153C55.3462 39.8027 55.6019 39.9996 55.8919 39.9996H66.117C66.557 39.9996 66.8725 39.5607 66.7461 39.1247L56.3998 3.43743C56.3366 3.2194 56.4944 2.99997 56.7144 2.99997H57.4078C57.7705 2.99997 58.0645 2.69569 58.0645 2.32034V0.679626C58.0645 0.304279 57.7705 0 57.4078 0H55.4033H45.7395ZM74.5162 13.4999V0C74.5162 0 69.2438 0.436887 65.9451 4.44668C62.6465 8.45647 62.9082 13.4999 62.9082 13.4999L70.5766 39.7574C70.6183 39.9012 70.7462 39.9996 70.8914 39.9996H73.8587C74.2218 39.9996 74.5162 39.6953 74.5162 39.32L74.5162 13.4999ZM89.4543 35.6499C87.3049 40.0617 83.4473 40.0257 80.1251 39.9946C79.8514 39.9921 79.5813 39.9896 79.3162 39.9896H78.3872C80.8332 38.5895 80.6689 37.1332 80.4724 35.3919L80.4716 35.3848C80.464 35.3175 80.4564 35.2499 80.4489 35.1817C80.3067 33.8952 80.1514 32.4884 80.9105 30.9233C82.1312 28.4066 85.035 27.4211 87.3962 28.7222C89.7576 30.0232 90.6822 33.1182 89.4615 35.6349L89.4543 35.6499ZM80.1251 0.00535841C83.4473 -0.0256852 87.3049 -0.0617328 89.4543 4.35014L89.4615 4.36508C90.6822 6.88184 89.7576 9.97679 87.3962 11.2778C85.035 12.5789 82.1312 11.5934 80.9105 9.07668C80.1514 7.51158 80.3067 6.10479 80.4489 4.81827C80.4566 4.74776 80.4646 4.67772 80.4724 4.60813C80.6689 2.86677 80.8332 1.4105 78.3872 0.0104392H79.3162C79.5813 0.0104392 79.8514 0.00791576 80.1251 0.00535841Z" fill="#093A67"/>
</svg>
