<svg width="16" height="17" viewBox="0 0 16 17" fill="none" xmlns="http://www.w3.org/2000/svg">
<path d="M8.00008 1.8335C6.58559 1.8335 5.22904 2.3954 4.22885 3.39559C3.22865 4.39579 2.66675 5.75234 2.66675 7.16683C2.66675 10.7668 7.36675 14.8335 7.56675 15.0068C7.6875 15.1101 7.84118 15.1669 8.00008 15.1669C8.15898 15.1669 8.31266 15.1101 8.43341 15.0068C8.66675 14.8335 13.3334 10.7668 13.3334 7.16683C13.3334 5.75234 12.7715 4.39579 11.7713 3.39559C10.7711 2.3954 9.41457 1.8335 8.00008 1.8335V1.8335ZM8.00008 13.6002C6.58008 12.2668 4.00008 9.3935 4.00008 7.16683C4.00008 6.10596 4.42151 5.08855 5.17165 4.3384C5.9218 3.58826 6.93922 3.16683 8.00008 3.16683C9.06095 3.16683 10.0784 3.58826 10.8285 4.3384C11.5787 5.08855 12.0001 6.10596 12.0001 7.16683C12.0001 9.3935 9.42008 12.2735 8.00008 13.6002ZM8.00008 4.50016C7.47266 4.50016 6.95709 4.65656 6.51856 4.94958C6.08003 5.24259 5.73824 5.65907 5.5364 6.14634C5.33457 6.63361 5.28176 7.16979 5.38465 7.68707C5.48755 8.20435 5.74152 8.67951 6.11446 9.05245C6.4874 9.42539 6.96256 9.67936 7.47984 9.78226C7.99712 9.88515 8.5333 9.83234 9.02057 9.63051C9.50784 9.42867 9.92432 9.08688 10.2173 8.64835C10.5104 8.20982 10.6667 7.69425 10.6667 7.16683C10.6667 6.45959 10.3858 5.78131 9.8857 5.28121C9.3856 4.78111 8.70733 4.50016 8.00008 4.50016ZM8.00008 8.50016C7.73637 8.50016 7.47859 8.42196 7.25932 8.27546C7.04006 8.12895 6.86916 7.92071 6.76824 7.67707C6.66732 7.43344 6.64092 7.16535 6.69237 6.90671C6.74381 6.64807 6.8708 6.41049 7.05727 6.22402C7.24374 6.03755 7.48132 5.91056 7.73996 5.85912C7.9986 5.80767 8.26669 5.83407 8.51033 5.93499C8.75396 6.03591 8.9622 6.2068 9.10871 6.42607C9.25522 6.64533 9.33341 6.90312 9.33341 7.16683C9.33341 7.52045 9.19294 7.85959 8.94289 8.10964C8.69284 8.35969 8.3537 8.50016 8.00008 8.50016Z" fill="#972A29"/>
</svg>
