<svg width="42" height="42" viewBox="0 0 42 42" fill="none" xmlns="http://www.w3.org/2000/svg">
<circle cx="21" cy="21" r="21" fill="#9A9A9A"/>
<path d="M20.9999 10.5C18.834 10.5 16.7568 11.385 15.2252 12.9603C13.6937 14.5356 12.8333 16.6722 12.8333 18.9C12.8333 24.57 20.0301 30.9749 20.3364 31.2479C20.5213 31.4106 20.7566 31.5 20.9999 31.5C21.2432 31.5 21.4786 31.4106 21.6635 31.2479C22.0208 30.9749 29.1666 24.57 29.1666 18.9C29.1666 16.6722 28.3062 14.5356 26.7746 12.9603C25.2431 11.385 23.1659 10.5 20.9999 10.5ZM20.9999 29.0324C18.8255 26.9324 14.8749 22.407 14.8749 18.9C14.8749 17.2291 15.5202 15.6267 16.6689 14.4452C17.8176 13.2637 19.3755 12.6 20.9999 12.6C22.6244 12.6 24.1823 13.2637 25.3309 14.4452C26.4796 15.6267 27.1249 17.2291 27.1249 18.9C27.1249 22.407 23.1743 26.9429 20.9999 29.0324ZM20.9999 14.7C20.1923 14.7 19.4028 14.9463 18.7313 15.4078C18.0598 15.8693 17.5365 16.5253 17.2274 17.2927C16.9184 18.0602 16.8375 18.9046 16.995 19.7193C17.1526 20.5341 17.5415 21.2824 18.1126 21.8698C18.6836 22.4572 19.4112 22.8572 20.2033 23.0193C20.9954 23.1813 21.8164 23.0981 22.5625 22.7803C23.3087 22.4624 23.9464 21.924 24.3951 21.2334C24.8438 20.5427 25.0833 19.7307 25.0833 18.9C25.0833 17.7861 24.653 16.7178 23.8873 15.9301C23.1215 15.1425 22.0829 14.7 20.9999 14.7ZM20.9999 21C20.5961 21 20.2014 20.8768 19.8656 20.6461C19.5299 20.4153 19.2682 20.0873 19.1137 19.7036C18.9591 19.3199 18.9187 18.8976 18.9975 18.4903C19.0763 18.0829 19.2707 17.7087 19.5562 17.4151C19.8418 17.1214 20.2056 16.9214 20.6016 16.8403C20.9977 16.7593 21.4082 16.8009 21.7812 16.9598C22.1543 17.1188 22.4732 17.3879 22.6975 17.7333C22.9218 18.0786 23.0416 18.4846 23.0416 18.9C23.0416 19.4569 22.8265 19.9911 22.4436 20.3849C22.0607 20.7787 21.5414 21 20.9999 21Z" fill="white"/>
</svg>
