<svg width="252" height="36" viewBox="0 0 252 36" fill="none" xmlns="http://www.w3.org/2000/svg">
<path fill-rule="evenodd" clip-rule="evenodd" d="M0 0.543701C0 0.243423 0.222044 0 0.495948 0H1.45946H10.2162H11.1797C11.4536 0 11.6757 0.243423 11.6757 0.543701V1.85628C11.6757 2.15655 11.4536 2.39998 11.1797 2.39998H10.7122C10.4383 2.39998 10.2162 2.6434 10.2162 2.94368V29.5997V31.456C10.2162 31.7563 9.99417 31.9997 9.72027 31.9997H1.45946H0.495948C0.222044 31.9997 0 31.7563 0 31.456V30.1434C0 29.8431 0.222044 29.5997 0.495948 29.5997H0.963511C1.23742 29.5997 1.45946 29.3563 1.45946 29.056V2.94368C1.45946 2.6434 1.23742 2.39998 0.963511 2.39998H0.495948C0.222044 2.39998 0 2.15655 0 1.85628V0.543701ZM15.994 22.9253C16.0521 22.6863 16.2608 22.5186 16.5003 22.5186H24.6391C24.9786 22.5186 25.2277 22.8469 25.1454 23.1858L23.1027 31.5932C23.0446 31.8322 22.8358 31.9999 22.5964 31.9999H14.4576C14.118 31.9999 13.8689 31.6716 13.9513 31.3327L15.994 22.9253ZM22.0718 0H21.8214C21.5281 0 21.2903 0.243423 21.2903 0.543701V1.85628C21.2903 2.15655 21.5281 2.39998 21.8214 2.39998H22.3799C22.6145 2.39998 22.8213 2.55747 22.8887 2.78745L31.3361 31.6122C31.4035 31.8422 31.6103 31.9997 31.8448 31.9997H40.1137C40.4694 31.9997 40.7246 31.6486 40.6224 31.2998L31.5632 0.38747C31.4958 0.157493 31.289 0 31.0545 0H22.0718ZM36.5916 0H35.7516C35.3996 0 35.1472 0.351088 35.2483 0.699933L44.2103 31.6122C44.2769 31.8422 44.4815 31.9997 44.7135 31.9997H52.8936C53.2456 31.9997 53.498 31.6486 53.3969 31.2998L45.1199 2.74994C45.0693 2.57552 45.1955 2.39998 45.3715 2.39998H45.9262C46.2164 2.39998 46.4516 2.15655 46.4516 1.85628V0.543701C46.4516 0.243423 46.2164 0 45.9262 0H44.3226H36.5916ZM59.613 10.7999V0C59.613 0 55.395 0.349509 52.7561 3.55734C50.1172 6.76518 50.3266 10.7999 50.3266 10.7999L56.4612 31.806C56.4946 31.9209 56.597 31.9997 56.7131 31.9997H59.087C59.3775 31.9997 59.6129 31.7563 59.6129 31.456L59.613 10.7999ZM71.5634 28.5199C69.8439 32.0494 66.7578 32.0205 64.1001 31.9957C63.8811 31.9937 63.6651 31.9916 63.4529 31.9916H62.7097C64.6665 30.8716 64.5351 29.7066 64.3779 28.3135L64.3773 28.3078C64.3712 28.254 64.3651 28.1999 64.3591 28.1454C64.2454 27.1162 64.1211 25.9907 64.7284 24.7387C65.705 22.7253 68.028 21.9369 69.917 22.9777C71.8061 24.0186 72.5458 26.4945 71.5692 28.5079L71.5634 28.5199ZM64.1001 0.00428673C66.7578 -0.0205482 69.8439 -0.0493863 71.5634 3.48011L71.5692 3.49206C72.5458 5.50548 71.8061 7.98143 69.917 9.02227C68.028 10.0631 65.705 9.27471 64.7284 7.26134C64.1211 6.00926 64.2454 4.88383 64.3591 3.85462C64.3653 3.79821 64.3716 3.74217 64.3779 3.6865C64.5351 2.29342 64.6665 1.1284 62.7097 0.00835133H63.4529C63.6651 0.00835133 63.8811 0.00633261 64.1001 0.00428673Z" fill="#093A67"/>
<path d="M95.2259 5.0799C95.2259 6.29656 95.1943 7.35644 95.131 8.25954C95.0804 9.15009 94.9982 9.90893 94.8843 10.5361C94.7831 11.1632 94.6566 11.6775 94.5048 12.0789C94.353 12.4677 94.1885 12.775 94.0114 13.0008C93.8343 13.214 93.6446 13.3582 93.4422 13.4335C93.2524 13.5088 93.0563 13.5464 92.8539 13.5464C92.778 13.5464 92.7084 13.5401 92.6452 13.5276C92.5819 13.5276 92.5187 13.5213 92.4554 13.5088C92.3922 13.4962 92.3352 13.4774 92.2846 13.4523L92 12.0412C92.0506 12.0663 92.1075 12.0851 92.1708 12.0977C92.234 12.1102 92.2973 12.1228 92.3605 12.1353C92.4238 12.1353 92.4934 12.1353 92.5693 12.1353C92.8982 12.1353 93.2018 12.0538 93.4801 11.8907C93.7584 11.7277 93.9988 11.4015 94.2012 10.9124C94.4036 10.4107 94.5617 9.6957 94.6756 8.76753C94.7894 7.83935 94.8464 6.61014 94.8464 5.0799V0.564434L93.6129 0.188144V0H101.488V0.188144L100.349 0.470361V12.6997L101.488 12.982V13.1701H97.5979V12.982L98.7364 12.6997V0.376289H95.2259V5.0799Z" fill="#093A67"/>
<path d="M107.943 4.70361V4.51546H111.643V4.70361L110.504 4.98582V12.6997L111.643 12.982V13.1701H107.943V12.982L108.986 12.6997V6.49098L105.666 11.5709V12.6997L106.709 12.982V13.1701H103.009V12.982L104.147 12.6997V4.98582L103.009 4.70361V4.51546H106.709V4.70361L105.666 4.98582V10.9124L108.986 5.83247V4.98582L107.943 4.70361Z" fill="#093A67"/>
<path d="M115.635 4.89175V12.6997L116.774 12.982V13.1701H112.979V12.982L114.117 12.6997V4.98582L112.979 4.70361V4.51546H119.43C119.405 4.64089 119.386 4.77259 119.373 4.91057C119.361 5.036 119.348 5.18651 119.336 5.36211C119.336 5.52517 119.336 5.71332 119.336 5.92655C119.336 6.06452 119.336 6.22131 119.336 6.39691C119.348 6.55997 119.361 6.71048 119.373 6.84845C119.386 7.01151 119.405 7.17457 119.43 7.33763H119.241C118.912 7.04914 118.64 6.70421 118.425 6.30283C118.21 5.88892 118.102 5.41856 118.102 4.89175H115.635Z" fill="#093A67"/>
<path d="M125.42 8.56057C124.319 8.56057 123.503 8.80515 122.972 9.29433C122.453 9.77096 122.194 10.4357 122.194 11.2887C122.194 11.8531 122.333 12.2921 122.611 12.6057C122.89 12.9192 123.193 13.076 123.522 13.076C123.826 13.076 124.091 12.9882 124.319 12.8126C124.559 12.637 124.762 12.4426 124.926 12.2294C125.116 11.9911 125.28 11.7088 125.42 11.3827V8.56057ZM123.996 4.51546C123.617 4.51546 123.301 4.64716 123.048 4.91057C122.795 5.16143 122.668 5.50008 122.668 5.92655C122.668 6.02689 122.668 6.11469 122.668 6.18995C122.681 6.26521 122.693 6.33419 122.706 6.39691C122.719 6.45962 122.738 6.52234 122.763 6.58505L121.245 6.96134C121.22 6.92371 121.201 6.87354 121.188 6.81082C121.175 6.74811 121.163 6.67912 121.15 6.60387C121.15 6.52861 121.15 6.42826 121.15 6.30283C121.15 6.03943 121.213 5.78857 121.34 5.55026C121.466 5.2994 121.65 5.0799 121.89 4.89175C122.143 4.69106 122.44 4.53428 122.782 4.42139C123.136 4.29596 123.541 4.23325 123.996 4.23325C124.907 4.23325 125.622 4.49038 126.141 5.00464C126.672 5.5189 126.938 6.20249 126.938 7.05541V12.6997L128.076 12.982V13.1701H125.42V12.0412C125.28 12.3046 125.103 12.543 124.888 12.7562C124.711 12.9318 124.483 13.0886 124.205 13.2265C123.94 13.3771 123.617 13.4523 123.237 13.4523C122.327 13.4523 121.637 13.2391 121.169 12.8126C120.714 12.3862 120.486 11.8155 120.486 11.1005C120.486 10.7493 120.581 10.3981 120.771 10.0469C120.973 9.6957 121.27 9.38213 121.662 9.10618C122.067 8.83024 122.58 8.61074 123.199 8.44768C123.819 8.27208 124.559 8.18428 125.42 8.18428V7.05541C125.42 6.11469 125.274 5.45619 124.983 5.0799C124.705 4.70361 124.376 4.51546 123.996 4.51546Z" fill="#093A67"/>
<path d="M133.576 3.10438C133.817 3.10438 134.019 3.01658 134.183 2.84098C134.348 2.65284 134.43 2.3957 134.43 2.06959C134.43 1.96924 134.424 1.88144 134.411 1.80619C134.399 1.73093 134.386 1.66194 134.373 1.59923C134.361 1.53651 134.348 1.4738 134.335 1.41108H135.569C135.581 1.44871 135.594 1.49261 135.607 1.54278C135.619 1.58041 135.632 1.63058 135.645 1.6933C135.657 1.75601 135.664 1.81873 135.664 1.88144C135.664 2.3079 135.493 2.66538 135.151 2.95387C134.822 3.24235 134.297 3.3866 133.576 3.3866C132.855 3.3866 132.324 3.24235 131.982 2.95387C131.653 2.66538 131.489 2.3079 131.489 1.88144C131.489 1.75601 131.502 1.64313 131.527 1.54278C131.54 1.49261 131.558 1.44871 131.584 1.41108H132.817C132.792 1.4738 132.773 1.53651 132.76 1.59923C132.748 1.66194 132.735 1.73093 132.722 1.80619C132.722 1.88144 132.722 1.96924 132.722 2.06959C132.722 2.3957 132.805 2.65284 132.969 2.84098C133.133 3.01658 133.336 3.10438 133.576 3.10438ZM134.146 4.70361V4.51546H137.846V4.70361L136.707 4.98582V12.6997L137.846 12.982V13.1701H134.146V12.982L135.189 12.6997V6.49098L131.868 11.5709V12.6997L132.912 12.982V13.1701H129.212V12.982L130.35 12.6997V4.98582L129.212 4.70361V4.51546H132.912V4.70361L131.868 4.98582V10.9124L135.189 5.83247V4.98582L134.146 4.70361Z" fill="#093A67"/>
<path d="M149.903 0H152.559V0.188144L151.421 0.470361V12.6997L152.559 12.982V13.1701H148.669V12.982L149.808 12.6997V1.59923L145.728 13.4523H145.444L140.889 1.59923V12.5116L142.123 12.982V13.1701H139.276V12.982L140.51 12.5116V0.564434L139.276 0.188144V0H142.028L146.184 10.8183L149.903 0Z" fill="#093A67"/>
<path d="M155.978 8.84278C155.978 9.64553 156.035 10.3166 156.149 10.8559C156.275 11.3953 156.433 11.8343 156.623 12.1729C156.826 12.4991 157.047 12.7311 157.287 12.8691C157.54 13.007 157.8 13.076 158.065 13.076C158.394 13.076 158.704 13.0133 158.995 12.8879C159.286 12.7625 159.546 12.5931 159.773 12.3799C160.001 12.1667 160.184 11.9095 160.324 11.6085C160.475 11.3075 160.577 10.9814 160.627 10.6302H160.912C160.861 11.0315 160.747 11.4078 160.57 11.759C160.406 12.0977 160.191 12.3924 159.925 12.6433C159.659 12.8942 159.349 13.0886 158.995 13.2265C158.654 13.3771 158.28 13.4523 157.876 13.4523C157.395 13.4523 156.939 13.352 156.509 13.1513C156.079 12.9381 155.693 12.637 155.352 12.2482C155.023 11.8468 154.757 11.3639 154.555 10.7995C154.365 10.2225 154.27 9.57027 154.27 8.84278C154.27 8.09021 154.365 7.42543 154.555 6.84845C154.745 6.27148 154.991 5.79484 155.295 5.41856C155.611 5.02972 155.972 4.73497 156.377 4.53428C156.794 4.33359 157.23 4.23325 157.686 4.23325C158.141 4.23325 158.571 4.33359 158.976 4.53428C159.394 4.73497 159.754 5.02972 160.058 5.41856C160.374 5.79484 160.627 6.27148 160.817 6.84845C161.007 7.42543 161.102 8.09021 161.102 8.84278H155.978ZM157.686 4.51546C157.496 4.51546 157.306 4.57818 157.117 4.70361C156.927 4.81649 156.75 5.02345 156.585 5.32448C156.421 5.62552 156.282 6.03316 156.168 6.54742C156.067 7.04914 156.003 7.68883 155.978 8.46649H159.394C159.368 7.68883 159.299 7.04914 159.185 6.54742C159.084 6.03316 158.951 5.62552 158.786 5.32448C158.622 5.02345 158.445 4.81649 158.255 4.70361C158.065 4.57818 157.876 4.51546 157.686 4.51546Z" fill="#093A67"/>
<path d="M162.71 12.7938C162.989 12.4301 163.242 11.9973 163.469 11.4956C163.659 11.0566 163.836 10.511 164.001 9.85876C164.165 9.20653 164.247 8.42887 164.247 7.52577V5.0799L163.014 4.70361V4.51546H169.845V4.70361L168.707 4.98582V12.7938H170.13C170.105 12.9192 170.086 13.0572 170.073 13.2077C170.06 13.3457 170.048 13.515 170.035 13.7157C170.035 13.9164 170.035 14.1422 170.035 14.393C170.035 14.5812 170.035 14.7631 170.035 14.9387C170.048 15.1268 170.06 15.2899 170.073 15.4278C170.086 15.5909 170.105 15.7477 170.13 15.8982H169.94C169.611 15.6097 169.32 15.2334 169.067 14.7693C168.827 14.3178 168.707 13.7847 168.707 13.1701H162.919C162.919 13.7847 162.793 14.3178 162.54 14.7693C162.299 15.2334 162.015 15.6097 161.686 15.8982H161.496C161.509 15.7477 161.521 15.5909 161.534 15.4278C161.546 15.2899 161.559 15.1268 161.572 14.9387C161.584 14.7631 161.591 14.5812 161.591 14.393C161.591 14.1422 161.584 13.9164 161.572 13.7157C161.559 13.515 161.546 13.3457 161.534 13.2077C161.521 13.0572 161.509 12.9192 161.496 12.7938H162.71ZM167.189 12.7938V4.89175H164.627V7.52577C164.627 8.42887 164.551 9.20653 164.399 9.85876C164.247 10.511 164.083 11.0566 163.906 11.4956C163.691 11.9973 163.45 12.4301 163.185 12.7938H167.189Z" fill="#093A67"/>
<path d="M103.575 18.8144H106.232V19.0026L105.093 19.2848V31.5142L106.232 31.7964V31.9845H102.342V31.7964L103.48 31.5142V20.4137L99.4006 32.2668H99.1159L94.5617 20.4137V31.326L95.7952 31.7964V31.9845H92.9488V31.7964L94.1822 31.326V19.3789L92.9488 19.0026V18.8144H95.7003L99.856 29.6327L103.575 18.8144Z" fill="#093A67"/>
<path d="M109.65 27.6572C109.65 28.46 109.707 29.131 109.821 29.6704C109.948 30.2097 110.106 30.6487 110.296 30.9874C110.498 31.3135 110.719 31.5455 110.96 31.6835C111.213 31.8215 111.472 31.8905 111.738 31.8905C112.067 31.8905 112.377 31.8277 112.668 31.7023C112.959 31.5769 113.218 31.4076 113.446 31.1943C113.673 30.9811 113.857 30.724 113.996 30.4229C114.148 30.1219 114.249 29.7958 114.3 29.4446H114.584C114.534 29.846 114.42 30.2222 114.243 30.5734C114.078 30.9121 113.863 31.2069 113.597 31.4577C113.332 31.7086 113.022 31.903 112.668 32.041C112.326 32.1915 111.953 32.2668 111.548 32.2668C111.067 32.2668 110.612 32.1664 110.182 31.9657C109.752 31.7525 109.366 31.4515 109.024 31.0626C108.695 30.6612 108.43 30.1783 108.227 29.6139C108.038 29.0369 107.943 28.3847 107.943 27.6572C107.943 26.9046 108.038 26.2399 108.227 25.6629C108.417 25.0859 108.664 24.6093 108.967 24.233C109.284 23.8442 109.644 23.5494 110.049 23.3487C110.466 23.148 110.903 23.0477 111.358 23.0477C111.814 23.0477 112.244 23.148 112.649 23.3487C113.066 23.5494 113.427 23.8442 113.73 24.233C114.047 24.6093 114.3 25.0859 114.489 25.6629C114.679 26.2399 114.774 26.9046 114.774 27.6572H109.65ZM111.358 23.3299C111.169 23.3299 110.979 23.3926 110.789 23.518C110.599 23.6309 110.422 23.8379 110.258 24.1389C110.093 24.4399 109.954 24.8476 109.84 25.3619C109.739 25.8636 109.676 26.5033 109.65 27.2809H113.066C113.041 26.5033 112.971 25.8636 112.857 25.3619C112.756 24.8476 112.623 24.4399 112.459 24.1389C112.294 23.8379 112.117 23.6309 111.928 23.518C111.738 23.3926 111.548 23.3299 111.358 23.3299Z" fill="#093A67"/>
<path d="M116.383 31.6082C116.661 31.2445 116.914 30.8118 117.142 30.31C117.331 29.871 117.509 29.3254 117.673 28.6732C117.838 28.021 117.92 27.2433 117.92 26.3402V23.8943L116.686 23.518V23.3299H123.518V23.518L122.379 23.8003V31.6082H123.802C123.777 31.7337 123.758 31.8716 123.745 32.0222C123.733 32.1601 123.72 32.3295 123.707 32.5302C123.707 32.7308 123.707 32.9566 123.707 33.2075C123.707 33.3956 123.707 33.5775 123.707 33.7531C123.72 33.9412 123.733 34.1043 123.745 34.2423C123.758 34.4053 123.777 34.5621 123.802 34.7126H123.612C123.284 34.4241 122.993 34.0478 122.74 33.5838C122.499 33.1322 122.379 32.5991 122.379 31.9845H116.591C116.591 32.5991 116.465 33.1322 116.212 33.5838C115.972 34.0478 115.687 34.4241 115.358 34.7126H115.168C115.181 34.5621 115.194 34.4053 115.206 34.2423C115.219 34.1043 115.232 33.9412 115.244 33.7531C115.257 33.5775 115.263 33.3956 115.263 33.2075C115.263 32.9566 115.257 32.7308 115.244 32.5302C115.232 32.3295 115.219 32.1601 115.206 32.0222C115.194 31.8716 115.181 31.7337 115.168 31.6082H116.383ZM120.861 31.6082V23.7062H118.299V26.3402C118.299 27.2433 118.223 28.021 118.072 28.6732C117.92 29.3254 117.755 29.871 117.578 30.31C117.363 30.8118 117.123 31.2445 116.857 31.6082H120.861Z" fill="#093A67"/>
<path d="M129.976 23.518V23.3299H133.676V23.518L132.538 23.8003V31.5142L133.676 31.7964V31.9845H129.976V31.7964L131.02 31.5142V25.3054L127.699 30.3853V31.5142L128.743 31.7964V31.9845H125.042V31.7964L126.181 31.5142V23.8003L125.042 23.518V23.3299H128.743V23.518L127.699 23.8003V29.7268L131.02 24.6469V23.8003L129.976 23.518Z" fill="#093A67"/>
<path d="M144.026 31.6082C144 31.7337 143.981 31.8716 143.969 32.0222C143.956 32.1601 143.943 32.3295 143.931 32.5302C143.931 32.7308 143.931 32.9566 143.931 33.2075C143.931 33.3956 143.931 33.5775 143.931 33.7531C143.943 33.9412 143.956 34.1043 143.969 34.2423C143.981 34.4053 144 34.5621 144.026 34.7126H143.836C143.507 34.4241 143.216 34.0478 142.963 33.5838C142.723 33.1322 142.602 32.5991 142.602 31.9845H135.012V31.7964L136.151 31.5142V23.8003L135.012 23.518V23.3299H138.712V23.518L137.669 23.8003V31.6082H140.895V23.8003L139.851 23.518V23.3299H143.551V23.518L142.413 23.8003V31.6082H144.026Z" fill="#093A67"/>
<path d="M149.804 23.518V23.3299H153.505V23.518L152.366 23.8003V31.5142L153.505 31.7964V31.9845H149.804V31.7964L150.848 31.5142V25.3054L147.527 30.3853V31.5142L148.571 31.7964V31.9845H144.871V31.7964L146.009 31.5142V23.8003L144.871 23.518V23.3299H148.571V23.518L147.527 23.8003V29.7268L150.848 24.6469V23.8003L149.804 23.518Z" fill="#093A67"/>
<path d="M159.679 23.518V23.3299H163.379V23.518L162.241 23.8003V31.5142L163.379 31.7964V31.9845H159.679V31.7964L160.723 31.5142V27.6572H157.497V31.5142L158.541 31.7964V31.9845H154.84V31.7964L155.979 31.5142V23.8003L154.84 23.518V23.3299H158.541V23.518L157.497 23.8003V27.2809H160.723V23.8003L159.679 23.518Z" fill="#093A67"/>
<path d="M168.589 23.424C168.348 23.424 168.108 23.4992 167.868 23.6497C167.64 23.7877 167.431 24.0198 167.242 24.3459C167.052 24.672 166.894 25.1047 166.767 25.6441C166.653 26.1834 166.596 26.8545 166.596 27.6572C166.596 28.46 166.653 29.131 166.767 29.6704C166.894 30.2097 167.058 30.6487 167.26 30.9874C167.463 31.3135 167.691 31.5455 167.944 31.6835C168.209 31.8215 168.488 31.8905 168.779 31.8905C169.107 31.8905 169.417 31.8277 169.708 31.7023C169.999 31.5769 170.259 31.4076 170.486 31.1943C170.714 30.9811 170.898 30.724 171.037 30.4229C171.188 30.1219 171.29 29.7958 171.34 29.4446H171.625C171.574 29.846 171.46 30.2222 171.283 30.5734C171.119 30.9121 170.904 31.2069 170.638 31.4577C170.373 31.7086 170.063 31.903 169.708 32.041C169.367 32.1915 168.994 32.2668 168.589 32.2668C168.095 32.2668 167.621 32.1664 167.166 31.9657C166.723 31.7525 166.331 31.4515 165.989 31.0626C165.648 30.6612 165.376 30.1783 165.173 29.6139C164.983 29.0369 164.889 28.3847 164.889 27.6572C164.889 26.9297 164.983 26.2838 165.173 25.7193C165.376 25.1423 165.641 24.6594 165.97 24.2706C166.299 23.8692 166.672 23.5682 167.09 23.3675C167.507 23.1543 167.944 23.0477 168.399 23.0477C168.703 23.0477 168.968 23.0978 169.196 23.1982C169.436 23.2985 169.639 23.4052 169.803 23.518C169.993 23.656 170.157 23.8128 170.297 23.9884C170.347 23.8003 170.448 23.6247 170.6 23.4616C170.765 23.2985 170.917 23.1919 171.056 23.1418H171.34C171.315 23.3048 171.296 23.4741 171.283 23.6497C171.271 23.8003 171.258 23.9633 171.245 24.1389C171.245 24.3145 171.245 24.4838 171.245 24.6469C171.245 24.835 171.245 25.0295 171.245 25.2302C171.258 25.4183 171.271 25.5876 171.283 25.7381C171.296 25.9137 171.315 26.0831 171.34 26.2461H171.056C170.815 25.343 170.461 24.6469 169.993 24.1577C169.538 23.6686 169.07 23.424 168.589 23.424Z" fill="#093A67"/>
<path d="M176.344 27.8265L175.509 29.2564V31.5142L176.553 31.7964V31.9845H172.852V31.7964L173.991 31.5142V23.8003L172.852 23.518V23.3299H176.742V23.518L175.509 23.8003V28.5979L177.217 25.5876C177.508 25.0734 177.755 24.6594 177.957 24.3459C178.159 24.0198 178.336 23.7689 178.488 23.5933C178.653 23.4177 178.804 23.2985 178.944 23.2358C179.083 23.1731 179.235 23.1418 179.399 23.1418C179.462 23.1418 179.526 23.148 179.589 23.1606C179.652 23.1731 179.703 23.1856 179.741 23.1982C179.791 23.2107 179.836 23.2233 179.873 23.2358L180.158 24.5528C180.082 24.5403 180.006 24.5277 179.93 24.5152C179.867 24.5027 179.791 24.4901 179.703 24.4776C179.627 24.465 179.557 24.4588 179.494 24.4588C178.975 24.4588 178.583 24.5528 178.317 24.741C178.052 24.9291 177.811 25.2113 177.596 25.5876L177.122 26.4155L180.253 31.5142L181.392 31.7964V31.9845H177.558V31.7964L178.602 31.5142L176.344 27.8265Z" fill="#093A67"/>
<path d="M186.7 23.518V23.3299H190.4V23.518L189.261 23.8003V31.5142L190.4 31.7964V31.9845H186.7V31.7964L187.743 31.5142V25.3054L184.422 30.3853V31.5142L185.466 31.7964V31.9845H181.766V31.7964L182.904 31.5142V23.8003L181.766 23.518V23.3299H185.466V23.518L184.422 23.8003V29.7268L187.743 24.6469V23.8003L186.7 23.518Z" fill="#093A67"/>
<path d="M196.1 21.9188C196.34 21.9188 196.543 21.831 196.707 21.6554C196.872 21.4673 196.954 21.2101 196.954 20.884C196.954 20.7837 196.948 20.6959 196.935 20.6206C196.922 20.5454 196.91 20.4764 196.897 20.4137C196.884 20.3509 196.872 20.2882 196.859 20.2255H198.092C198.105 20.2631 198.118 20.307 198.13 20.3572C198.143 20.3948 198.156 20.445 198.168 20.5077C198.181 20.5704 198.187 20.6332 198.187 20.6959C198.187 21.1223 198.017 21.4798 197.675 21.7683C197.346 22.0568 196.821 22.201 196.1 22.201C195.379 22.201 194.848 22.0568 194.506 21.7683C194.177 21.4798 194.013 21.1223 194.013 20.6959C194.013 20.5704 194.025 20.4576 194.051 20.3572C194.063 20.307 194.082 20.2631 194.108 20.2255H195.341C195.316 20.2882 195.297 20.3509 195.284 20.4137C195.271 20.4764 195.259 20.5454 195.246 20.6206C195.246 20.6959 195.246 20.7837 195.246 20.884C195.246 21.2101 195.328 21.4673 195.493 21.6554C195.657 21.831 195.86 21.9188 196.1 21.9188ZM196.669 23.518V23.3299H200.37V23.518L199.231 23.8003V31.5142L200.37 31.7964V31.9845H196.669V31.7964L197.713 31.5142V25.3054L194.392 30.3853V31.5142L195.436 31.7964V31.9845H191.736V31.7964L192.874 31.5142V23.8003L191.736 23.518V23.3299H195.436V23.518L194.392 23.8003V29.7268L197.713 24.6469V23.8003L196.669 23.518Z" fill="#093A67"/>
<path d="M206.454 31.9845V31.7964L207.592 31.5142V19.2848L206.454 19.0026V18.8144H210.344V19.0026L209.205 19.2848V31.6082H213.095V19.2848L211.957 19.0026V18.8144H215.847V19.0026L214.708 19.2848V31.6082H216.511C216.486 31.7588 216.467 31.9218 216.454 32.0974C216.441 32.2479 216.429 32.4173 216.416 32.6054C216.416 32.7936 216.416 32.9942 216.416 33.2075C216.416 33.3956 216.416 33.59 216.416 33.7907C216.429 33.9914 216.441 34.1733 216.454 34.3363C216.467 34.537 216.486 34.7252 216.511 34.9008H216.321C215.891 34.5747 215.562 34.1607 215.334 33.659C215.107 33.1573 214.993 32.5991 214.993 31.9845H206.454Z" fill="#093A67"/>
<path d="M219.262 27.6572C219.262 28.46 219.318 29.131 219.432 29.6704C219.559 30.2097 219.717 30.6487 219.907 30.9874C220.109 31.3135 220.331 31.5455 220.571 31.6835C220.824 31.8215 221.083 31.8905 221.349 31.8905C221.678 31.8905 221.988 31.8277 222.279 31.7023C222.57 31.5769 222.829 31.4076 223.057 31.1943C223.284 30.9811 223.468 30.724 223.607 30.4229C223.759 30.1219 223.86 29.7958 223.911 29.4446H224.195C224.145 29.846 224.031 30.2222 223.854 30.5734C223.689 30.9121 223.474 31.2069 223.209 31.4577C222.943 31.7086 222.633 31.903 222.279 32.041C221.937 32.1915 221.564 32.2668 221.159 32.2668C220.678 32.2668 220.223 32.1664 219.793 31.9657C219.363 31.7525 218.977 31.4515 218.635 31.0626C218.306 30.6612 218.041 30.1783 217.838 29.6139C217.649 29.0369 217.554 28.3847 217.554 27.6572C217.554 26.9046 217.649 26.2399 217.838 25.6629C218.028 25.0859 218.275 24.6093 218.578 24.233C218.895 23.8442 219.255 23.5494 219.66 23.3487C220.078 23.148 220.514 23.0477 220.969 23.0477C221.425 23.0477 221.855 23.148 222.26 23.3487C222.677 23.5494 223.038 23.8442 223.341 24.233C223.658 24.6093 223.911 25.0859 224.1 25.6629C224.29 26.2399 224.385 26.9046 224.385 27.6572H219.262ZM220.969 23.3299C220.78 23.3299 220.59 23.3926 220.4 23.518C220.21 23.6309 220.033 23.8379 219.869 24.1389C219.704 24.4399 219.565 24.8476 219.451 25.3619C219.35 25.8636 219.287 26.5033 219.262 27.2809H222.677C222.652 26.5033 222.582 25.8636 222.468 25.3619C222.367 24.8476 222.234 24.4399 222.07 24.1389C221.906 23.8379 221.728 23.6309 221.539 23.518C221.349 23.3926 221.159 23.3299 220.969 23.3299Z" fill="#093A67"/>
<path d="M230.653 23.518V23.3299H234.353V23.518L233.215 23.8003V31.5142L234.353 31.7964V31.9845H230.653V31.7964L231.697 31.5142V27.6572H228.471V31.5142L229.514 31.7964V31.9845H225.814V31.7964L226.953 31.5142V23.8003L225.814 23.518V23.3299H229.514V23.518L228.471 23.8003V27.2809H231.697V23.8003L230.653 23.518Z" fill="#093A67"/>
<path d="M242.789 23.3299C242.763 23.4553 242.744 23.587 242.732 23.725C242.719 23.8504 242.706 24.0009 242.694 24.1765C242.694 24.3396 242.694 24.5277 242.694 24.741C242.694 24.8789 242.694 25.0357 242.694 25.2113C242.706 25.3744 242.719 25.5249 242.732 25.6629C242.744 25.8259 242.763 25.989 242.789 26.1521H242.599C242.27 25.8636 241.998 25.5186 241.783 25.1173C241.568 24.7033 241.46 24.233 241.46 23.7062H239.942V31.5142L241.081 31.7964V31.9845H237.286V31.7964L238.424 31.5142V23.7062H236.906C236.906 24.233 236.799 24.7033 236.584 25.1173C236.368 25.5186 236.096 25.8636 235.768 26.1521H235.578C235.59 25.989 235.603 25.8259 235.616 25.6629C235.628 25.5249 235.641 25.3744 235.654 25.2113C235.666 25.0357 235.673 24.8789 235.673 24.741C235.673 24.5277 235.666 24.3396 235.654 24.1765C235.641 24.0009 235.628 23.8504 235.616 23.725C235.603 23.587 235.59 23.4553 235.578 23.3299H242.789Z" fill="#093A67"/>
<path d="M244.979 23.8003L243.84 23.518V23.3299H246.497V24.4588C246.624 24.2079 246.794 23.9759 247.009 23.7626C247.186 23.587 247.414 23.424 247.693 23.2735C247.971 23.1229 248.3 23.0477 248.679 23.0477C249.084 23.0477 249.483 23.1543 249.875 23.3675C250.28 23.5682 250.634 23.8692 250.937 24.2706C251.254 24.6594 251.507 25.1423 251.696 25.7193C251.899 26.2838 252 26.9297 252 27.6572C252 28.3847 251.899 29.0369 251.696 29.6139C251.507 30.1783 251.247 30.6612 250.918 31.0626C250.589 31.4515 250.216 31.7525 249.799 31.9657C249.381 32.1664 248.945 32.2668 248.489 32.2668C248.123 32.2668 247.813 32.2166 247.56 32.1162C247.319 32.0284 247.117 31.9218 246.952 31.7964C246.763 31.6584 246.611 31.5016 246.497 31.326V35.5L247.636 35.7822V36H243.84V35.7822L244.979 35.5V23.8003ZM248.205 31.8905C248.471 31.8905 248.724 31.8215 248.964 31.6835C249.217 31.5455 249.438 31.3135 249.628 30.9874C249.83 30.6487 249.989 30.2097 250.102 29.6704C250.229 29.131 250.292 28.46 250.292 27.6572C250.292 26.8545 250.229 26.1834 250.102 25.6441C249.989 25.1047 249.837 24.672 249.647 24.3459C249.47 24.0198 249.267 23.7877 249.04 23.6497C248.825 23.4992 248.61 23.424 248.395 23.424C248.078 23.424 247.806 23.5118 247.579 23.6874C247.351 23.863 247.155 24.0574 246.99 24.2706C246.801 24.5215 246.636 24.8037 246.497 25.1173V30.7616C246.611 30.9748 246.75 31.163 246.915 31.326C247.054 31.464 247.231 31.5957 247.446 31.7211C247.661 31.834 247.914 31.8905 248.205 31.8905Z" fill="#093A67"/>
</svg>
