<svg width="40" height="40" viewBox="0 0 40 40" fill="none" xmlns="http://www.w3.org/2000/svg">
<path d="M21.0347 14.5126L21.1597 13.8626H22.0097L21.5222 16.3751C21.4722 16.6251 21.4472 16.8126 21.4472 16.9376C21.4472 17.1126 21.4888 17.2418 21.5722 17.3251C21.6555 17.4001 21.7472 17.4376 21.8472 17.4376C22.1138 17.4376 22.3638 17.2709 22.5972 16.9376C22.7388 16.7376 22.8472 16.4709 22.9222 16.1376C22.9972 15.8043 23.0347 15.5084 23.0347 15.2501C23.0347 14.4751 22.7638 13.7876 22.2222 13.1876C21.6888 12.5876 20.9222 12.2876 19.9222 12.2876C18.9138 12.2876 18.0638 12.6334 17.3722 13.3251C16.6805 14.0168 16.3347 14.8751 16.3347 15.9001C16.3347 16.6334 16.5263 17.2959 16.9097 17.8876C17.293 18.4793 17.818 18.9001 18.4847 19.1501C18.9013 19.3168 19.3763 19.4001 19.9097 19.4001C20.8263 19.4001 21.6722 19.2293 22.4472 18.8876L22.6597 19.6626C21.8763 19.9876 20.9805 20.1501 19.9722 20.1501C18.7388 20.1501 17.7305 19.8126 16.9472 19.1376C16.0055 18.3126 15.5347 17.2293 15.5347 15.8876C15.5347 14.6293 15.9472 13.5918 16.7722 12.7751C17.5972 11.9501 18.6347 11.5376 19.8847 11.5376C21.0097 11.5376 21.9472 11.8751 22.6972 12.5501C23.4555 13.2168 23.8347 14.1126 23.8347 15.2376C23.8347 16.1209 23.6347 16.8293 23.2347 17.3626C22.8347 17.8876 22.3555 18.1501 21.7972 18.1501C21.5388 18.1501 21.3263 18.0793 21.1597 17.9376C21.0013 17.7959 20.8972 17.6084 20.8472 17.3751C20.4805 17.9418 19.9638 18.2251 19.2972 18.2251C18.8638 18.2251 18.4597 18.0668 18.0847 17.7501C17.718 17.4251 17.5347 16.9168 17.5347 16.2251C17.5347 15.4501 17.7597 14.8376 18.2097 14.3876C18.6597 13.9376 19.1638 13.7126 19.7222 13.7126C20.3555 13.7126 20.793 13.9793 21.0347 14.5126ZM19.4222 17.3501C19.7805 17.3501 20.093 17.1918 20.3597 16.8751C20.6347 16.5584 20.7722 16.1543 20.7722 15.6626C20.7722 15.3043 20.6805 15.0376 20.4972 14.8626C20.3138 14.6793 20.0888 14.5876 19.8222 14.5876C19.4555 14.5876 19.143 14.7334 18.8847 15.0251C18.6263 15.3168 18.4972 15.7126 18.4972 16.2126C18.4972 16.5793 18.5847 16.8626 18.7597 17.0626C18.943 17.2543 19.1638 17.3501 19.4222 17.3501Z" fill="#EBD1B2"/>
<path fill-rule="evenodd" clip-rule="evenodd" d="M1.88507 38.3917L15.9476 26.5167L16.5524 27.233L2.48993 39.108L1.88507 38.3917Z" fill="#FFF9EF"/>
<path fill-rule="evenodd" clip-rule="evenodd" d="M16.766 2.41517C18.6909 1.00354 21.3091 1.00354 23.234 2.41517L26.1128 4.52626L25.5584 5.28226L22.6796 3.17117C21.0847 2.00154 18.9153 2.00154 17.3204 3.17117L14.3397 5.35701L13.7853 4.601L16.766 2.41517ZM6.5978 9.87183L7.1522 10.6278L2.01548 14.3948L17.1338 26.7414C18.8018 28.1036 21.1982 28.1036 22.8662 26.7414L37.9845 14.3948L32.8478 10.6278L33.4022 9.87183L39.2188 14.1373V37.4998C39.2188 38.7943 38.1694 39.8436 36.875 39.8436H3.125C1.83058 39.8436 0.78125 38.7943 0.78125 37.4998V14.1373L6.5978 9.87183ZM38.2812 15.3629L23.4592 27.4675C21.4461 29.1116 18.5539 29.1116 16.5408 27.4675L1.71875 15.3629V37.4998C1.71875 38.2765 2.34835 38.9061 3.125 38.9061H36.875C37.6517 38.9061 38.2812 38.2765 38.2812 37.4998V15.3629Z" fill="#FFF9EF"/>
<path fill-rule="evenodd" clip-rule="evenodd" d="M38.1149 38.3917L24.0524 26.5167L23.4476 27.233L37.5101 39.108L38.1149 38.3917Z" fill="#FFF9EF"/>
<path fill-rule="evenodd" clip-rule="evenodd" d="M8.125 5.46875C7.69353 5.46875 7.34375 5.81853 7.34375 6.25V18.75L6.40625 17.981V6.25C6.40625 5.30076 7.17576 4.53125 8.125 4.53125H31.875C32.8242 4.53125 33.5938 5.30076 33.5938 6.25V17.9834L32.6562 18.75V6.25C32.6562 5.81853 32.3065 5.46875 31.875 5.46875H8.125Z" fill="#EBD1B2"/>
</svg>
