<svg width="48" height="18" viewBox="0 0 48 18" fill="none" xmlns="http://www.w3.org/2000/svg">
<path fill-rule="evenodd" clip-rule="evenodd" d="M7.64285 1.12968C7.40495 1.12968 7.20098 1.27743 7.12222 1.48642L1.88545 15.3832C1.75722 15.7235 2.00129 16.1203 2.40608 16.1203H19.0329V12.7065L10.4739 1.12968H7.64285ZM11.8537 1.12968H17.5195V0H7.64285C6.963 0 6.34482 0.423432 6.09809 1.07818L0.861324 14.975C0.441312 16.0896 1.265 17.25 2.40608 17.25H45.5939C46.735 17.25 47.5587 16.0896 47.1387 14.975L41.9019 1.07817C41.6552 0.423433 41.037 0 40.3572 0H30.4805V1.12968H40.3572C40.595 1.12968 40.799 1.27743 40.8778 1.48642L41.6623 3.5682L19.7736 11.8419L11.8537 1.12968ZM20.1312 12.9103V16.1203H38.8684L32.6551 8.17638L20.1312 12.9103ZM33.7431 7.76513L40.278 16.1203H45.5939C45.9987 16.1203 46.2428 15.7235 46.1145 15.3832L42.0592 4.6217L33.7431 7.76513Z" fill="#FFF9EF"/>
</svg>
