<svg width="27" height="39" viewBox="0 0 27 39" fill="none" xmlns="http://www.w3.org/2000/svg">
<path fill-rule="evenodd" clip-rule="evenodd" d="M13.375 1.84249C6.716 1.84249 1.33794 7.14461 1.33794 13.6604C1.33794 14.0311 1.35531 14.3977 1.38926 14.7594L1.38979 14.7651L1.3902 14.7707C1.6733 18.6426 3.57858 24.5528 7.41414 30.5682C8.95838 32.9901 10.8125 35.4241 12.9937 37.7441C13.1986 37.962 13.5514 37.962 13.7563 37.7441C15.9375 35.4241 17.7916 32.9901 19.3359 30.5682C23.1714 24.5528 25.0767 18.6426 25.3598 14.7707L25.3602 14.7651L25.3607 14.7594C25.3947 14.3977 25.4121 14.0311 25.4121 13.6604C25.4121 7.14461 20.034 1.84249 13.375 1.84249ZM0.25 13.6604C0.25 6.51916 6.13738 0.75 13.375 0.75C20.6126 0.75 26.5 6.51916 26.5 13.6604C26.5 14.0635 26.4812 14.4624 26.4444 14.8563C26.1435 18.9518 24.1576 25.0322 20.2521 31.1573C18.6733 33.6333 16.7779 36.1217 14.5473 38.4941C13.9131 39.1686 12.8369 39.1686 12.2027 38.4941C9.97215 36.1217 8.07666 33.6333 6.49792 31.1573C2.5924 25.0322 0.606457 18.9518 0.305596 14.8563C0.268796 14.4624 0.25 14.0635 0.25 13.6604ZM11.7671 10.2465C10.8719 9.55974 9.58615 9.67851 8.83754 10.5115C8.11024 11.3208 8.13049 12.5379 8.88538 13.3236L13.1015 17.7119L17.3176 13.3236C18.0725 12.5379 18.0928 11.3208 17.3655 10.5115C16.6168 9.67851 15.3311 9.55974 14.4359 10.2465L13.6333 10.8623C13.3199 11.1027 12.8831 11.1027 12.5697 10.8623L11.7671 10.2465ZM8.02987 9.77959C9.16034 8.52166 11.0852 8.3485 12.4276 9.37838L13.1015 9.89541L13.7754 9.37838C15.1178 8.3485 17.0427 8.52166 18.1731 9.77959C19.2839 11.0156 19.2519 12.8838 18.1006 14.0821L13.7949 18.5636C13.4171 18.9568 12.7859 18.9568 12.4081 18.5636L8.10243 14.0821C6.95107 12.8838 6.91912 11.0156 8.02987 9.77959Z" fill="#EBD1B2"/>
</svg>
