<svg width="60" height="60" viewBox="0 0 60 60" fill="none" xmlns="http://www.w3.org/2000/svg">
<path d="M23 34.325C22.5483 33.8424 21.9239 33.5583 21.2633 33.5349C20.6027 33.5114 19.9597 33.7506 19.475 34.2C16.5192 36.8036 14.147 40.0026 12.5141 43.5872C10.8813 47.1718 10.0245 51.0611 10 55C10 55.663 10.2634 56.2989 10.7322 56.7678C11.2011 57.2366 11.837 57.5 12.5 57.5C13.163 57.5 13.7989 57.2366 14.2678 56.7678C14.7366 56.2989 15 55.663 15 55C15.0172 51.7457 15.7285 48.5325 17.0865 45.5751C18.4445 42.6176 20.418 39.984 22.875 37.85C23.3576 37.3983 23.6417 36.7739 23.6651 36.1133C23.6886 35.4527 23.4494 34.8097 23 34.325ZM48.425 45.925C47.4937 43.2305 46.1438 40.6995 44.425 38.425C41.853 35.0929 38.7132 32.2408 35.15 30C40.75 26.425 50 18.5 50 5C50 4.33696 49.7366 3.70107 49.2678 3.23223C48.7989 2.76339 48.163 2.5 47.5 2.5C46.837 2.5 46.2011 2.76339 45.7322 3.23223C45.2634 3.70107 45 4.33696 45 5C45 18.5 33.525 25.425 30 27.225C27.5732 25.9316 25.3145 24.3447 23.275 22.5H30C30.663 22.5 31.2989 22.2366 31.7678 21.7678C32.2366 21.2989 32.5 20.663 32.5 20C32.5 19.337 32.2366 18.7011 31.7678 18.2322C31.2989 17.7634 30.663 17.5 30 17.5H18.875C17.8455 15.9389 17.0062 14.2603 16.375 12.5H37.5C38.163 12.5 38.7989 12.2366 39.2678 11.7678C39.7366 11.2989 40 10.663 40 10C40 9.33696 39.7366 8.70107 39.2678 8.23223C38.7989 7.76339 38.163 7.5 37.5 7.5H15.15C15.0487 6.67054 14.9986 5.83562 15 5C15 4.33696 14.7366 3.70107 14.2678 3.23223C13.7989 2.76339 13.163 2.5 12.5 2.5C11.837 2.5 11.2011 2.76339 10.7322 3.23223C10.2634 3.70107 10 4.33696 10 5C10 23.925 28.25 31.975 29.025 32.3C31.8375 33.6514 34.4395 35.4029 36.75 37.5H30C29.337 37.5 28.7011 37.7634 28.2322 38.2322C27.7634 38.7011 27.5 39.337 27.5 40C27.5 40.663 27.7634 41.2989 28.2322 41.7678C28.7011 42.2366 29.337 42.5 30 42.5H41.075C42.1114 44.0572 42.9511 45.7366 43.575 47.5H22.5C21.837 47.5 21.2011 47.7634 20.7322 48.2322C20.2634 48.7011 20 49.337 20 50C20 50.663 20.2634 51.2989 20.7322 51.7678C21.2011 52.2366 21.837 52.5 22.5 52.5H44.85C44.9505 53.3295 45.0006 54.1644 45 55C45 55.663 45.2634 56.2989 45.7322 56.7678C46.2011 57.2366 46.837 57.5 47.5 57.5C48.163 57.5 48.7989 57.2366 49.2678 56.7678C49.7366 56.2989 50 55.663 50 55C50.009 53.1608 49.8246 51.3257 49.45 49.525C49.2064 48.2992 48.8636 47.0953 48.425 45.925V45.925Z" fill="#FFF9EF"/>
</svg>
