<svg width="178" height="26" viewBox="0 0 178 26" fill="none" xmlns="http://www.w3.org/2000/svg">
<path d="M12.1359 1.48359C12.5216 0.821321 13.4784 0.821321 13.8641 1.48359L16.9809 6.83474C17.1222 7.07734 17.359 7.24937 17.6333 7.30879L23.6857 8.61941C24.4348 8.78162 24.7304 9.69154 24.2198 10.2631L20.0937 14.8809C19.9066 15.0902 19.8162 15.3686 19.8444 15.6479L20.4683 21.8091C20.5455 22.5716 19.7714 23.1339 19.0701 22.8249L13.4032 20.3277C13.1463 20.2145 12.8537 20.2145 12.5968 20.3277L6.9299 22.8249C6.22857 23.1339 5.45454 22.5716 5.53174 21.8091L6.15556 15.6479C6.18384 15.3686 6.0934 15.0902 5.90633 14.8809L1.78022 10.2631C1.26956 9.69154 1.56521 8.78162 2.31427 8.61941L8.36665 7.30879C8.64104 7.24937 8.87782 7.07734 9.01912 6.83474L12.1359 1.48359Z" fill="#972A29"/>
<path d="M50.1359 1.48359C50.5216 0.821321 51.4784 0.821321 51.8641 1.48359L54.9809 6.83474C55.1222 7.07734 55.359 7.24937 55.6333 7.30879L61.6857 8.61941C62.4348 8.78162 62.7304 9.69154 62.2198 10.2631L58.0937 14.8809C57.9066 15.0902 57.8162 15.3686 57.8444 15.6479L58.4683 21.8091C58.5455 22.5716 57.7714 23.1339 57.0701 22.8249L51.4032 20.3277C51.1463 20.2145 50.8537 20.2145 50.5968 20.3277L44.9299 22.8249C44.2286 23.1339 43.4545 22.5716 43.5317 21.8091L44.1556 15.6479C44.1838 15.3686 44.0934 15.0902 43.9063 14.8809L39.7802 10.2631C39.2696 9.69154 39.5652 8.78162 40.3143 8.61941L46.3667 7.30879C46.641 7.24937 46.8778 7.07734 47.0191 6.83474L50.1359 1.48359Z" fill="#972A29"/>
<path d="M88.1359 1.48359C88.5216 0.821321 89.4784 0.821321 89.8641 1.48359L92.9809 6.83474C93.1222 7.07734 93.359 7.24937 93.6333 7.30879L99.6857 8.61941C100.435 8.78162 100.73 9.69154 100.22 10.2631L96.0937 14.8809C95.9066 15.0902 95.8162 15.3686 95.8444 15.6479L96.4683 21.8091C96.5455 22.5716 95.7714 23.1339 95.0701 22.8249L89.4032 20.3277C89.1463 20.2145 88.8537 20.2145 88.5968 20.3277L82.9299 22.8249C82.2286 23.1339 81.4545 22.5716 81.5317 21.8091L82.1556 15.6479C82.1838 15.3686 82.0934 15.0902 81.9063 14.8809L77.7802 10.2631C77.2696 9.69154 77.5652 8.78162 78.3143 8.61941L84.3667 7.30879C84.641 7.24937 84.8778 7.07734 85.0191 6.83474L88.1359 1.48359Z" fill="#972A29"/>
<path d="M126.136 1.48359C126.522 0.821321 127.478 0.821321 127.864 1.48359L130.981 6.83474C131.122 7.07734 131.359 7.24937 131.633 7.30879L137.686 8.61941C138.435 8.78162 138.73 9.69154 138.22 10.2631L134.094 14.8809C133.907 15.0902 133.816 15.3686 133.844 15.6479L134.468 21.8091C134.545 22.5716 133.771 23.1339 133.07 22.8249L127.403 20.3277C127.146 20.2145 126.854 20.2145 126.597 20.3277L120.93 22.8249C120.229 23.1339 119.455 22.5716 119.532 21.8091L120.156 15.6479C120.184 15.3686 120.093 15.0902 119.906 14.8809L115.78 10.2631C115.27 9.69154 115.565 8.78162 116.314 8.61941L122.367 7.30879C122.641 7.24937 122.878 7.07734 123.019 6.83474L126.136 1.48359Z" fill="#972A29"/>
<path d="M164.136 1.48359C164.522 0.821321 165.478 0.821321 165.864 1.48359L168.981 6.83474C169.122 7.07734 169.359 7.24937 169.633 7.30879L175.686 8.61941C176.435 8.78162 176.73 9.69154 176.22 10.2631L172.094 14.8809C171.907 15.0902 171.816 15.3686 171.844 15.6479L172.468 21.8091C172.545 22.5716 171.771 23.1339 171.07 22.8249L165.403 20.3277C165.146 20.2145 164.854 20.2145 164.597 20.3277L158.93 22.8249C158.229 23.1339 157.455 22.5716 157.532 21.8091L158.156 15.6479C158.184 15.3686 158.093 15.0902 157.906 14.8809L153.78 10.2631C153.27 9.69154 153.565 8.78162 154.314 8.61941L160.367 7.30879C160.641 7.24937 160.878 7.07734 161.019 6.83474L164.136 1.48359Z" fill="#972A29"/>
</svg>
