<svg width="108" height="108" viewBox="0 0 108 108" fill="none" xmlns="http://www.w3.org/2000/svg">
<circle cx="54" cy="54" r="54" fill="#D9D9D9"/>
<path d="M61.875 49.5C62.1863 49.6185 62.5169 49.6779 62.85 49.675H72.85C73.5131 49.675 74.1489 49.4116 74.6178 48.9428C75.0866 48.4739 75.35 47.838 75.35 47.175C75.35 46.512 75.0866 45.8761 74.6178 45.4072C74.1489 44.9384 73.5131 44.675 72.85 44.675H68.875L77.1 36.45C77.3617 36.2259 77.5743 35.9501 77.7243 35.6399C77.8744 35.3298 77.9587 34.9919 77.972 34.6476C77.9853 34.3033 77.9273 33.96 77.8016 33.6392C77.6759 33.3184 77.4853 33.027 77.2416 32.7834C76.998 32.5397 76.7066 32.3491 76.3858 32.2234C76.065 32.0977 75.7217 32.0397 75.3774 32.053C75.0331 32.0663 74.6952 32.1506 74.3851 32.3007C74.0749 32.4508 73.7991 32.6633 73.575 32.925L65.35 41.125V37.15C65.35 36.487 65.0866 35.8511 64.6178 35.3822C64.1489 34.9134 63.513 34.65 62.85 34.65C62.187 34.65 61.5511 34.9134 61.0822 35.3822C60.6134 35.8511 60.35 36.487 60.35 37.15V47.15C60.3471 47.4831 60.4065 47.8137 60.525 48.125C60.6479 48.4321 60.8305 48.7118 61.0622 48.9478C61.2939 49.1838 61.5702 49.3715 61.875 49.5V49.5ZM71.6 59.5C71.05 59.5 70.475 59.325 69.925 59.2C68.8112 58.9546 67.7167 58.6287 66.65 58.225C65.4902 57.8031 64.2154 57.825 63.0708 58.2865C61.9262 58.7481 60.9927 59.6166 60.45 60.725L59.9 61.85C57.465 60.4955 55.2275 58.8131 53.25 56.85C51.2869 54.8725 49.6046 52.635 48.25 50.2L49.3 49.5C50.4084 48.9573 51.277 48.0238 51.7385 46.8792C52.2 45.7346 52.2219 44.4598 51.8 43.3C51.4031 42.2311 51.0774 41.137 50.825 40.025C50.7 39.475 50.6 38.9 50.525 38.325C50.2214 36.5641 49.2991 34.9694 47.9241 33.8281C46.5491 32.6868 44.8117 32.074 43.025 32.1H35.525C34.4476 32.0899 33.3806 32.312 32.3968 32.7513C31.4129 33.1906 30.5353 33.8367 29.8236 34.6457C29.1119 35.4547 28.5828 36.4075 28.2725 37.4393C27.9621 38.4711 27.8777 39.5577 28.025 40.625C29.3569 51.0985 34.1401 60.8297 41.6191 68.2816C49.0982 75.7335 58.8468 80.4813 69.325 81.775H70.275C72.1185 81.7777 73.8985 81.1013 75.275 79.875C76.0659 79.1676 76.6977 78.3005 77.1287 77.3308C77.5596 76.3612 77.7799 75.3111 77.775 74.25V66.75C77.7444 65.0135 77.112 63.3414 75.9859 62.0192C74.8597 60.697 73.3095 59.8066 71.6 59.5V59.5ZM72.85 74.5C72.8496 74.855 72.7735 75.2058 72.627 75.5291C72.4804 75.8524 72.2667 76.1407 72 76.375C71.7207 76.6162 71.394 76.7964 71.041 76.904C70.688 77.0116 70.3164 77.0443 69.95 77C60.5873 75.7995 51.8906 71.5162 45.2318 64.8257C38.573 58.1352 34.331 49.4183 33.175 40.05C33.1352 39.6838 33.1701 39.3133 33.2775 38.961C33.3849 38.6086 33.5627 38.2817 33.8 38C34.0343 37.7333 34.3227 37.5196 34.646 37.373C34.9692 37.2265 35.32 37.1505 35.675 37.15H43.175C43.7564 37.1371 44.3241 37.3272 44.7804 37.6877C45.2367 38.0482 45.553 38.5564 45.675 39.125C45.775 39.8083 45.9 40.4833 46.05 41.15C46.3388 42.4679 46.7232 43.763 47.2 45.025L43.7 46.65C43.4008 46.7873 43.1316 46.9824 42.9079 47.224C42.6842 47.4656 42.5105 47.749 42.3967 48.058C42.2829 48.3669 42.2312 48.6953 42.2446 49.0243C42.2581 49.3533 42.3364 49.6764 42.475 49.975C46.073 57.6819 52.2681 63.877 59.975 67.475C60.5837 67.7251 61.2664 67.7251 61.875 67.475C62.1868 67.3635 62.4733 67.1911 62.7179 66.968C62.9626 66.7448 63.1604 66.4753 63.3 66.175L64.85 62.675C66.1424 63.1372 67.4615 63.5212 68.8 63.825C69.4667 63.975 70.1417 64.1 70.825 64.2C71.3936 64.322 71.9019 64.6383 72.2623 65.0946C72.6228 65.5509 72.8129 66.1186 72.8 66.7L72.85 74.5Z" fill="#5C5C5C"/>
</svg>
