<svg width="108" height="109" viewBox="0 0 108 109" fill="none" xmlns="http://www.w3.org/2000/svg">
<circle cx="54" cy="54.2629" r="54" fill="#D9D9D9"/>
<path d="M59 44.2629H61.5C62.163 44.2629 62.7989 43.9995 63.2678 43.5307C63.7366 43.0619 64 42.426 64 41.7629C64 41.0999 63.7366 40.464 63.2678 39.9952C62.7989 39.5263 62.163 39.2629 61.5 39.2629H59C58.337 39.2629 57.7011 39.5263 57.2322 39.9952C56.7634 40.464 56.5 41.0999 56.5 41.7629C56.5 42.426 56.7634 43.0619 57.2322 43.5307C57.7011 43.9995 58.337 44.2629 59 44.2629V44.2629ZM59 54.2629H61.5C62.163 54.2629 62.7989 53.9995 63.2678 53.5307C63.7366 53.0619 64 52.426 64 51.7629C64 51.0999 63.7366 50.464 63.2678 49.9952C62.7989 49.5263 62.163 49.2629 61.5 49.2629H59C58.337 49.2629 57.7011 49.5263 57.2322 49.9952C56.7634 50.464 56.5 51.0999 56.5 51.7629C56.5 52.426 56.7634 53.0619 57.2322 53.5307C57.7011 53.9995 58.337 54.2629 59 54.2629V54.2629ZM46.5 44.2629H49C49.663 44.2629 50.2989 43.9995 50.7678 43.5307C51.2366 43.0619 51.5 42.426 51.5 41.7629C51.5 41.0999 51.2366 40.464 50.7678 39.9952C50.2989 39.5263 49.663 39.2629 49 39.2629H46.5C45.837 39.2629 45.2011 39.5263 44.7322 39.9952C44.2634 40.464 44 41.0999 44 41.7629C44 42.426 44.2634 43.0619 44.7322 43.5307C45.2011 43.9995 45.837 44.2629 46.5 44.2629V44.2629ZM46.5 54.2629H49C49.663 54.2629 50.2989 53.9995 50.7678 53.5307C51.2366 53.0619 51.5 52.426 51.5 51.7629C51.5 51.0999 51.2366 50.464 50.7678 49.9952C50.2989 49.5263 49.663 49.2629 49 49.2629H46.5C45.837 49.2629 45.2011 49.5263 44.7322 49.9952C44.2634 50.464 44 51.0999 44 51.7629C44 52.426 44.2634 53.0619 44.7322 53.5307C45.2011 53.9995 45.837 54.2629 46.5 54.2629V54.2629ZM76.5 74.2629H74V31.7629C74 31.0999 73.7366 30.464 73.2678 29.9952C72.7989 29.5263 72.163 29.2629 71.5 29.2629H36.5C35.837 29.2629 35.2011 29.5263 34.7322 29.9952C34.2634 30.464 34 31.0999 34 31.7629V74.2629H31.5C30.837 74.2629 30.2011 74.5263 29.7322 74.9952C29.2634 75.464 29 76.0999 29 76.7629C29 77.426 29.2634 78.0619 29.7322 78.5307C30.2011 78.9995 30.837 79.2629 31.5 79.2629H76.5C77.163 79.2629 77.7989 78.9995 78.2678 78.5307C78.7366 78.0619 79 77.426 79 76.7629C79 76.0999 78.7366 75.464 78.2678 74.9952C77.7989 74.5263 77.163 74.2629 76.5 74.2629ZM56.5 74.2629H51.5V64.2629H56.5V74.2629ZM69 74.2629H61.5V61.7629C61.5 61.0999 61.2366 60.464 60.7678 59.9952C60.2989 59.5263 59.663 59.2629 59 59.2629H49C48.337 59.2629 47.7011 59.5263 47.2322 59.9952C46.7634 60.464 46.5 61.0999 46.5 61.7629V74.2629H39V34.2629H69V74.2629Z" fill="#5C5C5C"/>
</svg>
