<svg width="108" height="108" viewBox="0 0 108 108" fill="none" xmlns="http://www.w3.org/2000/svg">
<circle cx="54" cy="54" r="54" fill="#D9D9D9"/>
<path d="M37.5 69H48.1C48.429 69.0019 48.7552 68.9388 49.0598 68.8144C49.3644 68.69 49.6414 68.5067 49.875 68.275L67.175 50.95L74.275 44C74.5093 43.7676 74.6953 43.4911 74.8222 43.1864C74.9492 42.8818 75.0145 42.555 75.0145 42.225C75.0145 41.8949 74.9492 41.5682 74.8222 41.2635C74.6953 40.9589 74.5093 40.6824 74.275 40.45L63.675 29.725C63.4426 29.4906 63.1661 29.3047 62.8614 29.1777C62.5568 29.0508 62.23 28.9855 61.9 28.9855C61.57 28.9855 61.2432 29.0508 60.9386 29.1777C60.6339 29.3047 60.3574 29.4906 60.125 29.725L53.075 36.8L35.725 54.125C35.4933 54.3586 35.31 54.6356 35.1856 54.9402C35.0612 55.2448 34.9981 55.571 35 55.9V66.5C35 67.163 35.2634 67.7989 35.7322 68.2677C36.2011 68.7366 36.837 69 37.5 69ZM61.9 35.025L68.975 42.1L65.425 45.65L58.35 38.575L61.9 35.025ZM40 56.925L54.825 42.1L61.9 49.175L47.075 64H40V56.925ZM77.5 74H32.5C31.837 74 31.2011 74.2634 30.7322 74.7322C30.2634 75.201 30 75.8369 30 76.5C30 77.163 30.2634 77.7989 30.7322 78.2677C31.2011 78.7366 31.837 79 32.5 79H77.5C78.163 79 78.7989 78.7366 79.2678 78.2677C79.7366 77.7989 80 77.163 80 76.5C80 75.8369 79.7366 75.201 79.2678 74.7322C78.7989 74.2634 78.163 74 77.5 74Z" fill="#5C5C5C"/>
</svg>
