<svg width="51" height="50" viewBox="0 0 51 50" fill="none" xmlns="http://www.w3.org/2000/svg">
<path d="M25.5 0C20.5555 0 15.722 1.46622 11.6108 4.21326C7.49953 6.9603 4.29521 10.8648 2.40302 15.4329C0.510832 20.0011 0.0157487 25.0277 0.980379 29.8773C1.94501 34.7268 4.32603 39.1814 7.82234 42.6777C11.3187 46.174 15.7732 48.555 20.6228 49.5196C25.4723 50.4843 30.4989 49.9892 35.0671 48.097C39.6353 46.2048 43.5397 43.0005 46.2867 38.8893C49.0338 34.778 50.5 29.9445 50.5 25C50.5 21.717 49.8534 18.4661 48.597 15.4329C47.3406 12.3998 45.4991 9.6438 43.1777 7.32233C40.8562 5.00087 38.1002 3.15938 35.0671 1.90301C32.034 0.646644 28.7831 0 25.5 0V0ZM25.5 45C21.5444 45 17.6776 43.827 14.3886 41.6294C11.0996 39.4318 8.53617 36.3082 7.02242 32.6537C5.50867 28.9991 5.1126 24.9778 5.88431 21.0982C6.65601 17.2186 8.56083 13.6549 11.3579 10.8579C14.1549 8.06081 17.7186 6.156 21.5982 5.38429C25.4778 4.61259 29.4992 5.00866 33.1537 6.52241C36.8082 8.03616 39.9318 10.5996 42.1294 13.8886C44.327 17.1776 45.5 21.0444 45.5 25C45.5 30.3043 43.3929 35.3914 39.6421 39.1421C35.8914 42.8929 30.8043 45 25.5 45V45ZM33.25 26.575L28 23.55V12.5C28 11.837 27.7366 11.2011 27.2678 10.7322C26.7989 10.2634 26.1631 10 25.5 10C24.837 10 24.2011 10.2634 23.7322 10.7322C23.2634 11.2011 23 11.837 23 12.5V25C23 25 23 25.2 23 25.3C23.0148 25.4723 23.057 25.641 23.125 25.8C23.1765 25.9483 23.2435 26.0908 23.325 26.225C23.3934 26.3671 23.4773 26.5012 23.575 26.625L23.975 26.95L24.2 27.175L30.7 30.925C31.081 31.141 31.5121 31.253 31.95 31.25C32.5036 31.2539 33.0427 31.0739 33.483 30.7383C33.9232 30.4028 34.2397 29.9306 34.3826 29.3958C34.5256 28.8611 34.4871 28.294 34.2731 27.7834C34.059 27.2729 33.6816 26.8479 33.2 26.575H33.25Z" fill="#FFF9EF"/>
</svg>
