<svg width="40" height="40" viewBox="0 0 40 40" fill="none" xmlns="http://www.w3.org/2000/svg">
<g clip-path="url(#clip0_313_391)">
<path fill-rule="evenodd" clip-rule="evenodd" d="M18.4894 12.0396C19.8877 12.114 21.1958 12.6717 21.9824 13.1644C22.1331 13.2588 22.2175 13.4303 22.2002 13.6072C21.8646 17.0398 22.177 18.7502 22.517 19.4881C22.5665 19.5955 22.634 19.6272 22.7093 19.6314C22.8029 19.6365 22.9426 19.5946 23.0695 19.4666C23.6575 18.8735 24.3619 17.8383 25.0293 16.7209C25.6906 15.6134 26.2939 14.4619 26.6817 13.6644C26.7601 13.503 26.9238 13.4006 27.1032 13.4006H33.4205C33.5552 13.4006 33.6834 13.4586 33.7724 13.5597C33.8614 13.6609 33.9025 13.7954 33.8854 13.929C33.8119 14.5017 33.5472 15.177 33.1996 15.8678C32.8473 16.5677 32.3903 17.3214 31.9 18.0599C31.0326 19.3666 30.0462 20.6484 29.3137 21.5378L33.2589 25.5737C34.3227 26.662 33.5517 28.4939 32.0298 28.4939H26.7874C26.6574 28.4939 26.5333 28.4399 26.4447 28.3449C25.9231 27.786 25.0935 26.9321 24.3029 26.1896C23.9071 25.818 23.5266 25.4795 23.2024 25.2211C22.9166 24.9933 22.7137 24.8604 22.5972 24.8036C22.5794 24.8217 22.5551 24.8499 22.5237 24.8931C22.3976 25.0671 22.2615 25.3592 22.129 25.7403C21.8679 26.4913 21.6679 27.446 21.5649 28.0983C21.5331 28.3 21.3743 28.4578 21.1724 28.4886C17.1032 29.108 13.6765 26.9196 11.0527 23.9889C8.42439 21.0532 6.52416 17.2934 5.48221 14.5466C5.2081 13.8241 5.75873 13.0929 6.49916 13.0929H11.6261C11.82 13.0929 11.9939 13.2123 12.0636 13.3933C13.2543 16.4868 14.7833 18.48 15.7442 19.4404C15.7605 19.4567 15.7712 19.4598 15.7739 19.4605C15.7777 19.4614 15.7814 19.4614 15.7857 19.4601C15.7902 19.4588 15.7962 19.4557 15.8024 19.4491C15.808 19.4432 15.8173 19.4305 15.8234 19.4055C16.0133 18.6207 16.2111 17.4861 16.2111 16.3312C16.2111 15.5986 15.9497 15.1977 15.6723 14.9707C15.3755 14.7278 15.0123 14.6459 14.7847 14.6459C14.6073 14.6459 14.4452 14.5458 14.3657 14.3872C14.2862 14.2287 14.303 14.0388 14.4091 13.8967C15.5344 12.3891 17.071 11.964 18.4894 12.0396ZM22.6336 24.7745C22.6336 24.7754 22.6295 24.7785 22.6216 24.7814C22.6297 24.7751 22.6337 24.7737 22.6336 24.7745ZM15.6706 13.8911C15.8723 13.9742 16.076 14.0896 16.266 14.2452C16.7783 14.6644 17.1486 15.3405 17.1486 16.3312C17.1486 17.5829 16.9358 18.7948 16.7345 19.6261C16.5546 20.3693 15.6538 20.6756 15.0814 20.1035C14.0596 19.0821 12.526 17.0756 11.3066 14.0304H6.49916C6.38224 14.0304 6.32878 14.1351 6.35876 14.2141C7.37522 16.8937 9.22412 20.541 11.7511 23.3635C14.2044 26.1036 17.2242 27.9923 20.6976 27.6057C20.815 26.9545 21.0024 26.1257 21.2435 25.4324C21.3847 25.0262 21.5566 24.6298 21.7648 24.3428C21.9506 24.0865 22.3192 23.7219 22.826 23.8865C23.1074 23.9779 23.4545 24.2232 23.7867 24.488C24.139 24.7687 24.5402 25.1265 24.9446 25.5062C25.6866 26.2029 26.4578 26.9913 26.9904 27.5564H32.0298C32.7216 27.5564 33.072 26.7237 32.5885 26.229L28.3473 21.8904C28.1784 21.7176 28.1686 21.4447 28.3246 21.2601C29.0525 20.3989 30.1624 18.9825 31.119 17.5414C31.5973 16.8208 32.0326 16.1012 32.3621 15.4464C32.57 15.0334 32.7284 14.6603 32.8312 14.3381H27.3951C26.9996 15.1339 26.4415 16.1844 25.8342 17.2015C25.163 18.3255 24.4097 19.4463 23.7353 20.1266C23.4458 20.4187 23.0538 20.5892 22.6578 20.5675C22.2435 20.5447 21.8636 20.3102 21.6656 19.8804C21.2304 18.936 20.9446 17.099 21.2392 13.814C20.5403 13.4251 19.5084 13.0326 18.4395 12.9757C17.4696 12.9241 16.4871 13.1465 15.6706 13.8911Z" fill="#EBD1B2"/>
<path fill-rule="evenodd" clip-rule="evenodd" d="M33.75 1.5625H6.25C3.66116 1.5625 1.5625 3.66116 1.5625 6.25V33.75C1.5625 36.3388 3.66116 38.4375 6.25 38.4375H33.75C36.3388 38.4375 38.4375 36.3388 38.4375 33.75V6.25C38.4375 3.66116 36.3388 1.5625 33.75 1.5625ZM6.25 0.625C3.1434 0.625 0.625 3.1434 0.625 6.25V33.75C0.625 36.8566 3.1434 39.375 6.25 39.375H33.75C36.8566 39.375 39.375 36.8566 39.375 33.75V6.25C39.375 3.1434 36.8566 0.625 33.75 0.625H6.25Z" fill="#FFF9EF"/>
</g>
<defs>
<clipPath id="clip0_313_391">
<rect width="40" height="40" fill="white"/>
</clipPath>
</defs>
</svg>
