<svg width="60" height="60" viewBox="0 0 60 60" fill="none" xmlns="http://www.w3.org/2000/svg">
<path d="M30 5C23.591 5.01828 17.4337 7.49728 12.8 11.925V7.5C12.8 6.83696 12.5366 6.20107 12.0678 5.73223C11.5989 5.26339 10.963 5 10.3 5C9.63696 5 9.00107 5.26339 8.53223 5.73223C8.06339 6.20107 7.8 6.83696 7.8 7.5V18.75C7.8 19.413 8.06339 20.0489 8.53223 20.5178C9.00107 20.9866 9.63696 21.25 10.3 21.25H21.55C22.213 21.25 22.8489 20.9866 23.3178 20.5178C23.7866 20.0489 24.05 19.413 24.05 18.75C24.05 18.087 23.7866 17.4511 23.3178 16.9822C22.8489 16.5134 22.213 16.25 21.55 16.25H15.55C18.7644 12.8909 23.0488 10.7566 27.6663 10.2142C32.2839 9.67171 36.9462 10.7549 40.8516 13.2776C44.7571 15.8003 47.6616 19.6048 49.0658 24.037C50.4701 28.4692 50.2863 33.2521 48.546 37.5635C46.8058 41.8749 43.6179 45.4452 39.5304 47.6608C35.4429 49.8763 30.7112 50.5985 26.1489 49.7033C21.5866 48.8081 17.4787 46.3514 14.5315 42.7555C11.5843 39.1596 9.98197 34.6493 10 30C10 29.337 9.73661 28.7011 9.26777 28.2322C8.79893 27.7634 8.16304 27.5 7.5 27.5C6.83696 27.5 6.20107 27.7634 5.73223 28.2322C5.26339 28.7011 5 29.337 5 30C5 34.9445 6.46622 39.778 9.21326 43.8893C11.9603 48.0005 15.8648 51.2048 20.4329 53.097C25.0011 54.9892 30.0277 55.4843 34.8773 54.5196C39.7268 53.555 44.1814 51.174 47.6777 47.6777C51.174 44.1814 53.555 39.7268 54.5196 34.8773C55.4843 30.0277 54.9892 25.0011 53.097 20.4329C51.2048 15.8648 48.0005 11.9603 43.8893 9.21326C39.778 6.46622 34.9445 5 30 5ZM30 20C29.337 20 28.7011 20.2634 28.2322 20.7322C27.7634 21.2011 27.5 21.837 27.5 22.5V30C27.5 30.663 27.7634 31.2989 28.2322 31.7678C28.7011 32.2366 29.337 32.5 30 32.5H35C35.663 32.5 36.2989 32.2366 36.7678 31.7678C37.2366 31.2989 37.5 30.663 37.5 30C37.5 29.337 37.2366 28.7011 36.7678 28.2322C36.2989 27.7634 35.663 27.5 35 27.5H32.5V22.5C32.5 21.837 32.2366 21.2011 31.7678 20.7322C31.2989 20.2634 30.663 20 30 20Z" fill="#FFF9EF"/>
</svg>
