<svg width="80" height="80" viewBox="0 0 80 80" fill="none" xmlns="http://www.w3.org/2000/svg">
<path fill-rule="evenodd" clip-rule="evenodd" d="M70.2028 17.1875C68.2832 17.1875 66.9276 19.0682 67.5347 20.8894L69.6394 27.2035C69.6713 27.2991 69.6875 27.3992 69.6875 27.5V31.875C69.6875 32.7379 70.3871 33.4375 71.25 33.4375H73.75C74.6129 33.4375 75.3125 32.7379 75.3125 31.875V27.5C75.3125 27.4152 75.324 27.3308 75.3467 27.2491L77.1512 20.7527C77.649 18.9606 76.3013 17.1875 74.4413 17.1875H70.2028ZM65.7559 21.4823C64.7441 18.447 67.0034 15.3125 70.2028 15.3125H74.4413C77.5413 15.3125 79.7875 18.2677 78.9578 21.2546L77.1875 27.6278V31.875C77.1875 33.7735 75.6485 35.3125 73.75 35.3125H73.4375V57.5C73.4375 63.5406 68.5406 68.4375 62.5 68.4375H58.125C57.6072 68.4375 57.1875 68.0178 57.1875 67.5C57.1875 66.9822 57.6072 66.5625 58.125 66.5625H62.5C67.5051 66.5625 71.5625 62.5051 71.5625 57.5V35.3125H71.25C69.3515 35.3125 67.8125 33.7735 67.8125 31.875V27.6521L65.7559 21.4823Z" fill="#AE8452"/>
<path fill-rule="evenodd" clip-rule="evenodd" d="M4.0625 68.125C4.0625 67.6072 4.48223 67.1875 5 67.1875H8.125C8.64277 67.1875 9.0625 67.6072 9.0625 68.125C9.0625 68.6428 8.64277 69.0625 8.125 69.0625H5C4.48223 69.0625 4.0625 68.6428 4.0625 68.125ZM44.6875 68.125C44.6875 67.6072 45.1072 67.1875 45.625 67.1875H53.125C53.6428 67.1875 54.0625 67.6072 54.0625 68.125C54.0625 68.6428 53.6428 69.0625 53.125 69.0625H45.625C45.1072 69.0625 44.6875 68.6428 44.6875 68.125Z" fill="#AE8452"/>
<path fill-rule="evenodd" clip-rule="evenodd" d="M69.6393 14.0475C69.638 14.0513 69.6367 14.0552 69.6354 14.059C69.6351 14.0596 69.635 14.06 69.6349 14.0603C69.6346 14.0611 69.6346 14.0612 69.6354 14.059L69.6372 14.0535L69.6383 14.0503L69.6393 14.0475ZM74.1151 14.0591C74.114 14.0562 74.1113 14.0492 74.1068 14.0387C74.0961 14.0137 74.0757 13.9695 74.044 13.9123C73.98 13.7971 73.8736 13.6367 73.7123 13.4754C73.4076 13.1706 72.8603 12.8125 71.8752 12.8125C70.8901 12.8125 70.3429 13.1706 70.0381 13.4754C69.8768 13.6367 69.7705 13.7971 69.7065 13.9123C69.6747 13.9695 69.6544 14.0137 69.6437 14.0387C69.6392 14.0491 69.6365 14.056 69.6354 14.059C69.4668 14.5422 68.9408 14.8017 68.4538 14.6394C67.9626 14.4757 67.6971 13.9447 67.8608 13.4535L68.7502 13.75C67.8608 13.4535 67.8607 13.4541 67.8608 13.4535L67.8616 13.4514L67.8624 13.449L67.8642 13.4437L67.8686 13.4311C67.8719 13.4218 67.876 13.4106 67.8809 13.3976C67.8906 13.3718 67.9036 13.339 67.9203 13.3001C67.9535 13.2226 68.0015 13.1204 68.0674 13.0017C68.1987 12.7654 68.4049 12.457 68.7123 12.1496C69.3451 11.5169 70.3603 10.9375 71.8752 10.9375C73.3901 10.9375 74.4054 11.5169 75.0382 12.1496C75.3456 12.457 75.5518 12.7654 75.683 13.0017C75.749 13.1204 75.797 13.2226 75.8302 13.3001C75.8468 13.339 75.8599 13.3718 75.8696 13.3976C75.8745 13.4106 75.8786 13.4218 75.8819 13.4311L75.8863 13.4437L75.8881 13.449L75.8889 13.4514C75.8891 13.4519 75.8896 13.4535 75.0002 13.75L75.8896 13.4535C76.0534 13.9447 75.7879 14.4757 75.2967 14.6394C74.8097 14.8017 74.2837 14.5422 74.1151 14.0591Z" fill="#972A29"/>
<path fill-rule="evenodd" clip-rule="evenodd" d="M67.1046 11.6359C66.8917 12.1072 66.3373 12.3172 65.8655 12.1049C65.3934 11.8925 65.1828 11.3374 65.3953 10.8653L66.2501 11.2499C65.3953 10.8653 65.3956 10.8646 65.3959 10.864L65.3965 10.8627L65.3978 10.8598L65.4007 10.8534L65.4081 10.8378C65.4137 10.8262 65.4205 10.8122 65.4288 10.796C65.4454 10.7636 65.4675 10.7221 65.4959 10.6731C65.5526 10.575 65.6345 10.446 65.7463 10.2969C65.9703 9.99824 66.3145 9.61901 66.8172 9.24667C67.8342 8.4933 69.4395 7.8125 71.8752 7.8125C74.3109 7.8125 75.9162 8.4933 76.9333 9.24667C77.4359 9.61901 77.7802 9.99824 78.0041 10.2969C78.116 10.446 78.1978 10.575 78.2546 10.6731C78.283 10.7221 78.3051 10.7636 78.3217 10.796C78.3299 10.8122 78.3368 10.8262 78.3424 10.8378L78.3497 10.8534L78.3527 10.8598L78.354 10.8627L78.3546 10.864C78.3549 10.8646 78.3552 10.8653 77.5233 11.2396L78.3552 10.8653C78.5676 11.3374 78.3571 11.8925 77.885 12.1049C77.4172 12.3154 76.868 12.1107 76.6513 11.6478C76.6491 11.6435 76.6427 11.6312 76.6316 11.6121C76.6093 11.5734 76.5681 11.5071 76.5041 11.4219C76.3765 11.2518 76.1583 11.006 75.8172 10.7533C75.1467 10.2567 73.9395 9.6875 71.8752 9.6875C69.8109 9.6875 68.6037 10.2567 67.9333 10.7533C67.5922 11.006 67.3739 11.2518 67.2463 11.4219C67.1824 11.5071 67.1412 11.5734 67.1188 11.6121C67.1077 11.6314 67.1013 11.6437 67.0991 11.6479C67.0981 11.6499 67.0981 11.65 67.0991 11.6479L67.1014 11.643L67.1031 11.6393L67.1041 11.6371L67.1046 11.6359Z" fill="#972A29"/>
<path fill-rule="evenodd" clip-rule="evenodd" d="M56.25 63.125H2.5C2.15482 63.125 1.875 63.4048 1.875 63.75V71.25C1.875 71.5952 2.15482 71.875 2.5 71.875H56.25C56.5952 71.875 56.875 71.5952 56.875 71.25V63.75C56.875 63.4048 56.5952 63.125 56.25 63.125ZM2.5 61.25C1.11929 61.25 0 62.3693 0 63.75V71.25C0 72.6307 1.11929 73.75 2.5 73.75H56.25C57.6307 73.75 58.75 72.6307 58.75 71.25V63.75C58.75 62.3693 57.6307 61.25 56.25 61.25H2.5Z" fill="#972A29"/>
<path fill-rule="evenodd" clip-rule="evenodd" d="M50 15.625H8.75C8.40482 15.625 8.125 15.9048 8.125 16.25V45C8.125 45.3452 8.40482 45.625 8.75 45.625H50C50.3452 45.625 50.625 45.3452 50.625 45V16.25C50.625 15.9048 50.3452 15.625 50 15.625ZM8.75 13.75C7.36929 13.75 6.25 14.8693 6.25 16.25V45C6.25 46.3807 7.36929 47.5 8.75 47.5H50C51.3807 47.5 52.5 46.3807 52.5 45V16.25C52.5 14.8693 51.3807 13.75 50 13.75H8.75Z" fill="#972A29"/>
<path fill-rule="evenodd" clip-rule="evenodd" d="M52.5 8.125H6.25C3.83375 8.125 1.875 10.0838 1.875 12.5V47.5C1.875 49.9162 3.83375 51.875 6.25 51.875H52.5C54.9162 51.875 56.875 49.9162 56.875 47.5V12.5C56.875 10.0838 54.9162 8.125 52.5 8.125ZM6.25 6.25C2.79822 6.25 0 9.04822 0 12.5V47.5C0 50.9518 2.79822 53.75 6.25 53.75H52.5C55.9518 53.75 58.75 50.9518 58.75 47.5V12.5C58.75 9.04822 55.9518 6.25 52.5 6.25H6.25Z" fill="#972A29"/>
<path fill-rule="evenodd" clip-rule="evenodd" d="M36.875 53.75H21.875V61.25H36.875V53.75ZM20 52.5V62.5H38.75V52.5H20Z" fill="#972A29"/>
<path fill-rule="evenodd" clip-rule="evenodd" d="M21.598 19.1294C21.1365 18.9454 20.6108 19.1532 20.4006 19.6035L11.6507 38.3535C11.4359 38.8138 11.6267 39.3614 12.0809 39.5885L12.5002 38.75C12.0809 39.5885 12.0807 39.5884 12.0809 39.5885L12.0838 39.59L12.0895 39.5928L12.1089 39.6024L12.18 39.6369C12.2415 39.6664 12.3309 39.7089 12.4467 39.7623C12.6783 39.8692 13.0158 40.0203 13.4468 40.2007C14.3085 40.5614 15.5462 41.0404 17.0616 41.519C20.0864 42.4742 24.2484 43.4375 28.7502 43.4375C33.2467 43.4375 37.7152 42.4761 41.039 41.5264C42.7056 41.0503 44.0949 40.574 45.0696 40.2159C45.5571 40.0369 45.9414 39.8872 46.2053 39.7816C46.3373 39.7288 46.4392 39.687 46.509 39.6581L46.5892 39.6246L46.6107 39.6155L46.6185 39.6121C46.6187 39.612 46.6195 39.6117 46.2502 38.75L46.6185 39.6121C46.8476 39.5139 47.0292 39.3281 47.1213 39.0964C47.2135 38.8648 47.2095 38.606 47.1104 38.3772L38.9854 19.6272C38.803 19.2064 38.3429 18.9793 37.8979 19.0905M37.8979 19.0905L37.8957 19.091L37.8863 19.0933L37.8467 19.103C37.8111 19.1117 37.7574 19.1246 37.6871 19.1411C37.5464 19.1742 37.3389 19.2219 37.0757 19.2794C36.5491 19.3943 35.8007 19.5478 34.9177 19.7014C33.1438 20.0099 30.8602 20.3125 28.7502 20.3125C26.6502 20.3125 24.8486 20.0122 23.5743 19.7124C22.938 19.5627 22.4356 19.4137 22.0961 19.3035C21.9264 19.2485 21.7976 19.2033 21.7134 19.1727C21.6713 19.1573 21.6404 19.1457 21.621 19.1383L21.6008 19.1305L21.598 19.1294C21.598 19.1294 21.598 19.1294 21.598 19.1294M45.0063 38.2373C44.8347 38.303 44.6397 38.3763 44.423 38.4559C43.4836 38.801 42.1386 39.2622 40.5239 39.7236C37.2852 40.6489 33.0037 41.5625 28.7502 41.5625C24.502 41.5625 20.539 40.6508 17.6263 39.731C16.1729 39.2721 14.9888 38.8136 14.1708 38.4712C14.0169 38.4067 13.8761 38.3465 13.7489 38.2911L21.744 21.1588C22.1069 21.271 22.5792 21.4045 23.1448 21.5376C24.5268 21.8628 26.4752 22.1875 28.7502 22.1875C31.0152 22.1875 33.4191 21.8651 35.239 21.5486C36.1529 21.3897 36.9279 21.2307 37.4754 21.1113C37.5097 21.1038 37.543 21.0965 37.5755 21.0893L45.0063 38.2373Z" fill="#AE8452"/>
</svg>
