<svg width="80" height="80" viewBox="0 0 80 80" fill="none" xmlns="http://www.w3.org/2000/svg">
<path d="M2.14286 11.7704C2.14286 9.21202 4.22153 7.13803 6.78571 7.13803H58.2143C60.7785 7.13803 62.8571 9.21202 62.8571 11.7704V39.5648C62.8571 40.1552 63.3368 40.6338 63.9286 40.6338C64.5203 40.6338 65 40.1552 65 39.5648V11.7704C65 8.03122 61.9619 5 58.2143 5H6.78571C3.03807 5 0 8.03122 0 11.7704V45.2662C0 49.0054 3.03807 52.0366 6.78571 52.0366H12.5C12.6972 52.0366 12.8571 52.1961 12.8571 52.3929V60.0008C12.8571 62.1271 15.3525 63.2784 16.9763 61.9014L28.5081 52.1214C28.5727 52.0667 28.6547 52.0366 28.7394 52.0366H40.625C41.2167 52.0366 41.6964 51.558 41.6964 50.9676C41.6964 50.3772 41.2167 49.8986 40.625 49.8986H28.7394C28.1462 49.8986 27.5723 50.109 27.1203 50.4924L15.5884 60.2723C15.3565 60.4691 15 60.3046 15 60.0008V52.3929C15 51.0153 13.8807 49.8986 12.5 49.8986H6.78571C4.22154 49.8986 2.14286 47.8246 2.14286 45.2662V11.7704Z" fill="#972A29"/>
<path fill-rule="evenodd" clip-rule="evenodd" d="M29.4644 40.9901H34.1072C36.0797 40.9901 37.6786 39.3947 37.6786 37.4267V34.0415H41.0714C43.0439 34.0415 44.6429 32.4462 44.6429 30.4782V25.8458C44.6429 23.8778 43.0439 22.2824 41.0714 22.2824H37.6786V18.8972C37.6786 16.9292 36.0797 15.3338 34.1072 15.3338H29.4644C27.4919 15.3338 25.8929 16.9292 25.8929 18.8972V22.2824H22.5C20.5276 22.2824 18.9286 23.8778 18.9286 25.8458V30.4782C18.9286 32.4462 20.5276 34.0415 22.5 34.0415H25.8929V37.4267C25.8929 39.3947 27.4919 40.9901 29.4644 40.9901ZM28.0358 37.4267C28.0358 38.2139 28.6754 38.8521 29.4644 38.8521H34.1072C34.8962 38.8521 35.5358 38.2139 35.5358 37.4267V33.3289C35.5358 32.5417 36.1754 31.9035 36.9644 31.9035H41.0714C41.8604 31.9035 42.5 31.2654 42.5 30.4782V25.8458C42.5 25.0586 41.8604 24.4204 41.0714 24.4204H36.9644C36.1754 24.4204 35.5358 23.7823 35.5358 22.9951V18.8972C35.5358 18.11 34.8962 17.4718 34.1072 17.4718H29.4644C28.6754 17.4718 28.0358 18.11 28.0358 18.8972V22.9951C28.0358 23.7823 27.3962 24.4204 26.6072 24.4204H22.5C21.711 24.4204 21.0714 25.0586 21.0714 25.8458V30.4782C21.0714 31.2654 21.711 31.9035 22.5 31.9035H26.6072C27.3962 31.9035 28.0358 32.5417 28.0358 33.3289V37.4267Z" fill="#972A29"/>
<path d="M47.5 48.6253C47.5 48.0409 47.9797 47.5672 48.5714 47.5672H71.4286C72.0203 47.5672 72.5 48.0409 72.5 48.6253C72.5 49.2096 72.0203 49.6833 71.4286 49.6833H48.5714C47.9797 49.6833 47.5 49.2096 47.5 48.6253Z" fill="#AE8452"/>
<path d="M48.5714 53.2102C47.9797 53.2102 47.5 53.6839 47.5 54.2683C47.5 54.8527 47.9797 55.3264 48.5714 55.3264H71.4286C72.0203 55.3264 72.5 54.8527 72.5 54.2683C72.5 53.6839 72.0203 53.2102 71.4286 53.2102H48.5714Z" fill="#AE8452"/>
<path fill-rule="evenodd" clip-rule="evenodd" d="M80 44.393V61.9922C80 65.1087 77.4416 67.6352 74.2857 67.6352H71.8182V72.3365C71.8182 73.546 70.3779 74.1947 69.453 73.4018L63.1302 67.9807C62.8704 67.7579 62.5378 67.6352 62.1937 67.6352H45.7143C42.5584 67.6352 40 65.1087 40 61.9922V44.393C40 41.2765 42.5584 38.75 45.7143 38.75H74.2857C77.4416 38.75 80 41.2765 80 44.393ZM71.8182 65.5191C70.6347 65.5191 69.6753 66.4665 69.6753 67.6352V70.79L64.5351 66.3828C63.8854 65.8258 63.054 65.5191 62.1937 65.5191H45.7143C43.7418 65.5191 42.1429 63.94 42.1429 61.9922V44.393C42.1429 42.4452 43.7418 40.8661 45.7143 40.8661H74.2857C76.2582 40.8661 77.8571 42.4452 77.8571 44.393V61.9922C77.8571 63.94 76.2582 65.5191 74.2857 65.5191H71.8182Z" fill="#AE8452"/>
</svg>
