<svg width="25" height="17" viewBox="0 0 25 17" fill="none" xmlns="http://www.w3.org/2000/svg">
<path d="M15.999 1.49951L15.999 0.499513L17.999 0.499513L17.999 1.49951C17.999 3.67439 18.6304 6.06411 19.9995 7C21.3939 7.95318 22.7506 7.98266 24.9995 8L24.9995 9C22.6982 9 21.4201 9.02894 19.9995 10C18.6304 10.9359 17.999 13.3251 17.999 15.5L17.999 16.5L15.999 16.5L15.999 15.5C15.999 12.8145 17.7407 10.3196 19.4995 9L0.012694 9.49951L-1.29539e-06 9.5L-1.12054e-06 7.5L19.4995 8C17.7411 6.68037 15.999 4.1847 15.999 1.49951Z" fill="#093A67"/>
</svg>
