<svg width="40" height="40" viewBox="0 0 40 40" fill="none" xmlns="http://www.w3.org/2000/svg">
<rect x="0.5" y="0.5" width="39" height="39" rx="3.5" fill="#FFF9EF"/>
<path d="M23.0794 13.875L23.0794 13L24.8394 13L24.8394 13.875C24.8394 15.7779 25.3951 17.8689 26.5999 18.6878C27.827 19.5218 29.0209 19.5476 31 19.5627L31 20.4377C28.9748 20.4377 27.85 20.463 26.5999 21.3127C25.3951 22.1315 24.8394 24.2221 24.8394 26.125L24.8394 27L23.0794 27L23.0794 26.125C23.0794 23.7753 24.6121 21.5923 26.1599 20.4377L9.01117 20.8748L9 20.8752L9 19.1252L26.1599 19.5627C24.6124 18.4081 23.0794 16.2244 23.0794 13.875Z" fill="#AE8452"/>
<rect x="0.5" y="0.5" width="39" height="39" rx="3.5" stroke="#AE8452"/>
</svg>
