<svg width="45" height="16" viewBox="0 0 45 16" fill="none" xmlns="http://www.w3.org/2000/svg">
<path d="M36.0883 0.999999L36.0883 1.12826e-06L38.0686 1.30138e-06L38.0686 0.999999C38.0686 3.17488 38.6937 5.5646 40.0493 6.50049C41.43 7.45367 42.7733 7.48315 45 7.50049L45 8.50049C42.7214 8.50049 41.4559 8.52943 40.0493 9.50049C38.6937 10.4364 38.0686 12.8256 38.0686 15.0005L38.0686 16.0005L36.0883 16.0005L36.0883 15.0005C36.0883 12.315 37.8128 9.82011 39.5542 8.50049L6.12002e-07 9L7.86805e-07 7.00049L39.5542 7.50049C37.8131 6.18086 36.0883 3.68519 36.0883 0.999999Z" fill="#972A29"/>
</svg>
