<svg width="35" height="35" viewBox="0 0 35 35" fill="none" xmlns="http://www.w3.org/2000/svg">
<path fill-rule="evenodd" clip-rule="evenodd" d="M5.34792 1.08838C6.51514 -0.0204725 8.35346 0.00309283 9.49187 1.1415L13.561 5.21062C14.6922 6.34183 14.7236 8.16595 13.6321 9.33547L11.4297 11.6952C11.2273 11.912 11.1704 12.2145 11.2762 12.4754C11.5836 13.2326 12.1302 14.5043 12.831 15.8248C13.5353 17.152 14.3793 18.4976 15.2745 19.4243C16.1837 20.3653 17.5222 21.2642 18.8488 22.0197C20.1686 22.7714 21.446 23.3642 22.2105 23.6998C22.4749 23.8159 22.7869 23.7617 23.0095 23.554L25.3519 21.3677C26.5214 20.2762 28.3455 20.3076 29.4767 21.4388L33.8136 25.7757C34.973 26.9351 34.973 28.8148 33.8136 29.9742L31.4554 32.3323C30.0159 33.7718 27.9703 34.5065 25.943 34.0063C21.9734 33.0268 14.7329 30.5209 8.66844 24.4564C2.44131 18.2293 1.03492 11.5255 0.753694 8.05124C0.618232 6.37775 1.3886 4.84973 2.55606 3.74065L5.34792 1.08838ZM8.82896 1.80441C8.05004 1.0255 6.79224 1.00938 5.99362 1.76807L3.20176 4.42034C2.18739 5.38399 1.58079 6.6495 1.68814 7.9756C1.95711 11.2985 3.30514 17.7673 9.33135 23.7935C15.2284 29.6905 22.2854 32.1382 26.1676 33.0961C27.827 33.5056 29.5469 32.915 30.7925 31.6694L33.1507 29.3112C33.9439 28.518 33.9439 27.2319 33.1507 26.4386L28.8138 22.1018C28.0398 21.3278 26.7917 21.3063 25.9915 22.0531L23.6492 24.2393C23.1643 24.6918 22.4554 24.8312 21.8337 24.5582C21.052 24.2151 19.7428 23.6078 18.3848 22.8343C17.0334 22.0647 15.6028 21.1134 14.6003 20.0756C13.6133 19.0539 12.7204 17.6162 12.0029 16.2642C11.2819 14.9056 10.7218 13.6022 10.4076 12.828C10.1588 12.215 10.3032 11.5281 10.7443 11.0555L12.9467 8.6958C13.6936 7.8956 13.6721 6.64752 12.8981 5.87353L8.82896 1.80441Z" fill="#FFF9EF"/>
</svg>
