<svg width="32" height="32" viewBox="0 0 32 32" fill="none" xmlns="http://www.w3.org/2000/svg">
<path d="M9.2548 22.3955C9.64297 22.4254 9.98364 22.5359 10.2773 22.7137C10.6962 22.9673 10.9892 23.3392 11.19 23.7395C11.5482 24.4531 11.6384 25.3042 11.6163 25.9304C11.8545 26.0733 12.0141 26.3352 12.0141 26.6345C12.0141 27.087 11.6496 27.4538 11.1998 27.4538C10.7501 27.4538 10.3855 27.087 10.3855 26.6345C10.3855 26.3275 10.5534 26.0599 10.8018 25.9196C10.8234 25.3822 10.7439 24.6683 10.4631 24.1087C10.3134 23.8104 10.1144 23.5712 9.85751 23.4157C9.6043 23.2624 9.26456 23.1719 8.79742 23.2189C8.3337 23.2655 8.02751 23.4247 7.81909 23.6283C7.60658 23.8359 7.46699 24.1181 7.3891 24.4541C7.24414 25.0794 7.33009 25.8201 7.4749 26.3649C7.88941 26.403 8.21408 26.7537 8.21408 27.1807C8.21408 27.6332 7.8495 28 7.39978 28C6.95006 28 6.58548 27.6332 6.58548 27.1807C6.58548 27.0089 6.63807 26.8494 6.72792 26.7177C6.54043 26.0861 6.39683 25.1276 6.59609 24.268C6.69916 23.8234 6.89886 23.3853 7.25183 23.0405C7.54878 22.7504 7.93453 22.5457 8.41375 22.4489L8.90056 20L9.69905 20.1607L9.2548 22.3955Z" fill="#AE8452"/>
<path fill-rule="evenodd" clip-rule="evenodd" d="M23.2462 23.1279C23.965 23.2982 24.5 23.9477 24.5 24.7229C24.5 25.6278 23.7709 26.3614 22.8714 26.3614C21.972 26.3614 21.2428 25.6278 21.2428 24.7229C21.2428 23.9741 21.742 23.3427 22.4238 23.147L21.9269 20.1477L22.7302 20.013L23.2462 23.1279ZM23.6857 24.7229C23.6857 25.1754 23.3211 25.5422 22.8714 25.5422C22.4217 25.5422 22.0571 25.1754 22.0571 24.7229C22.0571 24.2704 22.4217 23.9036 22.8714 23.9036C23.3211 23.9036 23.6857 24.2704 23.6857 24.7229Z" fill="#AE8452"/>
<path fill-rule="evenodd" clip-rule="evenodd" d="M12.6225 17C12.6225 17.2687 12.5616 17.7795 12.3779 18.2638C12.1909 18.7567 11.91 19.1389 11.5262 19.29C11.3914 19.3431 11.1757 19.3997 10.8758 19.4646C10.6509 19.5132 10.395 19.5632 10.1113 19.6187C10.0225 19.636 9.93093 19.6539 9.83674 19.6725C9.05441 19.8265 8.11458 20.0214 7.19597 20.3115C5.40255 20.8779 3.48004 21.8733 3.17014 23.8567C2.95114 25.2585 2.97073 26.2538 3.07697 26.9354C3.13008 27.2763 3.20536 27.5418 3.28534 27.7418C3.35529 27.9167 3.43825 28.0652 3.53089 28.1661C4.01566 28.7885 5.19503 29.6113 7.17459 30.2811C9.11983 30.9393 11.8734 31.4625 15.5946 31.4981V31.5H16H16.4054V31.4981C20.1266 31.4625 22.8802 30.9393 24.8254 30.2811C26.805 29.6113 27.9843 28.7885 28.4691 28.1661C28.5618 28.0652 28.6447 27.9167 28.7147 27.7418C28.7946 27.5418 28.8699 27.2763 28.923 26.9354C29.0293 26.2538 29.0489 25.2585 28.8299 23.8567C28.52 21.8733 26.5975 20.8779 24.804 20.3115C23.8854 20.0214 22.9456 19.8265 22.1633 19.6725C22.0691 19.6539 21.9775 19.636 21.8887 19.6187C21.605 19.5632 21.3491 19.5132 21.1242 19.4646C20.8243 19.3997 20.6086 19.3431 20.4738 19.29C20.09 19.1389 19.8091 18.7567 19.6221 18.2638C19.4384 17.7795 19.3775 17.2687 19.3775 17H18.5669C18.5669 17.3521 18.6411 17.9588 18.8627 18.5431C19.0405 19.0117 19.3349 19.5213 19.8142 19.8428C19.475 20.5656 18.8375 21.2165 18.1129 21.7568C17.3615 22.3171 16.5558 22.7292 16 22.9556C15.4442 22.7292 14.6385 22.3171 13.8871 21.7568C13.1625 21.2165 12.525 20.5656 12.1858 19.8428C12.6651 19.5213 12.9595 19.0117 13.1373 18.5431C13.3589 17.9588 13.4331 17.3521 13.4331 17H12.6225ZM16.4054 30.6999V23.6535C17.0119 23.3973 17.8319 22.9675 18.6022 22.3932C19.3801 21.8132 20.1444 21.0582 20.5615 20.1529C20.6829 20.1845 20.8138 20.2146 20.9503 20.2442C21.184 20.2947 21.4513 20.3469 21.7371 20.4028C21.8245 20.4198 21.9139 20.4373 22.0043 20.4551C22.7841 20.6087 23.685 20.7963 24.5564 21.0715C26.3432 21.6358 27.7982 22.5028 28.0287 23.9781C28.2382 25.3193 28.2128 26.2307 28.1218 26.8144C28.0763 27.1062 28.015 27.313 27.9604 27.4494C27.9156 27.5615 27.8809 27.6123 27.8724 27.6248C27.8698 27.6287 27.8696 27.6289 27.8724 27.6261L27.8521 27.6461L27.8348 27.6688C27.4999 28.1085 26.4943 28.8724 24.562 29.5262C22.7136 30.1517 20.0508 30.6644 16.4054 30.6999ZM15.5946 23.6535C14.9881 23.3973 14.1681 22.9675 13.3978 22.3932C12.6199 21.8132 11.8556 21.0582 11.4385 20.1529C11.3171 20.1845 11.1862 20.2146 11.0497 20.2442C10.816 20.2947 10.5487 20.3469 10.2629 20.4028C10.1754 20.4199 10.0862 20.4373 9.99571 20.4551C9.21593 20.6087 8.31502 20.7963 7.44355 21.0715C5.65681 21.6358 4.20182 22.5028 3.97132 23.9781C3.76178 25.3193 3.78722 26.2307 3.87819 26.8144C3.92367 27.1062 3.98505 27.313 4.03957 27.4494C4.08442 27.5615 4.1191 27.6123 4.12761 27.6248C4.13024 27.6287 4.13037 27.6289 4.12756 27.6261L4.14789 27.6461L4.16517 27.6688C4.5001 28.1085 5.50572 28.8724 7.43802 29.5262C9.2864 30.1517 11.9492 30.6644 15.5946 30.6999V23.6535Z" fill="#972A29"/>
<path fill-rule="evenodd" clip-rule="evenodd" d="M8.70415 4.53476C10.5929 1.06037 14.2993 0.499999 16.0216 0.5C16.0216 0.5 16.0216 0.5 16.0216 0.5C17.7439 0.499999 21.4503 1.06037 23.339 4.53476C24.0197 5.78691 24.0863 7.28633 23.8448 8.76658C23.9848 8.87535 24.1106 9.01386 24.2137 9.1885C24.4054 9.51344 24.5 9.93221 24.5 10.4545C24.5 11.2021 24.2642 11.8502 23.8373 12.3165C23.4679 12.72 22.9716 12.9689 22.413 13.0304C21.8719 14.1875 21.3181 15.1393 20.8141 15.8664C20.3591 16.5228 19.6451 17.1756 18.8147 17.6654C17.9846 18.1551 17.0072 18.5 16.0216 18.5C16.0216 18.5 16.0216 18.5 16.0216 18.5C15.036 18.5 14.0586 18.1551 13.2285 17.6654C12.3981 17.1756 11.6841 16.5228 11.2291 15.8664C10.7427 15.1646 10.181 14.1876 9.65315 13.0765C8.99257 13.0762 8.42337 12.6227 8.06181 12.0745C7.62499 11.4122 7.39225 10.4912 7.54889 9.56911C7.62098 9.14475 7.80083 8.82612 8.06256 8.61747C7.85822 7.16479 8.05421 5.73036 8.70415 4.53476ZM16.0216 17.6818C16.8151 17.6818 17.6446 17.401 18.385 16.9642C19.1252 16.5276 19.7455 15.9531 20.1245 15.4063C20.6302 14.6768 21.2 13.691 21.7565 12.4694C21.827 12.3148 21.9833 12.2241 22.1457 12.2273C22.5835 12.2251 22.9528 12.0583 23.2169 11.7698C23.4849 11.477 23.6661 11.0341 23.6661 10.4545C23.6661 10.0223 23.5869 9.75928 23.492 9.59844C23.4022 9.44627 23.2826 9.35828 23.1342 9.30228C22.9751 9.24227 22.7799 9.21836 22.5512 9.21443C22.4385 9.21249 22.3247 9.21537 22.2076 9.21907L22.1573 9.22069C22.0587 9.22391 21.9555 9.22727 21.8592 9.22727C21.6854 9.22727 21.5298 9.12149 21.4688 8.96182L20.6686 6.86835C20.0845 6.35516 18.4313 5.61681 16.2455 6.9815C14.065 8.34285 12.2306 7.92869 11.2276 7.31293L10.7941 8.58907C10.5938 9.17851 9.93501 9.36607 9.44219 9.22078C9.14798 9.13405 8.89196 9.12072 8.7174 9.18248C8.5852 9.22924 8.43318 9.34044 8.37148 9.70362C8.25014 10.4179 8.43435 11.1333 8.76196 11.63C9.09964 12.1421 9.49753 12.3117 9.79947 12.2408C9.99292 12.1904 10.2008 12.283 10.2859 12.4678C10.8342 13.6575 11.4254 14.6946 11.9187 15.4063C12.2977 15.9531 12.918 16.5276 13.6582 16.9642C14.3986 17.401 15.2282 17.6818 16.0216 17.6818C16.0216 17.6818 16.0216 17.6818 16.0216 17.6818ZM23.0519 8.43752C23.2384 7.12737 23.1384 5.90439 22.6032 4.91979C20.9338 1.84873 17.635 1.31818 16.0216 1.31818C16.0216 1.31818 16.0216 1.31818 16.0216 1.31818C14.4082 1.31818 11.1094 1.84873 9.43998 4.91979C8.9123 5.8905 8.7209 7.079 8.86598 8.32902C9.15419 8.31273 9.44011 8.36585 9.68218 8.43721C9.75791 8.45953 9.83904 8.45355 9.90163 8.42745C9.96091 8.40273 9.99044 8.36705 10.0029 8.33034L10.6224 6.507C10.6681 6.37249 10.7815 6.27079 10.9222 6.23822C11.0628 6.20564 11.2106 6.24684 11.3128 6.3471C11.8341 6.85854 13.529 7.70768 15.7977 6.29123C18.4215 4.65313 20.5441 5.58581 21.3201 6.3471C21.3622 6.38839 21.3948 6.43805 21.4157 6.49272L22.1456 8.40244L22.1807 8.40131C22.2993 8.39756 22.4309 8.39405 22.5658 8.39637C22.7177 8.39898 22.8833 8.40896 23.0519 8.43752Z" fill="#972A29"/>
</svg>
