<svg width="1028" height="34" viewBox="0 0 1028 34" fill="none" xmlns="http://www.w3.org/2000/svg">
<path d="M10.9001 28H7.36606V13.256L3.71806 25.036V28H0.184063V1.172H3.71806V15.498L7.36606 3.718V1.172H10.9001V28ZM33.5216 28H30.2536C30.2536 16.6 30.203 9.40533 30.1016 6.416L27.1756 28H24.1736L21.1336 6.416V28H17.8276V1.172H22.8816L25.6936 18.956L28.3156 1.172H33.5216V28ZM49.4816 28H40.6276V1.172H49.4816V4.516H44.1996V12.382H48.9116V15.726H44.2376V24.618H49.4816V28ZM72.7753 8.012V21.996C72.7753 24.3773 72.2433 26.024 71.1793 26.936C70.1153 27.8227 68.6967 28.266 66.9233 28.266C65.226 28.266 63.896 27.81 62.9333 26.898C61.996 25.9607 61.5273 24.3267 61.5273 21.996V15.536H58.9813V28H55.4473V1.172H58.9813V12.078H61.5273V7.936C61.5273 7.30267 61.5527 6.74533 61.6033 6.264C61.654 5.75733 61.7807 5.162 61.9833 4.478C62.2113 3.76867 62.5153 3.186 62.8953 2.73C63.2753 2.24867 63.8453 1.84333 64.6053 1.514C65.3653 1.15933 66.2647 0.981999 67.3033 0.981999C68.4433 0.981999 69.3933 1.172 70.1533 1.552C70.9133 1.932 71.4707 2.47666 71.8253 3.186C72.2053 3.89533 72.4587 4.63 72.5853 5.39C72.712 6.12467 72.7753 6.99867 72.7753 8.012ZM69.2793 22.148V8.05C69.2793 6.55533 69.1527 5.51666 68.8993 4.934C68.646 4.35133 68.0887 4.06 67.2273 4.06C66.7207 4.06 66.3027 4.16133 65.9733 4.364C65.6693 4.54133 65.454 4.82 65.3273 5.2C65.2007 5.58 65.1247 5.89667 65.0993 6.15C65.074 6.40333 65.0613 6.758 65.0613 7.214V22.528C65.0613 23.4147 65.188 24.1113 65.4413 24.618C65.72 25.0993 66.2773 25.34 67.1133 25.34C67.772 25.34 68.266 25.1627 68.5953 24.808C68.9247 24.4533 69.1147 24.086 69.1653 23.706C69.2413 23.326 69.2793 22.8067 69.2793 22.148ZM89.8177 4.326H85.6377V28H82.0277V4.326H77.9617V1.172H89.8177V4.326ZM106.513 16.904V21.578C106.513 26.0873 104.563 28.342 100.661 28.342C96.8614 28.342 94.9614 26.214 94.9614 21.958V8.506C94.9614 7.746 94.9867 7.07467 95.0374 6.492C95.1134 5.884 95.2654 5.21267 95.4934 4.478C95.7214 3.74333 96.0381 3.13533 96.4434 2.654C96.8741 2.17266 97.4694 1.76733 98.2294 1.438C98.9894 1.08333 99.9014 0.905998 100.965 0.905998C103.043 0.905998 104.487 1.48866 105.297 2.654C106.108 3.81933 106.513 5.428 106.513 7.48V10.9H102.979V6.758C102.979 4.90867 102.245 3.984 100.775 3.984C99.2807 3.984 98.5334 4.95933 98.5334 6.91V22.186C98.5334 23.402 98.6854 24.2253 98.9894 24.656C99.3187 25.0613 99.8887 25.264 100.699 25.264C101.611 25.264 102.207 24.9853 102.485 24.428C102.789 23.8707 102.941 23.098 102.941 22.11V16.904H106.513ZM119.129 15.574C118.268 15.5993 117.685 15.8273 117.381 16.258C117.103 16.6887 116.963 17.512 116.963 18.728V24.58C116.963 25.8213 116.697 26.708 116.165 27.24C115.659 27.7467 114.759 28 113.467 28H112.023V24.77C112.606 24.77 112.986 24.6813 113.163 24.504C113.341 24.3013 113.429 23.9213 113.429 23.364V17.702C113.429 15.6247 114.227 14.396 115.823 14.016C114.987 13.864 114.354 13.5093 113.923 12.952C113.493 12.3947 113.277 11.5207 113.277 10.33V6.378C113.277 4.25 113.632 2.83133 114.341 2.122C114.975 1.48867 115.975 1.172 117.343 1.172H123.841V28H120.307V15.574H119.129ZM120.269 12.344V4.402H118.331C117.673 4.402 117.255 4.52867 117.077 4.782C116.9 5.01 116.811 5.542 116.811 6.378V9.494C116.811 10.6847 116.925 11.4573 117.153 11.812C117.381 12.1667 117.901 12.344 118.711 12.344H120.269ZM151.914 28H148.38V4.63H145.112V28H141.578V1.172H151.914V28ZM158.776 1.172H165.692C167.11 1.172 168.073 1.476 168.58 2.084C169.086 2.692 169.34 3.718 169.34 5.162V10.862C169.34 12.838 169.137 14.168 168.732 14.852C168.352 15.5107 167.364 15.84 165.768 15.84H162.234V28H158.776V1.172ZM162.272 4.44V12.648H164.514C164.995 12.648 165.324 12.572 165.502 12.42C165.679 12.2427 165.768 11.926 165.768 11.47V5.77C165.768 5.26333 165.679 4.92133 165.502 4.744C165.324 4.54133 164.97 4.44 164.438 4.44H162.272ZM186.402 8.012V21.996C186.402 24.3773 185.87 26.024 184.806 26.936C183.742 27.8227 182.323 28.266 180.55 28.266C178.853 28.266 177.523 27.81 176.56 26.898C175.623 25.9607 175.154 24.3267 175.154 21.996V7.936C175.154 7.30267 175.179 6.74533 175.23 6.264C175.281 5.75733 175.407 5.162 175.61 4.478C175.838 3.76867 176.142 3.186 176.522 2.73C176.902 2.24867 177.472 1.84333 178.232 1.514C178.992 1.15933 179.891 0.981999 180.93 0.981999C182.07 0.981999 183.02 1.172 183.78 1.552C184.54 1.932 185.097 2.47666 185.452 3.186C185.832 3.89533 186.085 4.63 186.212 5.39C186.339 6.12467 186.402 6.99867 186.402 8.012ZM182.906 22.148V8.05C182.906 6.55533 182.779 5.51666 182.526 4.934C182.273 4.35133 181.715 4.06 180.854 4.06C180.347 4.06 179.929 4.16133 179.6 4.364C179.296 4.54133 179.081 4.82 178.954 5.2C178.827 5.58 178.751 5.89667 178.726 6.15C178.701 6.40333 178.688 6.758 178.688 7.214V22.528C178.688 23.4147 178.815 24.1113 179.068 24.618C179.347 25.0993 179.904 25.34 180.74 25.34C181.399 25.34 181.893 25.1627 182.222 24.808C182.551 24.4533 182.741 24.086 182.792 23.706C182.868 23.326 182.906 22.8067 182.906 22.148ZM203.439 4.326H199.259V28H195.649V4.326H191.583V1.172H203.439V4.326ZM219.856 28H216.322V13.256L212.674 25.036V28H209.14V1.172H212.674V15.498L216.322 3.718V1.172H219.856V28ZM226.783 1.172H233.129C234.902 1.172 236.017 1.53933 236.473 2.274C236.954 3.00867 237.195 4.42733 237.195 6.53V9.874C237.195 10.3553 237.182 10.748 237.157 11.052C237.132 11.356 237.068 11.698 236.967 12.078C236.866 12.4327 236.714 12.724 236.511 12.952C236.308 13.1547 236.017 13.3447 235.637 13.522C235.257 13.674 234.801 13.7753 234.269 13.826C235.434 13.9273 236.207 14.244 236.587 14.776C236.992 15.308 237.195 16.22 237.195 17.512V22.376C237.195 23.516 237.144 24.39 237.043 24.998C236.967 25.606 236.764 26.1633 236.435 26.67C236.131 27.1767 235.65 27.5313 234.991 27.734C234.358 27.9113 233.496 28 232.407 28H226.783V1.172ZM230.203 4.364V12.42H231.761C232.572 12.42 233.104 12.2427 233.357 11.888C233.61 11.5333 233.737 10.7607 233.737 9.57V6.91C233.737 6.02333 233.623 5.37733 233.395 4.972C233.192 4.56667 232.724 4.364 231.989 4.364H230.203ZM230.203 15.346V24.694H232.027C232.863 24.694 233.37 24.5673 233.547 24.314C233.724 24.0607 233.813 23.3387 233.813 22.148V17.892C233.813 17.0053 233.699 16.3593 233.471 15.954C233.268 15.5487 232.8 15.346 232.065 15.346H230.203ZM255.151 8.012V21.996C255.151 24.3773 254.619 26.024 253.555 26.936C252.491 27.8227 251.072 28.266 249.299 28.266C247.601 28.266 246.271 27.81 245.309 26.898C244.371 25.9607 243.903 24.3267 243.903 21.996V7.936C243.903 7.30267 243.928 6.74533 243.979 6.264C244.029 5.75733 244.156 5.162 244.359 4.478C244.587 3.76867 244.891 3.186 245.271 2.73C245.651 2.24867 246.221 1.84333 246.981 1.514C247.741 1.15933 248.64 0.981999 249.679 0.981999C250.819 0.981999 251.769 1.172 252.529 1.552C253.289 1.932 253.846 2.47666 254.201 3.186C254.581 3.89533 254.834 4.63 254.961 5.39C255.087 6.12467 255.151 6.99867 255.151 8.012ZM251.655 22.148V8.05C251.655 6.55533 251.528 5.51666 251.275 4.934C251.021 4.35133 250.464 4.06 249.603 4.06C249.096 4.06 248.678 4.16133 248.349 4.364C248.045 4.54133 247.829 4.82 247.703 5.2C247.576 5.58 247.5 5.89667 247.475 6.15C247.449 6.40333 247.437 6.758 247.437 7.214V22.528C247.437 23.4147 247.563 24.1113 247.817 24.618C248.095 25.0993 248.653 25.34 249.489 25.34C250.147 25.34 250.641 25.1627 250.971 24.808C251.3 24.4533 251.49 24.086 251.541 23.706C251.617 23.326 251.655 22.8067 251.655 22.148ZM272.327 28H268.793V4.63H265.525V28H261.991V1.172H272.327V28ZM290.36 8.012V21.996C290.36 24.3773 289.828 26.024 288.764 26.936C287.7 27.8227 286.281 28.266 284.508 28.266C282.811 28.266 281.481 27.81 280.518 26.898C279.581 25.9607 279.112 24.3267 279.112 21.996V7.936C279.112 7.30267 279.137 6.74533 279.188 6.264C279.239 5.75733 279.365 5.162 279.568 4.478C279.796 3.76867 280.1 3.186 280.48 2.73C280.86 2.24867 281.43 1.84333 282.19 1.514C282.95 1.15933 283.849 0.981999 284.888 0.981999C286.028 0.981999 286.978 1.172 287.738 1.552C288.498 1.932 289.055 2.47666 289.41 3.186C289.79 3.89533 290.043 4.63 290.17 5.39C290.297 6.12467 290.36 6.99867 290.36 8.012ZM286.864 22.148V8.05C286.864 6.55533 286.737 5.51666 286.484 4.934C286.231 4.35133 285.673 4.06 284.812 4.06C284.305 4.06 283.887 4.16133 283.558 4.364C283.254 4.54133 283.039 4.82 282.912 5.2C282.785 5.58 282.709 5.89667 282.684 6.15C282.659 6.40333 282.646 6.758 282.646 7.214V22.528C282.646 23.4147 282.773 24.1113 283.026 24.618C283.305 25.0993 283.862 25.34 284.698 25.34C285.357 25.34 285.851 25.1627 286.18 24.808C286.509 24.4533 286.699 24.086 286.75 23.706C286.826 23.326 286.864 22.8067 286.864 22.148ZM297.2 1.172H300.734V12.078H302.14C302.976 12.078 303.495 11.8373 303.698 11.356C303.901 10.8747 304.002 9.836 304.002 8.24V4.858C304.002 3.51533 304.281 2.56533 304.838 2.008C305.421 1.45067 306.32 1.172 307.536 1.172H308.942V4.288C308.334 4.288 307.941 4.45267 307.764 4.782C307.612 5.086 307.536 5.808 307.536 6.948V9.38C307.536 10.672 307.371 11.6473 307.042 12.306C306.738 12.9647 306.181 13.4207 305.37 13.674C306.257 13.8007 306.915 14.1427 307.346 14.7C307.777 15.232 307.992 16.1313 307.992 17.398V23.364C307.992 23.9213 308.081 24.3013 308.258 24.504C308.435 24.6813 308.815 24.77 309.398 24.77V28H307.954C306.662 28 305.75 27.7467 305.218 27.24C304.711 26.708 304.458 25.8213 304.458 24.58V18.69C304.458 17.4487 304.293 16.6127 303.964 16.182C303.66 15.7513 303.052 15.536 302.14 15.536H300.734V28H297.2V1.172ZM326.38 28H322.922L322.238 23.06H318.21L317.602 28H314.144L317.944 1.172H322.238L326.38 28ZM321.782 19.792L320.072 5.846L318.59 19.792H321.782ZM331.548 10.406V7.48C331.548 5.428 331.953 3.81933 332.764 2.654C333.575 1.48866 335.019 0.905998 337.096 0.905998C338.16 0.905998 339.072 1.08333 339.832 1.438C340.592 1.76733 341.175 2.17266 341.58 2.654C342.011 3.13533 342.34 3.74333 342.568 4.478C342.796 5.21267 342.935 5.884 342.986 6.492C343.062 7.07467 343.1 7.746 343.1 8.506C343.1 11.7233 342.087 13.4967 340.06 13.826C342.087 13.978 343.1 15.46 343.1 18.272V21.958C343.1 26.214 341.2 28.342 337.4 28.342C333.499 28.342 331.548 26.0873 331.548 21.578V17.664H335.12V22.11C335.12 22.7433 335.158 23.2627 335.234 23.668C335.31 24.0733 335.525 24.4407 335.88 24.77C336.235 25.0993 336.729 25.264 337.362 25.264C338.173 25.264 338.73 25.0613 339.034 24.656C339.363 24.2253 339.528 23.402 339.528 22.186V18.424C339.528 17.512 339.401 16.8407 339.148 16.41C338.92 15.954 338.439 15.726 337.704 15.726H334.854V12.382H337.476C338.261 12.382 338.793 12.1667 339.072 11.736C339.376 11.3053 339.528 10.4947 339.528 9.304V6.91C339.528 4.95933 338.781 3.984 337.286 3.984C335.817 3.984 335.082 4.90867 335.082 6.758V10.406H331.548ZM360.884 28H357.426L356.742 23.06H352.714L352.106 28H348.648L352.448 1.172H356.742L360.884 28ZM356.286 19.792L354.576 5.846L353.094 19.792H356.286ZM376.692 28H373.158V15.536H369.89V28H366.356V1.172H369.89V12.078H373.158V1.172H376.692V28ZM394.344 28H390.81V13.256L387.162 25.036V28H383.628V1.172H387.162V15.498L390.81 3.718V1.172H394.344V28ZM407.313 15.574C406.452 15.5993 405.869 15.8273 405.565 16.258C405.287 16.6887 405.147 17.512 405.147 18.728V24.58C405.147 25.8213 404.881 26.708 404.349 27.24C403.843 27.7467 402.943 28 401.651 28H400.207V24.77C400.79 24.77 401.17 24.6813 401.347 24.504C401.525 24.3013 401.613 23.9213 401.613 23.364V17.702C401.613 15.6247 402.411 14.396 404.007 14.016C403.171 13.864 402.538 13.5093 402.107 12.952C401.677 12.3947 401.461 11.5207 401.461 10.33V6.378C401.461 4.25 401.816 2.83133 402.525 2.122C403.159 1.48867 404.159 1.172 405.527 1.172H412.025V28H408.491V15.574H407.313ZM408.453 12.344V4.402H406.515C405.857 4.402 405.439 4.52867 405.261 4.782C405.084 5.01 404.995 5.542 404.995 6.378V9.494C404.995 10.6847 405.109 11.4573 405.337 11.812C405.565 12.1667 406.085 12.344 406.895 12.344H408.453ZM421.61 28H418.494V22.984H421.61V28ZM449.427 28H445.893V15.536H442.625V28H439.091V1.172H442.625V12.078H445.893V1.172H449.427V28ZM465.292 28H456.438V1.172H465.292V4.516H460.01V12.382H464.722V15.726H460.048V24.618H465.292V28ZM482.468 8.012V21.996C482.468 24.3773 481.936 26.024 480.872 26.936C479.808 27.8227 478.389 28.266 476.616 28.266C474.919 28.266 473.589 27.81 472.626 26.898C471.689 25.9607 471.22 24.3267 471.22 21.996V7.936C471.22 7.30267 471.245 6.74533 471.296 6.264C471.347 5.75733 471.473 5.162 471.676 4.478C471.904 3.76867 472.208 3.186 472.588 2.73C472.968 2.24867 473.538 1.84333 474.298 1.514C475.058 1.15933 475.957 0.981999 476.996 0.981999C478.136 0.981999 479.086 1.172 479.846 1.552C480.606 1.932 481.163 2.47666 481.518 3.186C481.898 3.89533 482.151 4.63 482.278 5.39C482.405 6.12467 482.468 6.99867 482.468 8.012ZM478.972 22.148V8.05C478.972 6.55533 478.845 5.51666 478.592 4.934C478.339 4.35133 477.781 4.06 476.92 4.06C476.413 4.06 475.995 4.16133 475.666 4.364C475.362 4.54133 475.147 4.82 475.02 5.2C474.893 5.58 474.817 5.89667 474.792 6.15C474.767 6.40333 474.754 6.758 474.754 7.214V22.528C474.754 23.4147 474.881 24.1113 475.134 24.618C475.413 25.0993 475.97 25.34 476.806 25.34C477.465 25.34 477.959 25.1627 478.288 24.808C478.617 24.4533 478.807 24.086 478.858 23.706C478.934 23.326 478.972 22.8067 478.972 22.148ZM498.884 4.478H492.842V11.888H496.224C497.643 11.888 498.605 12.192 499.112 12.8C499.619 13.408 499.872 14.434 499.872 15.878V23.022C499.872 24.998 499.669 26.328 499.264 27.012C498.884 27.6707 497.896 28 496.3 28H489.308V1.172H498.884V4.478ZM494.97 15.118H492.88V24.77H495.046C495.527 24.77 495.857 24.694 496.034 24.542C496.211 24.3647 496.3 24.048 496.3 23.592V16.448C496.3 15.9413 496.211 15.5993 496.034 15.422C495.857 15.2193 495.502 15.118 494.97 15.118ZM517.114 28H513.542L510.882 18.652L508.336 28H504.84L508.944 14.168L504.878 1.172H508.412L510.882 9.342L513.2 1.172H516.734L512.782 14.13L517.114 28ZM533.835 8.012V21.996C533.835 24.3773 533.303 26.024 532.239 26.936C531.175 27.8227 529.756 28.266 527.983 28.266C526.285 28.266 524.955 27.81 523.993 26.898C523.055 25.9607 522.587 24.3267 522.587 21.996V7.936C522.587 7.30267 522.612 6.74533 522.663 6.264C522.713 5.75733 522.84 5.162 523.043 4.478C523.271 3.76867 523.575 3.186 523.955 2.73C524.335 2.24867 524.905 1.84333 525.665 1.514C526.425 1.15933 527.324 0.981999 528.363 0.981999C529.503 0.981999 530.453 1.172 531.213 1.552C531.973 1.932 532.53 2.47666 532.885 3.186C533.265 3.89533 533.518 4.63 533.645 5.39C533.771 6.12467 533.835 6.99867 533.835 8.012ZM530.339 22.148V8.05C530.339 6.55533 530.212 5.51666 529.959 4.934C529.705 4.35133 529.148 4.06 528.287 4.06C527.78 4.06 527.362 4.16133 527.033 4.364C526.729 4.54133 526.513 4.82 526.387 5.2C526.26 5.58 526.184 5.89667 526.159 6.15C526.133 6.40333 526.121 6.758 526.121 7.214V22.528C526.121 23.4147 526.247 24.1113 526.501 24.618C526.779 25.0993 527.337 25.34 528.173 25.34C528.831 25.34 529.325 25.1627 529.655 24.808C529.984 24.4533 530.174 24.086 530.225 23.706C530.301 23.326 530.339 22.8067 530.339 22.148ZM554.659 24.542V33.32H551.125V28H542.689V33.32H539.155V24.542C540.117 24.542 540.801 24.0733 541.207 23.136C541.612 22.1733 541.815 20.704 541.815 18.728V1.172H552.151V24.542H554.659ZM545.349 18.728C545.349 21.7173 545.019 23.6553 544.361 24.542H548.617V4.668H545.349V18.728ZM570.888 28H567.354V13.256L563.706 25.036V28H560.172V1.172H563.706V15.498L567.354 3.718V1.172H570.888V28ZM593.51 28H590.242C590.242 16.6 590.191 9.40533 590.09 6.416L587.164 28H584.162L581.122 6.416V28H577.816V1.172H582.87L585.682 18.956L588.304 1.172H593.51V28ZM611.484 28H608.026L607.342 23.06H603.314L602.706 28H599.248L603.048 1.172H607.342L611.484 28ZM606.886 19.792L605.176 5.846L603.694 19.792H606.886ZM627.882 1.172H631.416V12.078H632.822C633.658 12.078 634.177 11.8373 634.38 11.356C634.582 10.8747 634.684 9.836 634.684 8.24V4.858C634.684 3.51533 634.962 2.56533 635.52 2.008C636.102 1.45067 637.002 1.172 638.218 1.172H639.624V4.288C639.016 4.288 638.623 4.45267 638.446 4.782C638.294 5.086 638.218 5.808 638.218 6.948V9.38C638.218 10.672 638.053 11.6473 637.724 12.306C637.42 12.9647 636.862 13.4207 636.052 13.674C636.938 13.8007 637.597 14.1427 638.028 14.7C638.458 15.232 638.674 16.1313 638.674 17.398V23.364C638.674 23.9213 638.762 24.3013 638.94 24.504C639.117 24.6813 639.497 24.77 640.08 24.77V28H638.636C637.344 28 636.432 27.7467 635.9 27.24C635.393 26.708 635.14 25.8213 635.14 24.58V18.69C635.14 17.4487 634.975 16.6127 634.646 16.182C634.342 15.7513 633.734 15.536 632.822 15.536H631.416V28H627.882V1.172ZM657.142 8.012V21.996C657.142 24.3773 656.61 26.024 655.546 26.936C654.482 27.8227 653.063 28.266 651.29 28.266C649.592 28.266 648.262 27.81 647.3 26.898C646.362 25.9607 645.894 24.3267 645.894 21.996V7.936C645.894 7.30267 645.919 6.74533 645.97 6.264C646.02 5.75733 646.147 5.162 646.35 4.478C646.578 3.76867 646.882 3.186 647.262 2.73C647.642 2.24867 648.212 1.84333 648.972 1.514C649.732 1.15933 650.631 0.981999 651.67 0.981999C652.81 0.981999 653.76 1.172 654.52 1.552C655.28 1.932 655.837 2.47666 656.192 3.186C656.572 3.89533 656.825 4.63 656.952 5.39C657.078 6.12467 657.142 6.99867 657.142 8.012ZM653.646 22.148V8.05C653.646 6.55533 653.519 5.51666 653.266 4.934C653.012 4.35133 652.455 4.06 651.594 4.06C651.087 4.06 650.669 4.16133 650.34 4.364C650.036 4.54133 649.82 4.82 649.694 5.2C649.567 5.58 649.491 5.89667 649.466 6.15C649.44 6.40333 649.428 6.758 649.428 7.214V22.528C649.428 23.4147 649.554 24.1113 649.808 24.618C650.086 25.0993 650.644 25.34 651.48 25.34C652.138 25.34 652.632 25.1627 652.962 24.808C653.291 24.4533 653.481 24.086 653.532 23.706C653.608 23.326 653.646 22.8067 653.646 22.148ZM674.28 28H670.746V15.536H667.478V28H663.944V1.172H667.478V12.078H670.746V1.172H674.28V28ZM692.767 16.904V21.578C692.767 26.0873 690.817 28.342 686.915 28.342C683.115 28.342 681.215 26.214 681.215 21.958V8.506C681.215 7.746 681.241 7.07467 681.291 6.492C681.367 5.884 681.519 5.21267 681.747 4.478C681.975 3.74333 682.292 3.13533 682.697 2.654C683.128 2.17266 683.723 1.76733 684.483 1.438C685.243 1.08333 686.155 0.905998 687.219 0.905998C689.297 0.905998 690.741 1.48866 691.551 2.654C692.362 3.81933 692.767 5.428 692.767 7.48V10.9H689.233V6.758C689.233 4.90867 688.499 3.984 687.029 3.984C685.535 3.984 684.787 4.95933 684.787 6.91V22.186C684.787 23.402 684.939 24.2253 685.243 24.656C685.573 25.0613 686.143 25.264 686.953 25.264C687.865 25.264 688.461 24.9853 688.739 24.428C689.043 23.8707 689.195 23.098 689.195 22.11V16.904H692.767ZM704.176 14.928L706.532 1.172H710.104L705.202 24.086C705 24.9727 704.746 25.6947 704.442 26.252C704.138 26.8093 703.758 27.2147 703.302 27.468C702.846 27.696 702.428 27.848 702.048 27.924C701.694 27.9747 701.225 28 700.642 28H699.502V24.77H700.262C701.073 24.77 701.618 24.542 701.896 24.086C702.2 23.63 702.492 22.604 702.77 21.008L697.374 1.172H700.984L704.176 14.928ZM726.342 1.172V28H722.808V4.63H719.54V21.008C719.54 23.7693 719.198 25.6313 718.514 26.594C717.83 27.5313 716.5 28 714.524 28H713.346V24.77H713.498C714.435 24.77 715.081 24.4913 715.436 23.934C715.816 23.3767 716.006 22.452 716.006 21.16V1.172H726.342ZM733.176 1.172H736.672V12.268H740.092C741.511 12.268 742.473 12.572 742.98 13.18C743.487 13.788 743.74 14.814 743.74 16.258V23.022C743.74 24.998 743.537 26.328 743.132 27.012C742.752 27.6707 741.764 28 740.168 28H733.176V1.172ZM736.672 15.498V24.77H738.914C739.395 24.77 739.725 24.694 739.902 24.542C740.079 24.3647 740.168 24.048 740.168 23.592V16.828C740.168 16.3213 740.079 15.9793 739.902 15.802C739.725 15.5993 739.37 15.498 738.838 15.498H736.672ZM758.64 4.326H754.46V28H750.85V4.326H746.784V1.172H758.64V4.326ZM774.319 28H770.861L770.177 23.06H766.149L765.541 28H762.083L765.883 1.172H770.177L774.319 28ZM769.721 19.792L768.011 5.846L766.529 19.792H769.721ZM789.14 28H779.83V1.172H783.364V24.542H786.632V1.172H790.166V24.542H792.674V33.32H789.14V28ZM808.893 28H805.359V13.256L801.711 25.036V28H798.177V1.172H801.711V15.498L805.359 3.718V1.172H808.893V28ZM821.862 15.574C821.001 15.5993 820.418 15.8273 820.114 16.258C819.836 16.6887 819.696 17.512 819.696 18.728V24.58C819.696 25.8213 819.43 26.708 818.898 27.24C818.392 27.7467 817.492 28 816.2 28H814.756V24.77C815.339 24.77 815.719 24.6813 815.896 24.504C816.074 24.3013 816.162 23.9213 816.162 23.364V17.702C816.162 15.6247 816.96 14.396 818.556 14.016C817.72 13.864 817.087 13.5093 816.656 12.952C816.226 12.3947 816.01 11.5207 816.01 10.33V6.378C816.01 4.25 816.365 2.83133 817.074 2.122C817.708 1.48867 818.708 1.172 820.076 1.172H826.574V28H823.04V15.574H821.862ZM823.002 12.344V4.402H821.064C820.406 4.402 819.988 4.52867 819.81 4.782C819.633 5.01 819.544 5.542 819.544 6.378V9.494C819.544 10.6847 819.658 11.4573 819.886 11.812C820.114 12.1667 820.634 12.344 821.444 12.344H823.002ZM855.863 16.904V21.578C855.863 26.0873 853.912 28.342 850.011 28.342C846.211 28.342 844.311 26.214 844.311 21.958V8.506C844.311 7.746 844.336 7.07467 844.387 6.492C844.463 5.884 844.615 5.21267 844.843 4.478C845.071 3.74333 845.388 3.13533 845.793 2.654C846.224 2.17266 846.819 1.76733 847.579 1.438C848.339 1.08333 849.251 0.905998 850.315 0.905998C852.392 0.905998 853.836 1.48866 854.647 2.654C855.458 3.81933 855.863 5.428 855.863 7.48V10.9H852.329V6.758C852.329 4.90867 851.594 3.984 850.125 3.984C848.63 3.984 847.883 4.95933 847.883 6.91V22.186C847.883 23.402 848.035 24.2253 848.339 24.656C848.668 25.0613 849.238 25.264 850.049 25.264C850.961 25.264 851.556 24.9853 851.835 24.428C852.139 23.8707 852.291 23.098 852.291 22.11V16.904H855.863ZM872.697 28H869.163V4.63H865.895V28H862.361V1.172H872.697V28ZM888.45 28H879.596V1.172H888.45V4.516H883.168V12.382H887.88V15.726H883.206V24.618H888.45V28ZM903.726 28H894.416V1.172H897.95V24.542H901.218V1.172H904.752V24.542H907.26V33.32H903.726V28ZM923.479 28H919.945V13.256L916.297 25.036V28H912.763V1.172H916.297V15.498L919.945 3.718V1.172H923.479V28ZM941.275 28H937.817L937.133 23.06H933.105L932.497 28H929.039L932.839 1.172H937.133L941.275 28ZM936.677 19.792L934.967 5.846L933.485 19.792H936.677ZM958.818 1.172V28H955.284V4.63H952.016V21.008C952.016 23.7693 951.674 25.6313 950.99 26.594C950.306 27.5313 948.976 28 947 28H945.822V24.77H945.974C946.911 24.77 947.557 24.4913 947.912 23.934C948.292 23.3767 948.482 22.452 948.482 21.16V1.172H958.818ZM976.367 28H972.833V13.256L969.185 25.036V28H965.651V1.172H969.185V15.498L972.833 3.718V1.172H976.367V28ZM994.771 16.904V21.578C994.771 26.0873 992.82 28.342 988.919 28.342C985.119 28.342 983.219 26.214 983.219 21.958V8.506C983.219 7.746 983.244 7.07467 983.295 6.492C983.371 5.884 983.523 5.21267 983.751 4.478C983.979 3.74333 984.296 3.13533 984.701 2.654C985.132 2.17266 985.727 1.76733 986.487 1.438C987.247 1.08333 988.159 0.905998 989.223 0.905998C991.3 0.905998 992.744 1.48866 993.555 2.654C994.366 3.81933 994.771 5.428 994.771 7.48V10.9H991.237V6.758C991.237 4.90867 990.502 3.984 989.033 3.984C987.538 3.984 986.791 4.95933 986.791 6.91V22.186C986.791 23.402 986.943 24.2253 987.247 24.656C987.576 25.0613 988.146 25.264 988.957 25.264C989.869 25.264 990.464 24.9853 990.743 24.428C991.047 23.8707 991.199 23.098 991.199 22.11V16.904H994.771ZM1011.47 4.326H1007.29V28H1003.68V4.326H999.61V1.172H1011.47V4.326ZM1027.15 28H1023.69L1023 23.06H1018.98L1018.37 28H1014.91L1018.71 1.172H1023L1027.15 28ZM1022.55 19.792L1020.84 5.846L1019.36 19.792H1022.55Z" fill="#093A67"/>
</svg>
