<svg width="48" height="48" viewBox="0 0 48 48" fill="none" xmlns="http://www.w3.org/2000/svg">
<g clip-path="url(#clip0_304_379)">
<path d="M25.8611 13.865L25.8531 13.8579C25.8499 13.8552 25.8462 13.8519 25.8419 13.8482C25.8333 13.8407 25.8225 13.8314 25.8095 13.8201C25.7706 13.7866 25.7121 13.7366 25.6357 13.6727C25.4829 13.5448 25.2588 13.3612 24.9765 13.1411C24.4111 12.7004 23.6158 12.1158 22.695 11.5392C20.8202 10.3652 18.5517 9.30608 16.6669 9.40811C10.044 9.76666 5.72174 16.2469 7.58355 24.0513C8.08464 26.1519 9.73232 28.6066 11.9383 31.0951C12.1493 31.3332 12.127 31.6971 11.8885 31.9077C11.6499 32.1184 11.2854 32.0962 11.0743 31.858C8.84505 29.3433 7.03187 26.7097 6.46133 24.318C4.47785 16.0035 9.08132 8.66573 16.6044 8.25845C18.8778 8.13537 21.4158 9.37896 23.3081 10.5639C24.2709 11.1668 25.0992 11.7758 25.6866 12.2338C25.9104 12.4083 26.0998 12.5613 26.2488 12.6841C26.3282 12.6187 26.4189 12.5448 26.5201 12.4637C26.9306 12.1348 27.5157 11.6858 28.2165 11.2036C29.6086 10.2456 31.4958 9.12926 33.3958 8.58496C33.7019 8.49724 34.0214 8.67387 34.1093 8.97947C34.1972 9.28507 34.0202 9.60391 33.714 9.69163C33.1759 9.84578 32.6335 10.0528 32.1006 10.293C30.9289 10.8212 29.8032 11.5102 28.8713 12.1515C28.1982 12.6147 27.6358 13.0463 27.2423 13.3616C27.0456 13.5191 26.8915 13.6473 26.7873 13.7356C26.7351 13.7797 26.6955 13.8138 26.6692 13.8365L26.64 13.8619L26.6367 13.8649C26.6351 13.8663 26.6336 13.8677 26.632 13.8691C26.5883 13.9079 26.5399 13.9391 26.4886 13.9625C26.4124 13.9972 26.3305 14.0144 26.2488 14.0144C26.1671 14.0144 26.0853 13.9972 26.0091 13.9625C25.956 13.9383 25.906 13.9058 25.8611 13.865Z" fill="#FFF9EF"/>
<path d="M43.8774 14.484C43.7237 14.2056 43.8253 13.8554 44.1043 13.702C44.3833 13.5486 44.7341 13.65 44.8878 13.9285C46.4614 16.7793 46.9625 20.4358 46.0364 24.318C45.4355 26.8369 43.4548 29.6277 41.0541 32.2695C38.6362 34.9301 35.7223 37.5138 33.1517 39.6193C32.9055 39.821 32.542 39.7853 32.34 39.5395C32.1379 39.2937 32.1737 38.931 32.4199 38.7293C34.9692 36.6413 37.8351 34.0979 40.1996 31.496C42.5812 28.8753 44.3853 26.268 44.9141 24.0513C45.781 20.4178 45.2985 17.0586 43.8774 14.484Z" fill="#FFF9EF"/>
<path d="M43.742 5.8351C43.9344 5.57064 43.8759 5.20032 43.6114 5.00799C43.347 4.81565 42.9766 4.87412 42.7843 5.13858L40.034 8.92029L38.1555 7.04184C37.9243 6.81061 37.5494 6.81061 37.3182 7.04184C37.0869 7.27308 37.0869 7.64798 37.3182 7.87921L39.6866 10.2476C39.809 10.3701 39.9789 10.4328 40.1516 10.4192C40.3242 10.4057 40.4823 10.3173 40.5841 10.1772L43.742 5.8351Z" fill="#EBD1B2"/>
<path fill-rule="evenodd" clip-rule="evenodd" d="M48 8.25C48 12.3921 44.6421 15.75 40.5 15.75C36.3579 15.75 33 12.3921 33 8.25C33 4.10786 36.3579 0.75 40.5 0.75C44.6421 0.75 48 4.10786 48 8.25ZM46.8158 8.25C46.8158 11.7381 43.9881 14.5658 40.5 14.5658C37.0119 14.5658 34.1842 11.7381 34.1842 8.25C34.1842 4.76189 37.0119 1.93421 40.5 1.93421C43.9881 1.93421 46.8158 4.76189 46.8158 8.25Z" fill="#EBD1B2"/>
<path fill-rule="evenodd" clip-rule="evenodd" d="M25.3611 17.6667C25.2537 17.6667 25.1667 17.7537 25.1667 17.8611V19.3056C25.1667 20.0573 24.5573 20.6667 23.8056 20.6667H22.3611C22.2537 20.6667 22.1667 20.7537 22.1667 20.8611V22.6389C22.1667 22.7463 22.2537 22.8333 22.3611 22.8333H23.8056C24.5573 22.8333 25.1667 23.4427 25.1667 24.1944V25.6389C25.1667 25.7463 25.2537 25.8333 25.3611 25.8333H27.1389C27.2463 25.8333 27.3333 25.7463 27.3333 25.6389V24.1944C27.3333 23.4427 27.9427 22.8333 28.6944 22.8333H30.1389C30.2463 22.8333 30.3333 22.7463 30.3333 22.6389V20.8611C30.3333 20.7537 30.2463 20.6667 30.1389 20.6667H28.6944C27.9427 20.6667 27.3333 20.0573 27.3333 19.3056V17.8611C27.3333 17.7537 27.2463 17.6667 27.1389 17.6667H25.3611ZM24 17.8611C24 17.1094 24.6094 16.5 25.3611 16.5H27.1389C27.8906 16.5 28.5 17.1094 28.5 17.8611V19.3056C28.5 19.4129 28.5871 19.5 28.6944 19.5H30.1389C30.8906 19.5 31.5 20.1094 31.5 20.8611V22.6389C31.5 23.3906 30.8906 24 30.1389 24H28.6944C28.5871 24 28.5 24.0871 28.5 24.1944V25.6389C28.5 26.3906 27.8906 27 27.1389 27H25.3611C24.6094 27 24 26.3906 24 25.6389V24.1944C24 24.0871 23.9129 24 23.8056 24H22.3611C21.6094 24 21 23.3906 21 22.6389V20.8611C21 20.1094 21.6094 19.5 22.3611 19.5H23.8056C23.9129 19.5 24 19.4129 24 19.3056V17.8611Z" fill="#EBD1B2"/>
<path fill-rule="evenodd" clip-rule="evenodd" d="M7.75935 31.3177L18.0874 29.4745C19.765 29.1752 21.4815 29.1752 23.1591 29.4745L25.7756 29.9415C26.8004 30.1244 28.0192 30.3418 29.0081 31.057C29.4402 31.3694 29.7451 31.7264 29.9304 32.1706C30.1101 32.6015 30.1567 33.0668 30.1567 33.5565C30.1567 34.1349 30.032 34.6159 29.7966 35.0032C29.5604 35.3917 29.2367 35.6462 28.9031 35.8095C28.2787 36.115 27.5829 36.1146 27.2611 36.1144L27.2383 36.1144C27.2206 36.1144 27.203 36.1136 27.1854 36.1119L22.9316 35.7209C22.5369 35.721 22.0422 35.7267 21.6037 35.8476C21.1634 35.9691 20.8953 36.1718 20.7879 36.4978C20.668 36.8616 20.7265 37.1428 20.8385 37.3332C20.9431 37.5112 21.1359 37.6377 21.5008 37.7346C21.6811 37.7825 21.8795 37.8171 22.1023 37.8525L22.2075 37.869C22.3939 37.8982 22.5975 37.9301 22.7904 37.9712L27.6031 38.9958C28.3976 39.165 29.2166 39.1802 30.0167 39.0407L39.98 37.3035L39.9832 37.3029C40.4306 37.2275 41.1241 37.2019 41.7735 37.3856C42.4319 37.5719 43.1438 38.0107 43.3693 38.9226C43.5381 39.6054 43.5719 40.262 43.2985 40.8294C43.0179 41.412 42.4814 41.7639 41.8202 41.9868L41.809 41.9904L26.1932 46.9036C24.8514 47.3258 23.42 47.3628 22.0586 47.0106L7.78237 43.3173V43.3944C7.78237 44.2637 7.08551 44.9684 6.22589 44.9684H1.55647C0.696857 44.9684 0 44.2637 0 43.3944V31.5889C0 30.7196 0.696857 30.0149 1.55647 30.0149H6.22589C6.99406 30.0149 7.63225 30.5777 7.75935 31.3177ZM18.2903 30.6371C19.8337 30.3617 21.4129 30.3617 22.9563 30.6371L25.5537 31.1007C26.6302 31.2928 27.5852 31.4793 28.3291 32.0173C28.6218 32.229 28.7691 32.4239 28.8548 32.6294C28.9461 32.8483 28.9893 33.1306 28.9893 33.5565C28.9893 33.9619 28.9032 34.2188 28.8022 34.3849C28.702 34.5497 28.5636 34.6641 28.3946 34.7468C28.0383 34.9212 27.5994 34.9333 27.2646 34.9338L23.0108 34.5427C22.9933 34.5411 22.9756 34.5403 22.958 34.5403L22.938 34.5403C22.5557 34.5402 21.9075 34.5402 21.2966 34.7087C20.6668 34.8824 19.9621 35.2699 19.6804 36.1245C19.4584 36.7982 19.5417 37.4377 19.8351 37.9367C20.1711 38.5079 20.7232 38.7486 21.2041 38.8764C21.4466 38.9408 21.6962 38.983 21.9212 39.0187L22.0374 39.0371C22.2238 39.0663 22.3906 39.0925 22.55 39.1264L27.3627 40.1511C28.3016 40.351 29.2695 40.369 30.215 40.2041L40.1751 38.4674L40.1766 38.4672C40.5075 38.4116 41.0194 38.3981 41.4589 38.5225C41.89 38.6445 42.1509 38.8615 42.2368 39.2089C42.3793 39.7853 42.3454 40.1125 42.2491 40.3124C42.1604 40.4965 41.9587 40.6948 41.4564 40.865L25.8464 45.7763C24.711 46.1336 23.4998 46.1649 22.3479 45.8669L7.78237 42.0987V32.5124L18.2903 30.6371ZM1.55647 31.1954H6.22589C6.4408 31.1954 6.61501 31.3716 6.61501 31.5889V43.3944C6.61501 43.6117 6.4408 43.7879 6.22589 43.7879H1.55647C1.34157 43.7879 1.16735 43.6117 1.16735 43.3944V31.5889C1.16735 31.3716 1.34157 31.1954 1.55647 31.1954Z" fill="#FFF9EF"/>
</g>
<defs>
<clipPath id="clip0_304_379">
<rect width="48" height="48" fill="white"/>
</clipPath>
</defs>
</svg>
