<svg width="200" height="45" viewBox="0 0 200 45" fill="none" xmlns="http://www.w3.org/2000/svg">
<path d="M4.03235 6.34987C4.03235 7.87071 3.99282 9.19555 3.91376 10.3244C3.8505 11.4376 3.74772 12.3862 3.6054 13.1701C3.47889 13.954 3.32076 14.5969 3.13101 15.0986C2.94125 15.5846 2.73568 15.9687 2.51429 16.251C2.29291 16.5175 2.05571 16.6978 1.8027 16.7919C1.5655 16.886 1.3204 16.933 1.06739 16.933C0.972509 16.933 0.885537 16.9251 0.806471 16.9095C0.727405 16.9095 0.648339 16.9016 0.569274 16.886C0.490208 16.8703 0.419049 16.8468 0.355796 16.8154L0 15.0515C0.0632526 15.0829 0.134412 15.1064 0.213478 15.1221C0.292543 15.1378 0.371609 15.1535 0.450675 15.1691C0.529741 15.1691 0.616713 15.1691 0.711592 15.1691C1.12273 15.1691 1.50225 15.0672 1.85014 14.8634C2.19803 14.6596 2.49848 14.2519 2.75149 13.6405C3.0045 13.0133 3.20216 12.1196 3.34448 10.9594C3.4868 9.79918 3.55796 8.26267 3.55796 6.34987V0.705542L2.01618 0.23518V0H11.8599V0.23518L10.4367 0.587952V15.8747L11.8599 16.2274V16.4626H6.99732V16.2274L8.42051 15.8747V0.470362H4.03235V6.34987Z" fill="#093A67"/>
<path d="M19.9283 5.87951V5.64433H24.5536V5.87951L23.1304 6.23228V15.8747L24.5536 16.2274V16.4626H19.9283V16.2274L21.2329 15.8747V8.11372L17.0819 14.4636V15.8747L18.3865 16.2274V16.4626H13.7612V16.2274L15.1843 15.8747V6.23228L13.7612 5.87951V5.64433H18.3865V5.87951L17.0819 6.23228V13.6405L21.2329 7.29059V6.23228L19.9283 5.87951Z" fill="#093A67"/>
<path d="M29.544 6.11469V15.8747L30.9672 16.2274V16.4626H26.2233V16.2274L27.6465 15.8747V6.23228L26.2233 5.87951V5.64433H34.288C34.2564 5.80112 34.2326 5.96574 34.2168 6.13821C34.201 6.295 34.1852 6.48314 34.1694 6.70264C34.1694 6.90646 34.1694 7.14164 34.1694 7.40818C34.1694 7.58065 34.1694 7.77663 34.1694 7.99613C34.1852 8.19996 34.201 8.3881 34.2168 8.56057C34.2326 8.76439 34.2564 8.96821 34.288 9.17204H34.0508C33.6397 8.81143 33.2997 8.38026 33.0308 7.87854C32.762 7.36115 32.6276 6.7732 32.6276 6.11469H29.544Z" fill="#093A67"/>
<path d="M41.7745 10.7007C40.3988 10.7007 39.3788 11.0064 38.7147 11.6179C38.0663 12.2137 37.7422 13.0447 37.7422 14.1108C37.7422 14.8164 37.9161 15.3651 38.264 15.7571C38.6119 16.1491 38.9914 16.345 39.4026 16.345C39.7821 16.345 40.1141 16.2353 40.3988 16.0158C40.6992 15.7963 40.9522 15.5533 41.1578 15.2867C41.395 14.9888 41.6006 14.6361 41.7745 14.2284V10.7007ZM39.9956 5.64433C39.5212 5.64433 39.1258 5.80896 38.8096 6.13821C38.4933 6.45178 38.3352 6.87511 38.3352 7.40818C38.3352 7.53361 38.3352 7.64336 38.3352 7.73744C38.351 7.83151 38.3668 7.91774 38.3826 7.99613C38.3984 8.07453 38.4221 8.15292 38.4538 8.23131L36.5562 8.70168C36.5246 8.65464 36.5008 8.59192 36.485 8.51353C36.4692 8.43514 36.4534 8.3489 36.4376 8.25483C36.4376 8.16076 36.4376 8.03533 36.4376 7.87854C36.4376 7.54929 36.5167 7.23572 36.6748 6.93782C36.8329 6.62425 37.0622 6.34987 37.3627 6.11469C37.6789 5.86383 38.0505 5.66785 38.4775 5.52674C38.9203 5.36995 39.4263 5.29156 39.9956 5.29156C41.1341 5.29156 42.0275 5.61297 42.6759 6.2558C43.34 6.89863 43.6721 7.75311 43.6721 8.81927V15.8747L45.0953 16.2274V16.4626H41.7745V15.0515C41.6006 15.3808 41.3792 15.6787 41.1104 15.9452C40.889 16.1647 40.6044 16.3607 40.2565 16.5332C39.9244 16.7213 39.5212 16.8154 39.0468 16.8154C37.9082 16.8154 37.0464 16.5489 36.4613 16.0158C35.892 15.4827 35.6074 14.7693 35.6074 13.8756C35.6074 13.4366 35.726 12.9976 35.9632 12.5586C36.2162 12.1196 36.5878 11.7277 37.078 11.3827C37.584 11.0378 38.2245 10.7634 38.9993 10.5596C39.7742 10.3401 40.6992 10.2303 41.7745 10.2303V8.81927C41.7745 7.64336 41.5927 6.82023 41.229 6.34987C40.8811 5.87951 40.4699 5.64433 39.9956 5.64433Z" fill="#093A67"/>
<path d="M51.9703 3.88048C52.2708 3.88048 52.5238 3.77073 52.7293 3.55122C52.9349 3.31604 53.0377 2.99463 53.0377 2.58698C53.0377 2.46155 53.0298 2.3518 53.014 2.25773C52.9982 2.16366 52.9824 2.07743 52.9665 1.99903C52.9507 1.92064 52.9349 1.84225 52.9191 1.76385H54.4609C54.4767 1.81089 54.4925 1.86576 54.5083 1.92848C54.5241 1.97552 54.54 2.03823 54.5558 2.11662C54.5716 2.19502 54.5795 2.27341 54.5795 2.3518C54.5795 2.88488 54.366 3.33172 53.9391 3.69233C53.5279 4.05294 52.8717 4.23325 51.9703 4.23325C51.069 4.23325 50.4048 4.05294 49.9779 3.69233C49.5667 3.33172 49.3611 2.88488 49.3611 2.3518C49.3611 2.19502 49.377 2.05391 49.4086 1.92848C49.4244 1.86576 49.4481 1.81089 49.4797 1.76385H51.0215C50.9899 1.84225 50.9662 1.92064 50.9504 1.99903C50.9346 2.07743 50.9187 2.16366 50.9029 2.25773C50.9029 2.3518 50.9029 2.46155 50.9029 2.58698C50.9029 2.99463 51.0057 3.31604 51.2113 3.55122C51.4169 3.77073 51.6699 3.88048 51.9703 3.88048ZM52.6819 5.87951V5.64433H57.3073V5.87951L55.8841 6.23228V15.8747L57.3073 16.2274V16.4626H52.6819V16.2274L53.9865 15.8747V8.11372L49.8355 14.4636V15.8747L51.1401 16.2274V16.4626H46.5148V16.2274L47.938 15.8747V6.23228L46.5148 5.87951V5.64433H51.1401V5.87951L49.8355 6.23228V13.6405L53.9865 7.29059V6.23228L52.6819 5.87951Z" fill="#093A67"/>
<path d="M72.3785 0H75.6993V0.23518L74.2761 0.587952V15.8747L75.6993 16.2274V16.4626H70.8368V16.2274L72.2599 15.8747V1.99903L67.1602 16.8154H66.8044L61.1117 1.99903V15.6395L62.6535 16.2274V16.4626H59.0955V16.2274L60.6373 15.6395V0.705542L59.0955 0.23518V0H62.5349L67.7295 13.5229L72.3785 0Z" fill="#093A67"/>
<path d="M79.9726 11.0535C79.9726 12.0569 80.0437 12.8957 80.186 13.5699C80.3442 14.2441 80.5418 14.7928 80.779 15.2162C81.0321 15.6238 81.3088 15.9139 81.6092 16.0863C81.9255 16.2588 82.2497 16.345 82.5817 16.345C82.9929 16.345 83.3803 16.2666 83.744 16.1099C84.1077 15.9531 84.4319 15.7414 84.7165 15.4749C85.0012 15.2083 85.2304 14.8869 85.4044 14.5106C85.5941 14.1343 85.7206 13.7267 85.7839 13.2877H86.1397C86.0764 13.7894 85.9341 14.2598 85.7127 14.6988C85.5072 15.1221 85.2383 15.4905 84.9063 15.8041C84.5742 16.1177 84.1868 16.3607 83.744 16.5332C83.317 16.7213 82.8506 16.8154 82.3445 16.8154C81.7436 16.8154 81.1744 16.69 80.6367 16.4391C80.0991 16.1726 79.6168 15.7963 79.1898 15.3102C78.7787 14.8085 78.4466 14.2049 78.1936 13.4994C77.9564 12.7781 77.8378 11.9628 77.8378 11.0535C77.8378 10.1128 77.9564 9.28179 78.1936 8.56057C78.4308 7.83935 78.7391 7.24356 79.1187 6.7732C79.514 6.28716 79.9647 5.91871 80.4707 5.66785C80.9925 5.41699 81.5381 5.29156 82.1073 5.29156C82.6766 5.29156 83.2143 5.41699 83.7203 5.66785C84.2421 5.91871 84.6928 6.28716 85.0723 6.7732C85.4676 7.24356 85.7839 7.83935 86.0211 8.56057C86.2583 9.28179 86.3769 10.1128 86.3769 11.0535H79.9726ZM82.1073 5.64433C81.8701 5.64433 81.6329 5.72272 81.3958 5.87951C81.1586 6.02062 80.9372 6.27932 80.7316 6.65561C80.526 7.03189 80.3521 7.54145 80.2098 8.18428C80.0833 8.81143 80.0042 9.61104 79.9726 10.5831H84.2421C84.2105 9.61104 84.1235 8.81143 83.9812 8.18428C83.8547 7.54145 83.6887 7.03189 83.4831 6.65561C83.2775 6.27932 83.0561 6.02062 82.8189 5.87951C82.5817 5.72272 82.3445 5.64433 82.1073 5.64433Z" fill="#093A67"/>
<path d="M88.3879 15.9923C88.7358 15.5376 89.052 14.9967 89.3367 14.3695C89.5739 13.8208 89.7953 13.1387 90.0008 12.3235C90.2064 11.5082 90.3092 10.5361 90.3092 9.40722V6.34987L88.7674 5.87951V5.64433H97.3065V5.87951L95.8833 6.23228V15.9923H97.6623C97.6307 16.1491 97.607 16.3215 97.5911 16.5097C97.5753 16.6821 97.5595 16.8938 97.5437 17.1446C97.5437 17.3955 97.5437 17.6777 97.5437 17.9913C97.5437 18.2265 97.5437 18.4538 97.5437 18.6733C97.5595 18.9085 97.5753 19.1123 97.5911 19.2848C97.607 19.4886 97.6307 19.6846 97.6623 19.8727H97.4251C97.014 19.5121 96.6503 19.0418 96.334 18.4617C96.0336 17.8972 95.8833 17.2309 95.8833 16.4626H88.6488C88.6488 17.2309 88.4907 17.8972 88.1744 18.4617C87.874 19.0418 87.5182 19.5121 87.107 19.8727H86.8698C86.8856 19.6846 86.9014 19.4886 86.9173 19.2848C86.9331 19.1123 86.9489 18.9085 86.9647 18.6733C86.9805 18.4538 86.9884 18.2265 86.9884 17.9913C86.9884 17.6777 86.9805 17.3955 86.9647 17.1446C86.9489 16.8938 86.9331 16.6821 86.9173 16.5097C86.9014 16.3215 86.8856 16.1491 86.8698 15.9923H88.3879ZM93.9857 15.9923V6.11469H90.7836V9.40722C90.7836 10.5361 90.6887 11.5082 90.4989 12.3235C90.3092 13.1387 90.1036 13.8208 89.8822 14.3695C89.6134 14.9967 89.313 15.5376 88.9809 15.9923H93.9857Z" fill="#093A67"/>
<path d="M14.469 23.518H17.7898V23.7532L16.3666 24.106V39.3927L17.7898 39.7455V39.9807H12.9273V39.7455L14.3504 39.3927V25.5171L9.2507 40.3334H8.8949L3.20216 25.5171V39.1575L4.74395 39.7455V39.9807H1.18599V39.7455L2.72777 39.1575V24.2236L1.18599 23.7532V23.518H4.62535L9.81997 37.0409L14.469 23.518Z" fill="#093A67"/>
<path d="M22.0631 34.5715C22.0631 35.575 22.1342 36.4138 22.2765 37.0879C22.4347 37.7621 22.6323 38.3109 22.8695 38.7342C23.1225 39.1419 23.3993 39.4319 23.6997 39.6044C24.016 39.7768 24.3402 39.8631 24.6722 39.8631C25.0834 39.8631 25.4708 39.7847 25.8345 39.6279C26.1982 39.4711 26.5224 39.2594 26.807 38.9929C27.0916 38.7264 27.3209 38.405 27.4949 38.0287C27.6846 37.6524 27.8111 37.2447 27.8744 36.8057H28.2302C28.1669 37.3074 28.0246 37.7778 27.8032 38.2168C27.5977 38.6401 27.3288 39.0086 26.9968 39.3222C26.6647 39.6357 26.2773 39.8788 25.8345 40.0512C25.4075 40.2394 24.9411 40.3334 24.435 40.3334C23.8341 40.3334 23.2649 40.208 22.7272 39.9571C22.1896 39.6906 21.7073 39.3143 21.2803 38.8283C20.8692 38.3266 20.5371 37.7229 20.2841 37.0174C20.0469 36.2962 19.9283 35.4809 19.9283 34.5715C19.9283 33.6308 20.0469 32.7998 20.2841 32.0786C20.5213 31.3574 20.8296 30.7616 21.2091 30.2912C21.6045 29.8052 22.0552 29.4367 22.5612 29.1859C23.083 28.935 23.6286 28.8096 24.1978 28.8096C24.7671 28.8096 25.3048 28.935 25.8108 29.1859C26.3326 29.4367 26.7833 29.8052 27.1628 30.2912C27.5581 30.7616 27.8744 31.3574 28.1116 32.0786C28.3488 32.7998 28.4674 33.6308 28.4674 34.5715H22.0631ZM24.1978 29.1624C23.9606 29.1624 23.7234 29.2408 23.4862 29.3975C23.249 29.5387 23.0277 29.7974 22.8221 30.1736C22.6165 30.5499 22.4426 31.0595 22.3003 31.7023C22.1738 32.3295 22.0947 33.1291 22.0631 34.1012H26.3326C26.301 33.1291 26.214 32.3295 26.0717 31.7023C25.9452 31.0595 25.7792 30.5499 25.5736 30.1736C25.368 29.7974 25.1466 29.5387 24.9094 29.3975C24.6722 29.2408 24.435 29.1624 24.1978 29.1624Z" fill="#093A67"/>
<path d="M30.4784 39.5103C30.8263 39.0556 31.1425 38.5147 31.4272 37.8876C31.6644 37.3388 31.8857 36.6568 32.0913 35.8415C32.2969 35.0262 32.3997 34.0541 32.3997 32.9253V29.8679L30.8579 29.3975V29.1624H39.397V29.3975L37.9738 29.7503V39.5103H39.7528C39.7212 39.6671 39.6974 39.8396 39.6816 40.0277C39.6658 40.2002 39.65 40.4118 39.6342 40.6627C39.6342 40.9135 39.6342 41.1958 39.6342 41.5093C39.6342 41.7445 39.6342 41.9719 39.6342 42.1914C39.65 42.4265 39.6658 42.6304 39.6816 42.8028C39.6974 43.0067 39.7212 43.2026 39.7528 43.3908H39.5156C39.1045 43.0302 38.7408 42.5598 38.4245 41.9797C38.124 41.4153 37.9738 40.7489 37.9738 39.9807H30.7393C30.7393 40.7489 30.5812 41.4153 30.2649 41.9797C29.9644 42.5598 29.6087 43.0302 29.1975 43.3908H28.9603C28.9761 43.2026 28.9919 43.0067 29.0078 42.8028C29.0236 42.6304 29.0394 42.4265 29.0552 42.1914C29.071 41.9719 29.0789 41.7445 29.0789 41.5093C29.0789 41.1958 29.071 40.9135 29.0552 40.6627C29.0394 40.4118 29.0236 40.2002 29.0078 40.0277C28.9919 39.8396 28.9761 39.6671 28.9603 39.5103H30.4784ZM36.0762 39.5103V29.6327H32.8741V32.9253C32.8741 34.0541 32.7792 35.0262 32.5894 35.8415C32.3997 36.6568 32.1941 37.3388 31.9727 37.8876C31.7039 38.5147 31.4034 39.0556 31.0714 39.5103H36.0762Z" fill="#093A67"/>
<path d="M47.47 29.3975V29.1624H52.0954V29.3975L50.6722 29.7503V39.3927L52.0954 39.7455V39.9807H47.47V39.7455L48.7746 39.3927V31.6318L44.6237 37.9816V39.3927L45.9283 39.7455V39.9807H41.3029V39.7455L42.7261 39.3927V29.7503L41.3029 29.3975V29.1624H45.9283V29.3975L44.6237 29.7503V37.1585L48.7746 30.8086V29.7503L47.47 29.3975Z" fill="#093A67"/>
<path d="M65.0319 39.5103C65.0003 39.6671 64.9766 39.8396 64.9608 40.0277C64.9449 40.2002 64.9291 40.4118 64.9133 40.6627C64.9133 40.9135 64.9133 41.1958 64.9133 41.5093C64.9133 41.7445 64.9133 41.9719 64.9133 42.1914C64.9291 42.4265 64.9449 42.6304 64.9608 42.8028C64.9766 43.0067 65.0003 43.2026 65.0319 43.3908H64.7947C64.3836 43.0302 64.0199 42.5598 63.7036 41.9797C63.4032 41.4153 63.2529 40.7489 63.2529 39.9807H53.765V39.7455L55.1882 39.3927V29.7503L53.765 29.3975V29.1624H58.3904V29.3975L57.0858 29.7503V39.5103H61.1182V29.7503L59.8136 29.3975V29.1624H64.4389V29.3975L63.0157 29.7503V39.5103H65.0319Z" fill="#093A67"/>
<path d="M72.2553 29.3975V29.1624H76.8807V29.3975L75.4575 29.7503V39.3927L76.8807 39.7455V39.9807H72.2553V39.7455L73.5599 39.3927V31.6318L69.4089 37.9816V39.3927L70.7135 39.7455V39.9807H66.0882V39.7455L67.5114 39.3927V29.7503L66.0882 29.3975V29.1624H70.7135V29.3975L69.4089 29.7503V37.1585L73.5599 30.8086V29.7503L72.2553 29.3975Z" fill="#093A67"/>
<path d="M84.5988 29.3975V29.1624H89.2242V29.3975L87.801 29.7503V39.3927L89.2242 39.7455V39.9807H84.5988V39.7455L85.9034 39.3927V34.5715H81.8711V39.3927L83.1757 39.7455V39.9807H78.5503V39.7455L79.9735 39.3927V29.7503L78.5503 29.3975V29.1624H83.1757V29.3975L81.8711 29.7503V34.1012H85.9034V29.7503L84.5988 29.3975Z" fill="#093A67"/>
<path d="M95.736 29.28C95.4356 29.28 95.1351 29.374 94.8346 29.5622C94.55 29.7346 94.2891 30.0247 94.0519 30.4323C93.8147 30.84 93.617 31.3809 93.4589 32.0551C93.3166 32.7293 93.2454 33.5681 93.2454 34.5715C93.2454 35.575 93.3166 36.4138 93.4589 37.0879C93.617 37.7621 93.8226 38.3109 94.0756 38.7342C94.3286 39.1419 94.6133 39.4319 94.9295 39.6044C95.2616 39.7768 95.6095 39.8631 95.9732 39.8631C96.3843 39.8631 96.7718 39.7847 97.1355 39.6279C97.4992 39.4711 97.8233 39.2594 98.108 38.9929C98.3926 38.7264 98.6219 38.405 98.7959 38.0287C98.9856 37.6524 99.1121 37.2447 99.1754 36.8057H99.5312C99.4679 37.3074 99.3256 37.7778 99.1042 38.2168C98.8986 38.6401 98.6298 39.0086 98.2977 39.3222C97.9657 39.6357 97.5782 39.8788 97.1355 40.0512C96.7085 40.2394 96.242 40.3334 95.736 40.3334C95.1193 40.3334 94.5263 40.208 93.957 39.9571C93.4036 39.6906 92.9134 39.3143 92.4864 38.8283C92.0594 38.3266 91.7195 37.7229 91.4664 37.0174C91.2292 36.2962 91.1106 35.4809 91.1106 34.5715C91.1106 33.6622 91.2292 32.8547 91.4664 32.1492C91.7195 31.4279 92.0515 30.8243 92.4627 30.3383C92.8738 29.8366 93.3403 29.4603 93.8621 29.2094C94.384 28.9429 94.9295 28.8096 95.4988 28.8096C95.8783 28.8096 96.2104 28.8723 96.495 28.9977C96.7955 29.1232 97.0485 29.2564 97.2541 29.3975C97.4913 29.57 97.6968 29.766 97.8708 29.9855C97.934 29.7503 98.0605 29.5308 98.2503 29.327C98.4559 29.1232 98.6456 28.9899 98.8196 28.9272H99.1754C99.1437 29.131 99.12 29.3427 99.1042 29.5622C99.0884 29.7503 99.0726 29.9541 99.0568 30.1736C99.0568 30.3931 99.0568 30.6048 99.0568 30.8086C99.0568 31.0438 99.0568 31.2868 99.0568 31.5377C99.0726 31.7729 99.0884 31.9845 99.1042 32.1727C99.12 32.3922 99.1437 32.6038 99.1754 32.8077H98.8196C98.5191 31.6788 98.0763 30.8086 97.4913 30.1972C96.922 29.5857 96.3369 29.28 95.736 29.28Z" fill="#093A67"/>
<path d="M105.43 34.7832L104.386 36.5705V39.3927L105.691 39.7455V39.9807H101.066V39.7455L102.489 39.3927V29.7503L101.066 29.3975V29.1624H105.928V29.3975L104.386 29.7503V35.7474L106.521 31.9845C106.885 31.3417 107.193 30.8243 107.446 30.4323C107.699 30.0247 107.921 29.7111 108.11 29.4916C108.316 29.2721 108.506 29.1232 108.68 29.0448C108.854 28.9664 109.043 28.9272 109.249 28.9272C109.328 28.9272 109.407 28.935 109.486 28.9507C109.565 28.9664 109.628 28.9821 109.676 28.9977C109.739 29.0134 109.794 29.0291 109.842 29.0448L110.198 30.691C110.103 30.6754 110.008 30.6597 109.913 30.644C109.834 30.6283 109.739 30.6126 109.628 30.597C109.533 30.5813 109.447 30.5735 109.367 30.5735C108.719 30.5735 108.229 30.691 107.897 30.9262C107.565 31.1614 107.264 31.5142 106.995 31.9845L106.402 33.0193L110.316 39.3927L111.739 39.7455V39.9807H106.948V39.7455L108.253 39.3927L105.43 34.7832Z" fill="#093A67"/>
<path d="M118.374 29.3975V29.1624H123V29.3975L121.577 29.7503V39.3927L123 39.7455V39.9807H118.374V39.7455L119.679 39.3927V31.6318L115.528 37.9816V39.3927L116.833 39.7455V39.9807H112.207V39.7455L113.631 39.3927V29.7503L112.207 29.3975V29.1624H116.833V29.3975L115.528 29.7503V37.1585L119.679 30.8086V29.7503L118.374 29.3975Z" fill="#093A67"/>
<path d="M130.125 27.3985C130.425 27.3985 130.678 27.2888 130.884 27.0693C131.09 26.8341 131.192 26.5127 131.192 26.105C131.192 25.9796 131.184 25.8698 131.169 25.7758C131.153 25.6817 131.137 25.5955 131.121 25.5171C131.105 25.4387 131.09 25.3603 131.074 25.2819H132.616C132.631 25.3289 132.647 25.3838 132.663 25.4465C132.679 25.4936 132.695 25.5563 132.71 25.6347C132.726 25.7131 132.734 25.7914 132.734 25.8698C132.734 26.4029 132.521 26.8498 132.094 27.2104C131.683 27.571 131.026 27.7513 130.125 27.7513C129.224 27.7513 128.559 27.571 128.133 27.2104C127.721 26.8498 127.516 26.4029 127.516 25.8698C127.516 25.7131 127.532 25.5719 127.563 25.4465C127.579 25.3838 127.603 25.3289 127.634 25.2819H129.176C129.145 25.3603 129.121 25.4387 129.105 25.5171C129.089 25.5955 129.073 25.6817 129.058 25.7758C129.058 25.8698 129.058 25.9796 129.058 26.105C129.058 26.5127 129.16 26.8341 129.366 27.0693C129.572 27.2888 129.825 27.3985 130.125 27.3985ZM130.837 29.3975V29.1624H135.462V29.3975L134.039 29.7503V39.3927L135.462 39.7455V39.9807H130.837V39.7455L132.141 39.3927V31.6318L127.99 37.9816V39.3927L129.295 39.7455V39.9807H124.669V39.7455L126.093 39.3927V29.7503L124.669 29.3975V29.1624H129.295V29.3975L127.99 29.7503V37.1585L132.141 30.8086V29.7503L130.837 29.3975Z" fill="#093A67"/>
<path d="M143.067 39.9807V39.7455L144.49 39.3927V24.106L143.067 23.7532V23.518H147.93V23.7532L146.506 24.106V39.5103H151.369V24.106L149.946 23.7532V23.518H154.808V23.7532L153.385 24.106V39.5103H155.639C155.607 39.6984 155.583 39.9023 155.567 40.1218C155.552 40.3099 155.536 40.5216 155.52 40.7568C155.52 40.9919 155.52 41.2428 155.52 41.5093C155.52 41.7445 155.52 41.9875 155.52 42.2384C155.536 42.4893 155.552 42.7166 155.567 42.9204C155.583 43.1713 155.607 43.4065 155.639 43.626H155.401C154.864 43.2183 154.453 42.7009 154.168 42.0738C153.883 41.4466 153.741 40.7489 153.741 39.9807H143.067Z" fill="#093A67"/>
<path d="M159.077 34.5715C159.077 35.575 159.148 36.4138 159.29 37.0879C159.449 37.7621 159.646 38.3109 159.883 38.7342C160.136 39.1419 160.413 39.4319 160.714 39.6044C161.03 39.7768 161.354 39.8631 161.686 39.8631C162.097 39.8631 162.485 39.7847 162.848 39.6279C163.212 39.4711 163.536 39.2594 163.821 38.9929C164.106 38.7264 164.335 38.405 164.509 38.0287C164.699 37.6524 164.825 37.2447 164.888 36.8057H165.244C165.181 37.3074 165.039 37.7778 164.817 38.2168C164.612 38.6401 164.343 39.0086 164.011 39.3222C163.679 39.6357 163.291 39.8788 162.848 40.0512C162.421 40.2394 161.955 40.3334 161.449 40.3334C160.848 40.3334 160.279 40.208 159.741 39.9571C159.203 39.6906 158.721 39.3143 158.294 38.8283C157.883 38.3266 157.551 37.7229 157.298 37.0174C157.061 36.2962 156.942 35.4809 156.942 34.5715C156.942 33.6308 157.061 32.7998 157.298 32.0786C157.535 31.3574 157.844 30.7616 158.223 30.2912C158.618 29.8052 159.069 29.4367 159.575 29.1859C160.097 28.935 160.642 28.8096 161.212 28.8096C161.781 28.8096 162.319 28.935 162.825 29.1859C163.347 29.4367 163.797 29.8052 164.177 30.2912C164.572 30.7616 164.888 31.3574 165.125 32.0786C165.363 32.7998 165.481 33.6308 165.481 34.5715H159.077ZM161.212 29.1624C160.975 29.1624 160.737 29.2408 160.5 29.3975C160.263 29.5387 160.042 29.7974 159.836 30.1736C159.63 30.5499 159.456 31.0595 159.314 31.7023C159.188 32.3295 159.109 33.1291 159.077 34.1012H163.347C163.315 33.1291 163.228 32.3295 163.086 31.7023C162.959 31.0595 162.793 30.5499 162.587 30.1736C162.382 29.7974 162.161 29.5387 161.923 29.3975C161.686 29.2408 161.449 29.1624 161.212 29.1624Z" fill="#093A67"/>
<path d="M173.316 29.3975V29.1624H177.942V29.3975L176.518 29.7503V39.3927L177.942 39.7455V39.9807H173.316V39.7455L174.621 39.3927V34.5715H170.588V39.3927L171.893 39.7455V39.9807H167.268V39.7455L168.691 39.3927V29.7503L167.268 29.3975V29.1624H171.893V29.3975L170.588 29.7503V34.1012H174.621V29.7503L173.316 29.3975Z" fill="#093A67"/>
<path d="M188.486 29.1624C188.454 29.3192 188.43 29.4838 188.415 29.6562C188.399 29.813 188.383 30.0012 188.367 30.2207C188.367 30.4245 188.367 30.6597 188.367 30.9262C188.367 31.0987 188.367 31.2947 188.367 31.5142C188.383 31.718 188.399 31.9061 188.415 32.0786C188.43 32.2824 188.454 32.4862 188.486 32.6901H188.249C187.837 32.3295 187.497 31.8983 187.229 31.3966C186.96 30.8792 186.825 30.2912 186.825 29.6327H184.928V39.3927L186.351 39.7455V39.9807H181.607V39.7455L183.03 39.3927V29.6327H181.133C181.133 30.2912 180.998 30.8792 180.729 31.3966C180.461 31.8983 180.121 32.3295 179.709 32.6901H179.472C179.488 32.4862 179.504 32.2824 179.52 32.0786C179.535 31.9061 179.551 31.718 179.567 31.5142C179.583 31.2947 179.591 31.0987 179.591 30.9262C179.591 30.6597 179.583 30.4245 179.567 30.2207C179.551 30.0012 179.535 29.813 179.52 29.6562C179.504 29.4838 179.488 29.3192 179.472 29.1624H188.486Z" fill="#093A67"/>
<path d="M191.224 29.7503L189.801 29.3975V29.1624H193.121V30.5735C193.279 30.2599 193.493 29.9698 193.762 29.7033C193.983 29.4838 194.268 29.28 194.616 29.0918C194.964 28.9037 195.375 28.8096 195.849 28.8096C196.355 28.8096 196.853 28.9429 197.343 29.2094C197.849 29.4603 198.292 29.8366 198.672 30.3383C199.067 30.8243 199.383 31.4279 199.62 32.1492C199.873 32.8547 200 33.6622 200 34.5715C200 35.4809 199.873 36.2962 199.62 37.0174C199.383 37.7229 199.059 38.3266 198.648 38.8283C198.237 39.3143 197.77 39.6906 197.249 39.9571C196.727 40.208 196.181 40.3334 195.612 40.3334C195.153 40.3334 194.766 40.2707 194.45 40.1453C194.149 40.0355 193.896 39.9023 193.691 39.7455C193.453 39.573 193.264 39.377 193.121 39.1575V44.375L194.544 44.7278V45H189.801V44.7278L191.224 44.375V29.7503ZM195.256 39.8631C195.588 39.8631 195.904 39.7768 196.205 39.6044C196.521 39.4319 196.798 39.1419 197.035 38.7342C197.288 38.3109 197.486 37.7621 197.628 37.0879C197.786 36.4138 197.865 35.575 197.865 34.5715C197.865 33.5681 197.786 32.7293 197.628 32.0551C197.486 31.3809 197.296 30.84 197.059 30.4323C196.837 30.0247 196.584 29.7346 196.3 29.5622C196.031 29.374 195.762 29.28 195.493 29.28C195.098 29.28 194.758 29.3897 194.473 29.6092C194.189 29.8287 193.944 30.0717 193.738 30.3383C193.501 30.6518 193.295 31.0046 193.121 31.3966V38.452C193.264 38.7185 193.438 38.9537 193.643 39.1575C193.817 39.33 194.038 39.4946 194.307 39.6514C194.576 39.7925 194.892 39.8631 195.256 39.8631Z" fill="#093A67"/>
</svg>
