<svg width="48" height="48" viewBox="0 0 48 48" fill="none" xmlns="http://www.w3.org/2000/svg">
<g clip-path="url(#clip0_186_2007)">
<path fill-rule="evenodd" clip-rule="evenodd" d="M7.64285 31.1297C7.40495 31.1297 7.20098 31.2774 7.12222 31.4864L1.88545 45.3832C1.75722 45.7235 2.00129 46.1203 2.40608 46.1203H19.0329V42.7065L10.4739 31.1297H7.64285ZM11.8537 31.1297H17.5195V30H7.64285C6.963 30 6.34482 30.4234 6.09809 31.0782L0.861324 44.975C0.441312 46.0896 1.265 47.25 2.40608 47.25H45.5939C46.735 47.25 47.5587 46.0896 47.1387 44.975L41.9019 31.0782C41.6552 30.4234 41.037 30 40.3572 30H30.4805V31.1297H40.3572C40.595 31.1297 40.799 31.2774 40.8778 31.4864L41.6623 33.5682L19.7736 41.8419L11.8537 31.1297ZM20.1312 42.9103V46.1203H38.8684L32.6551 38.1764L20.1312 42.9103ZM33.7431 37.7651L40.278 46.1203H45.5939C45.9987 46.1203 46.2428 45.7235 46.1145 45.3832L42.0592 34.6217L33.7431 37.7651Z" fill="#FFF9EF"/>
<path fill-rule="evenodd" clip-rule="evenodd" d="M24.375 1.84249C17.716 1.84249 12.3379 7.14461 12.3379 13.6604C12.3379 14.0311 12.3553 14.3977 12.3893 14.7594L12.3898 14.7651L12.3902 14.7707C12.6733 18.6426 14.5786 24.5528 18.4141 30.5682C19.9584 32.9901 21.8125 35.4241 23.9937 37.7441C24.1986 37.962 24.5514 37.962 24.7563 37.7441C26.9375 35.4241 28.7916 32.9901 30.3359 30.5682C34.1714 24.5528 36.0767 18.6426 36.3598 14.7707L36.3602 14.7651L36.3607 14.7594C36.3947 14.3977 36.4121 14.0311 36.4121 13.6604C36.4121 7.14461 31.034 1.84249 24.375 1.84249ZM11.25 13.6604C11.25 6.51916 17.1374 0.75 24.375 0.75C31.6126 0.75 37.5 6.51916 37.5 13.6604C37.5 14.0635 37.4812 14.4624 37.4444 14.8563C37.1435 18.9518 35.1576 25.0322 31.2521 31.1573C29.6733 33.6333 27.7779 36.1217 25.5473 38.4941C24.9131 39.1686 23.8369 39.1686 23.2027 38.4941C20.9721 36.1217 19.0767 33.6333 17.4979 31.1573C13.5924 25.0322 11.6065 18.9518 11.3056 14.8563C11.2688 14.4624 11.25 14.0635 11.25 13.6604ZM22.7671 10.2465C21.8719 9.55974 20.5862 9.67851 19.8375 10.5115C19.1102 11.3208 19.1305 12.5379 19.8854 13.3236L24.1015 17.7119L28.3176 13.3236C29.0725 12.5379 29.0928 11.3208 28.3655 10.5115C27.6168 9.67851 26.3311 9.55974 25.4359 10.2465L24.6333 10.8623C24.3199 11.1027 23.8831 11.1027 23.5697 10.8623L22.7671 10.2465ZM19.0299 9.77959C20.1603 8.52166 22.0852 8.3485 23.4276 9.37838L24.1015 9.89541L24.7754 9.37838C26.1178 8.3485 28.0427 8.52166 29.1731 9.77959C30.2839 11.0156 30.2519 12.8838 29.1006 14.0821L24.7949 18.5636C24.4171 18.9568 23.7859 18.9568 23.4081 18.5636L19.1024 14.0821C17.9511 12.8838 17.9191 11.0156 19.0299 9.77959Z" fill="#EBD1B2"/>
</g>
<defs>
<clipPath id="clip0_186_2007">
<rect width="48" height="48" fill="white"/>
</clipPath>
</defs>
</svg>
