<svg width="22" height="17" viewBox="0 0 22 17" fill="none" xmlns="http://www.w3.org/2000/svg">
<path d="M5.36134 17C4.37535 17 3.53315 16.8104 2.83473 16.4312C2.1774 16.052 1.64332 15.5254 1.23249 14.8513C0.821662 14.2193 0.513539 13.461 0.308123 12.5762C0.102708 11.6493 0 10.7856 0 9.98513C0 7.87856 0.513539 5.96159 1.54062 4.2342C2.60878 2.46468 4.23156 1.05328 6.40896 0L6.96359 1.13755C5.77218 1.64312 4.72456 2.44362 3.82073 3.53903C2.95798 4.63445 2.44444 5.75093 2.28011 6.88847C2.15686 7.68897 2.1774 8.42627 2.34174 9.10037C3.1634 8.25775 4.21102 7.83643 5.48459 7.83643C6.79925 7.83643 7.88796 8.23668 8.7507 9.03718C9.61345 9.83767 10.0448 10.9752 10.0448 12.4498C10.0448 13.798 9.5929 14.8934 8.68908 15.7361C7.78525 16.5787 6.676 17 5.36134 17ZM17.3165 17C16.3305 17 15.4883 16.8104 14.7899 16.4312C14.1326 16.052 13.5985 15.5254 13.1877 14.8513C12.7768 14.2193 12.4687 13.461 12.2633 12.5762C12.0579 11.6493 11.9552 10.7856 11.9552 9.98513C11.9552 7.87856 12.4687 5.96159 13.4958 4.2342C14.564 2.46468 16.1867 1.05328 18.3641 0L18.9188 1.13755C17.7274 1.64312 16.6797 2.44362 15.7759 3.53903C14.9132 4.63445 14.3996 5.75093 14.2353 6.88847C14.112 7.68897 14.1326 8.42627 14.2969 9.10037C15.1186 8.25775 16.1662 7.83643 17.4398 7.83643C18.7544 7.83643 19.8431 8.23668 20.7059 9.03718C21.5686 9.83767 22 10.9752 22 12.4498C22 13.798 21.5481 14.8934 20.6443 15.7361C19.7404 16.5787 18.6312 17 17.3165 17Z" fill="#972A29"/>
</svg>
