<svg width="151" height="161" viewBox="0 0 151 161" fill="none" xmlns="http://www.w3.org/2000/svg">
<rect width="151" height="161" rx="4" fill="#A8A8A8"/>
<path d="M109.833 37.5H42.1667C38.3211 37.5 34.633 39.0277 31.9137 41.747C29.1944 44.4662 27.6667 48.1544 27.6667 52V90.6667C27.6667 94.5123 29.1944 98.2004 31.9137 100.92C34.633 103.639 38.3211 105.167 42.1667 105.167H71.1667V114.833H51.8334C50.5515 114.833 49.3222 115.343 48.4157 116.249C47.5093 117.155 47.0001 118.385 47.0001 119.667C47.0001 120.949 47.5093 122.178 48.4157 123.084C49.3222 123.991 50.5515 124.5 51.8334 124.5H100.167C101.449 124.5 102.678 123.991 103.584 123.084C104.491 122.178 105 120.949 105 119.667C105 118.385 104.491 117.155 103.584 116.249C102.678 115.343 101.449 114.833 100.167 114.833H80.8334V105.167H109.833C113.679 105.167 117.367 103.639 120.086 100.92C122.806 98.2004 124.333 94.5123 124.333 90.6667V52C124.333 48.1544 122.806 44.4662 120.086 41.747C117.367 39.0277 113.679 37.5 109.833 37.5ZM114.667 90.6667C114.667 91.9485 114.158 93.1779 113.251 94.0844C112.345 94.9908 111.115 95.5 109.833 95.5H42.1667C40.8849 95.5 39.6555 94.9908 38.7491 94.0844C37.8426 93.1779 37.3334 91.9485 37.3334 90.6667V52C37.3334 50.7181 37.8426 49.4887 38.7491 48.5823C39.6555 47.6759 40.8849 47.1667 42.1667 47.1667H109.833C111.115 47.1667 112.345 47.6759 113.251 48.5823C114.158 49.4887 114.667 50.7181 114.667 52V90.6667Z" fill="#D8D8D8"/>
</svg>
